M48
; DRILL file {KiCad (6.0.6)} date Sun Jul 31 00:46:18 2022
; FORMAT={-:-/ absolute / metric / decimal}
; #@! TF.CreationDate,2022-07-31T00:46:18+09:00
; #@! TF.GenerationSoftware,Kicad,Pcbnew,(6.0.6)
; #@! TF.FileFunction,MixedPlating,1,2
FMAT,2
METRIC
; #@! TA.AperFunction,Plated,PTH,ViaDrill
T1C0.635
; #@! TA.AperFunction,Plated,PTH,ComponentDrill
T2C1.000
; #@! TA.AperFunction,Plated,PTH,ComponentDrill
T3C1.500
; #@! TA.AperFunction,Plated,PTH,ComponentDrill
T4C1.700
; #@! TA.AperFunction,NonPlated,NPTH,ComponentDrill
T5C3.200
%
G90
G05
T1
X89.662Y-107.696
X89.662Y-110.236
X89.662Y-112.776
T2
X80.03Y-105.435
X80.03Y-107.975
X80.03Y-110.515
X80.03Y-113.055
X80.03Y-115.595
X80.03Y-118.135
X82.57Y-105.435
X82.57Y-107.975
X82.57Y-110.515
X82.57Y-113.055
X82.57Y-115.595
X82.57Y-118.135
T3
X97.79Y-104.14
X97.79Y-119.38
X111.252Y-104.14
X111.252Y-119.38
X124.714Y-104.14
X124.714Y-119.38
X138.176Y-104.14
X138.176Y-119.38
T4
X95.25Y-101.6
X95.25Y-106.68
X95.25Y-116.84
X95.25Y-121.92
X100.33Y-101.6
X100.33Y-106.68
X100.33Y-116.84
X100.33Y-121.92
X108.712Y-101.6
X108.712Y-106.68
X108.712Y-116.84
X108.712Y-121.92
X113.792Y-101.6
X113.792Y-106.68
X113.792Y-116.84
X113.792Y-121.92
X122.174Y-101.6
X122.174Y-106.68
X122.174Y-116.84
X122.174Y-121.92
X127.254Y-101.6
X127.254Y-106.68
X127.254Y-116.84
X127.254Y-121.92
X135.636Y-101.6
X135.636Y-106.68
X135.636Y-116.84
X135.636Y-121.92
X140.716Y-101.6
X140.716Y-106.68
X140.716Y-116.84
X140.716Y-121.92
T5
X146.558Y-103.378
X146.558Y-120.142
T0
M30
