G04 #@! TF.GenerationSoftware,KiCad,Pcbnew,(6.0.6)*
G04 #@! TF.CreationDate,2022-07-31T00:45:43+09:00*
G04 #@! TF.ProjectId,mt_pmodsma,6d745f70-6d6f-4647-936d-612e6b696361,rev?*
G04 #@! TF.SameCoordinates,Original*
G04 #@! TF.FileFunction,Soldermask,Top*
G04 #@! TF.FilePolarity,Negative*
%FSLAX46Y46*%
G04 Gerber Fmt 4.6, Leading zero omitted, Abs format (unit mm)*
G04 Created by KiCad (PCBNEW (6.0.6)) date 2022-07-31 00:45:43*
%MOMM*%
%LPD*%
G01*
G04 APERTURE LIST*
G04 Aperture macros list*
%AMRoundRect*
0 Rectangle with rounded corners*
0 $1 Rounding radius*
0 $2 $3 $4 $5 $6 $7 $8 $9 X,Y pos of 4 corners*
0 Add a 4 corners polygon primitive as box body*
4,1,4,$2,$3,$4,$5,$6,$7,$8,$9,$2,$3,0*
0 Add four circle primitives for the rounded corners*
1,1,$1+$1,$2,$3*
1,1,$1+$1,$4,$5*
1,1,$1+$1,$6,$7*
1,1,$1+$1,$8,$9*
0 Add four rect primitives between the rounded corners*
20,1,$1+$1,$2,$3,$4,$5,0*
20,1,$1+$1,$4,$5,$6,$7,0*
20,1,$1+$1,$6,$7,$8,$9,0*
20,1,$1+$1,$8,$9,$2,$3,0*%
G04 Aperture macros list end*
%ADD10C,2.050000*%
%ADD11C,2.250000*%
%ADD12R,1.700000X1.700000*%
%ADD13O,1.700000X1.700000*%
%ADD14RoundRect,0.250000X-0.450000X0.350000X-0.450000X-0.350000X0.450000X-0.350000X0.450000X0.350000X0*%
%ADD15RoundRect,0.250000X0.450000X-0.350000X0.450000X0.350000X-0.450000X0.350000X-0.450000X-0.350000X0*%
%ADD16RoundRect,0.250000X0.450000X-0.325000X0.450000X0.325000X-0.450000X0.325000X-0.450000X-0.325000X0*%
%ADD17C,3.200000*%
G04 APERTURE END LIST*
D10*
X138176000Y-119380000D03*
D11*
X135636000Y-116840000D03*
X135636000Y-121920000D03*
X140716000Y-116840000D03*
X140716000Y-121920000D03*
D12*
X82570000Y-105435000D03*
D13*
X80030000Y-105435000D03*
X82570000Y-107975000D03*
X80030000Y-107975000D03*
X82570000Y-110515000D03*
X80030000Y-110515000D03*
X82570000Y-113055000D03*
X80030000Y-113055000D03*
X82570000Y-115595000D03*
X80030000Y-115595000D03*
X82570000Y-118135000D03*
X80030000Y-118135000D03*
D14*
X130302000Y-104140000D03*
X130302000Y-106140000D03*
D10*
X97790000Y-119380000D03*
D11*
X100330000Y-116840000D03*
X95250000Y-121920000D03*
X95250000Y-116840000D03*
X100330000Y-121920000D03*
D14*
X105664000Y-104140000D03*
X105664000Y-106140000D03*
D10*
X111252000Y-119380000D03*
D11*
X108712000Y-121920000D03*
X113792000Y-121920000D03*
X108712000Y-116840000D03*
X113792000Y-116840000D03*
D10*
X111252000Y-104140000D03*
D11*
X113792000Y-106680000D03*
X113792000Y-101600000D03*
X108712000Y-106680000D03*
X108712000Y-101600000D03*
D15*
X130302000Y-119364000D03*
X130302000Y-117364000D03*
D16*
X88900000Y-119380000D03*
X88900000Y-117330000D03*
D17*
X146558000Y-103378000D03*
D15*
X105664000Y-119364000D03*
X105664000Y-117364000D03*
D10*
X138176000Y-104140000D03*
D11*
X135636000Y-101600000D03*
X135636000Y-106680000D03*
X140716000Y-101600000D03*
X140716000Y-106680000D03*
D10*
X124714000Y-119380000D03*
D11*
X122174000Y-116840000D03*
X127254000Y-121920000D03*
X127254000Y-116840000D03*
X122174000Y-121920000D03*
D17*
X146558000Y-120142000D03*
D14*
X132588000Y-104140000D03*
X132588000Y-106140000D03*
D10*
X97790000Y-104140000D03*
D11*
X100330000Y-101600000D03*
X95250000Y-101600000D03*
X100330000Y-106680000D03*
X95250000Y-106680000D03*
D14*
X86360000Y-117380000D03*
X86360000Y-119380000D03*
D15*
X103378000Y-119348000D03*
X103378000Y-117348000D03*
D14*
X103378000Y-104140000D03*
X103378000Y-106140000D03*
D10*
X124714000Y-104140000D03*
D11*
X122174000Y-106680000D03*
X127254000Y-101600000D03*
X122174000Y-101600000D03*
X127254000Y-106680000D03*
D15*
X132588000Y-119364000D03*
X132588000Y-117364000D03*
M02*
