G04 #@! TF.GenerationSoftware,KiCad,Pcbnew,(6.0.6)*
G04 #@! TF.CreationDate,2022-07-31T00:45:43+09:00*
G04 #@! TF.ProjectId,mt_pmodsma,6d745f70-6d6f-4647-936d-612e6b696361,rev?*
G04 #@! TF.SameCoordinates,Original*
G04 #@! TF.FileFunction,Copper,L1,Top*
G04 #@! TF.FilePolarity,Positive*
%FSLAX46Y46*%
G04 Gerber Fmt 4.6, Leading zero omitted, Abs format (unit mm)*
G04 Created by KiCad (PCBNEW (6.0.6)) date 2022-07-31 00:45:43*
%MOMM*%
%LPD*%
G01*
G04 APERTURE LIST*
G04 Aperture macros list*
%AMRoundRect*
0 Rectangle with rounded corners*
0 $1 Rounding radius*
0 $2 $3 $4 $5 $6 $7 $8 $9 X,Y pos of 4 corners*
0 Add a 4 corners polygon primitive as box body*
4,1,4,$2,$3,$4,$5,$6,$7,$8,$9,$2,$3,0*
0 Add four circle primitives for the rounded corners*
1,1,$1+$1,$2,$3*
1,1,$1+$1,$4,$5*
1,1,$1+$1,$6,$7*
1,1,$1+$1,$8,$9*
0 Add four rect primitives between the rounded corners*
20,1,$1+$1,$2,$3,$4,$5,0*
20,1,$1+$1,$4,$5,$6,$7,0*
20,1,$1+$1,$6,$7,$8,$9,0*
20,1,$1+$1,$8,$9,$2,$3,0*%
G04 Aperture macros list end*
G04 #@! TA.AperFunction,ComponentPad*
%ADD10C,2.050000*%
G04 #@! TD*
G04 #@! TA.AperFunction,ComponentPad*
%ADD11C,2.250000*%
G04 #@! TD*
G04 #@! TA.AperFunction,ComponentPad*
%ADD12R,1.700000X1.700000*%
G04 #@! TD*
G04 #@! TA.AperFunction,ComponentPad*
%ADD13O,1.700000X1.700000*%
G04 #@! TD*
G04 #@! TA.AperFunction,SMDPad,CuDef*
%ADD14RoundRect,0.250000X-0.450000X0.350000X-0.450000X-0.350000X0.450000X-0.350000X0.450000X0.350000X0*%
G04 #@! TD*
G04 #@! TA.AperFunction,SMDPad,CuDef*
%ADD15RoundRect,0.250000X0.450000X-0.350000X0.450000X0.350000X-0.450000X0.350000X-0.450000X-0.350000X0*%
G04 #@! TD*
G04 #@! TA.AperFunction,SMDPad,CuDef*
%ADD16RoundRect,0.250000X0.450000X-0.325000X0.450000X0.325000X-0.450000X0.325000X-0.450000X-0.325000X0*%
G04 #@! TD*
G04 #@! TA.AperFunction,ViaPad*
%ADD17C,0.889000*%
G04 #@! TD*
G04 #@! TA.AperFunction,Conductor*
%ADD18C,0.203200*%
G04 #@! TD*
G04 APERTURE END LIST*
D10*
X138176000Y-119380000D03*
D11*
X135636000Y-116840000D03*
X135636000Y-121920000D03*
X140716000Y-116840000D03*
X140716000Y-121920000D03*
D12*
X82570000Y-105435000D03*
D13*
X80030000Y-105435000D03*
X82570000Y-107975000D03*
X80030000Y-107975000D03*
X82570000Y-110515000D03*
X80030000Y-110515000D03*
X82570000Y-113055000D03*
X80030000Y-113055000D03*
X82570000Y-115595000D03*
X80030000Y-115595000D03*
X82570000Y-118135000D03*
X80030000Y-118135000D03*
D14*
X130302000Y-104140000D03*
X130302000Y-106140000D03*
D10*
X97790000Y-119380000D03*
D11*
X100330000Y-116840000D03*
X95250000Y-121920000D03*
X95250000Y-116840000D03*
X100330000Y-121920000D03*
D14*
X105664000Y-104140000D03*
X105664000Y-106140000D03*
D10*
X111252000Y-119380000D03*
D11*
X108712000Y-121920000D03*
X113792000Y-121920000D03*
X108712000Y-116840000D03*
X113792000Y-116840000D03*
D10*
X111252000Y-104140000D03*
D11*
X113792000Y-106680000D03*
X113792000Y-101600000D03*
X108712000Y-106680000D03*
X108712000Y-101600000D03*
D15*
X130302000Y-119364000D03*
X130302000Y-117364000D03*
D16*
X88900000Y-119380000D03*
X88900000Y-117330000D03*
D15*
X105664000Y-119364000D03*
X105664000Y-117364000D03*
D10*
X138176000Y-104140000D03*
D11*
X135636000Y-101600000D03*
X135636000Y-106680000D03*
X140716000Y-101600000D03*
X140716000Y-106680000D03*
D10*
X124714000Y-119380000D03*
D11*
X122174000Y-116840000D03*
X127254000Y-121920000D03*
X127254000Y-116840000D03*
X122174000Y-121920000D03*
D14*
X132588000Y-104140000D03*
X132588000Y-106140000D03*
D10*
X97790000Y-104140000D03*
D11*
X100330000Y-101600000D03*
X95250000Y-101600000D03*
X100330000Y-106680000D03*
X95250000Y-106680000D03*
D14*
X86360000Y-117380000D03*
X86360000Y-119380000D03*
D15*
X103378000Y-119348000D03*
X103378000Y-117348000D03*
D14*
X103378000Y-104140000D03*
X103378000Y-106140000D03*
D10*
X124714000Y-104140000D03*
D11*
X122174000Y-106680000D03*
X127254000Y-101600000D03*
X122174000Y-101600000D03*
X127254000Y-106680000D03*
D15*
X132588000Y-119364000D03*
X132588000Y-117364000D03*
D17*
X89662000Y-110236000D03*
X89662000Y-112776000D03*
X89662000Y-107696000D03*
D18*
X82570000Y-105435000D02*
X89941000Y-105435000D01*
X101854000Y-109474000D02*
X103378000Y-107950000D01*
X89941000Y-105435000D02*
X93980000Y-109474000D01*
X103378000Y-107950000D02*
X103378000Y-106140000D01*
X93980000Y-109474000D02*
X101854000Y-109474000D01*
X105664000Y-107696000D02*
X105664000Y-106140000D01*
X80030000Y-105435000D02*
X81275000Y-106680000D01*
X93726000Y-109982000D02*
X103378000Y-109982000D01*
X90424000Y-106680000D02*
X93726000Y-109982000D01*
X81275000Y-106680000D02*
X90424000Y-106680000D01*
X103378000Y-109982000D02*
X105664000Y-107696000D01*
X84353000Y-107975000D02*
X85090000Y-108712000D01*
X127000000Y-110998000D02*
X130302000Y-107696000D01*
X82570000Y-107975000D02*
X84353000Y-107975000D01*
X85090000Y-108712000D02*
X90932000Y-108712000D01*
X93218000Y-110998000D02*
X127000000Y-110998000D01*
X90932000Y-108712000D02*
X93218000Y-110998000D01*
X130302000Y-107696000D02*
X130302000Y-106140000D01*
X92913200Y-111455200D02*
X128574800Y-111455200D01*
X81275000Y-109220000D02*
X90678000Y-109220000D01*
X128574800Y-111455200D02*
X132588000Y-107442000D01*
X80030000Y-107975000D02*
X81275000Y-109220000D01*
X90678000Y-109220000D02*
X92913200Y-111455200D01*
X132588000Y-107442000D02*
X132588000Y-106140000D01*
X129032000Y-112268000D02*
X132588000Y-115824000D01*
X84353000Y-110515000D02*
X85090000Y-111252000D01*
X85090000Y-111252000D02*
X90932000Y-111252000D01*
X82570000Y-110515000D02*
X84353000Y-110515000D01*
X132588000Y-115824000D02*
X132588000Y-117364000D01*
X90932000Y-111252000D02*
X91948000Y-112268000D01*
X91948000Y-112268000D02*
X129032000Y-112268000D01*
X130302000Y-116078000D02*
X130302000Y-117364000D01*
X90678000Y-111760000D02*
X91694000Y-112776000D01*
X80030000Y-110515000D02*
X81275000Y-111760000D01*
X91694000Y-112776000D02*
X127000000Y-112776000D01*
X127000000Y-112776000D02*
X130302000Y-116078000D01*
X81275000Y-111760000D02*
X90678000Y-111760000D01*
X84353000Y-113055000D02*
X85090000Y-113792000D01*
X103632000Y-113792000D02*
X105664000Y-115824000D01*
X85090000Y-113792000D02*
X103632000Y-113792000D01*
X82570000Y-113055000D02*
X84353000Y-113055000D01*
X105664000Y-115824000D02*
X105664000Y-117364000D01*
X90424000Y-114300000D02*
X101600000Y-114300000D01*
X80030000Y-113055000D02*
X81275000Y-114300000D01*
X103378000Y-116078000D02*
X103378000Y-116332000D01*
X81275000Y-114300000D02*
X90424000Y-114300000D01*
X101600000Y-114300000D02*
X103378000Y-116078000D01*
X103378000Y-116078000D02*
X103378000Y-117348000D01*
X86360000Y-117380000D02*
X88850000Y-117380000D01*
X88850000Y-117380000D02*
X88900000Y-117330000D01*
X82570000Y-118135000D02*
X84099000Y-118135000D01*
X85344000Y-119380000D02*
X86360000Y-119380000D01*
X80030000Y-118135000D02*
X82570000Y-118135000D01*
X84099000Y-118135000D02*
X85344000Y-119380000D01*
X127254000Y-106680000D02*
X122174000Y-106680000D01*
X135636000Y-101600000D02*
X140716000Y-101600000D01*
X108712000Y-121920000D02*
X100330000Y-121920000D01*
X77749000Y-115595000D02*
X80030000Y-115595000D01*
X122174000Y-121920000D02*
X113792000Y-121920000D01*
X122174000Y-116840000D02*
X127254000Y-116840000D01*
X95250000Y-121920000D02*
X88900000Y-121920000D01*
X89662000Y-107696000D02*
X90678000Y-107696000D01*
X80030000Y-115595000D02*
X82570000Y-115595000D01*
X100330000Y-116840000D02*
X95250000Y-116840000D01*
X127254000Y-109474000D02*
X127254000Y-106680000D01*
X77724000Y-115570000D02*
X77749000Y-115595000D01*
X135534400Y-111861600D02*
X135636000Y-111760000D01*
X140716000Y-106680000D02*
X140716000Y-116840000D01*
X88900000Y-121920000D02*
X77724000Y-121920000D01*
X127254000Y-101600000D02*
X135636000Y-101600000D01*
X113792000Y-106680000D02*
X108712000Y-106680000D01*
X135636000Y-111760000D02*
X135636000Y-111252000D01*
X95250000Y-106680000D02*
X100330000Y-106680000D01*
X95250000Y-101600000D02*
X77724000Y-101600000D01*
X108712000Y-116840000D02*
X113792000Y-116840000D01*
X123698000Y-113284000D02*
X127254000Y-116840000D01*
X122174000Y-121920000D02*
X122174000Y-116840000D01*
X90678000Y-107696000D02*
X93472000Y-110490000D01*
X113792000Y-101600000D02*
X122174000Y-101600000D01*
X140716000Y-101600000D02*
X140716000Y-106680000D01*
X140716000Y-121920000D02*
X135636000Y-121920000D01*
X100330000Y-121920000D02*
X95250000Y-121920000D01*
X77724000Y-121920000D02*
X77724000Y-115570000D01*
X89662000Y-110236000D02*
X90490736Y-110236000D01*
X126238000Y-110490000D02*
X127254000Y-109474000D01*
X113792000Y-121920000D02*
X108712000Y-121920000D01*
X92116336Y-111861600D02*
X135534400Y-111861600D01*
X135636000Y-121920000D02*
X127254000Y-121920000D01*
X77724000Y-101600000D02*
X77724000Y-115570000D01*
X135636000Y-116840000D02*
X135636000Y-111760000D01*
X127254000Y-121920000D02*
X122174000Y-121920000D01*
X113792000Y-101600000D02*
X113792000Y-106680000D01*
X90170000Y-113284000D02*
X123698000Y-113284000D01*
X93472000Y-110490000D02*
X126238000Y-110490000D01*
X140716000Y-116840000D02*
X140716000Y-121920000D01*
X95250000Y-116840000D02*
X95250000Y-121920000D01*
X100330000Y-101600000D02*
X108712000Y-101600000D01*
X95250000Y-101600000D02*
X100330000Y-101600000D01*
X90490736Y-110236000D02*
X92116336Y-111861600D01*
X113792000Y-116840000D02*
X113792000Y-121920000D01*
X135636000Y-106680000D02*
X135636000Y-111252000D01*
X89662000Y-112776000D02*
X90170000Y-113284000D01*
X122174000Y-101600000D02*
X127254000Y-101600000D01*
X95250000Y-101600000D02*
X95250000Y-106680000D01*
X108712000Y-101600000D02*
X113792000Y-101600000D01*
X88900000Y-119380000D02*
X88900000Y-121920000D01*
X122174000Y-106680000D02*
X122174000Y-101600000D01*
X97790000Y-104140000D02*
X103378000Y-104140000D01*
X105664000Y-104140000D02*
X111252000Y-104140000D01*
X124714000Y-104140000D02*
X130302000Y-104140000D01*
X132588000Y-104140000D02*
X138176000Y-104140000D01*
X132588000Y-119364000D02*
X132604000Y-119380000D01*
X132604000Y-119380000D02*
X138176000Y-119380000D01*
X130286000Y-119380000D02*
X130302000Y-119364000D01*
X124714000Y-119380000D02*
X130286000Y-119380000D01*
X105680000Y-119380000D02*
X111252000Y-119380000D01*
X105664000Y-119364000D02*
X105680000Y-119380000D01*
X103346000Y-119380000D02*
X103378000Y-119348000D01*
X97790000Y-119380000D02*
X103346000Y-119380000D01*
G04 #@! TA.AperFunction,Conductor*
G36*
X94257682Y-100096002D02*
G01*
X94304175Y-100149658D01*
X94314279Y-100219932D01*
X94295072Y-100270873D01*
X94290811Y-100277401D01*
X94296817Y-100287607D01*
X95237188Y-101227978D01*
X95251132Y-101235592D01*
X95252965Y-101235461D01*
X95259580Y-101231210D01*
X96201724Y-100289066D01*
X96209116Y-100275529D01*
X96208206Y-100274228D01*
X96185546Y-100206944D01*
X96202860Y-100138091D01*
X96254649Y-100089529D01*
X96311449Y-100076000D01*
X99269561Y-100076000D01*
X99337682Y-100096002D01*
X99384175Y-100149658D01*
X99394279Y-100219932D01*
X99375072Y-100270873D01*
X99370811Y-100277401D01*
X99376817Y-100287607D01*
X100317188Y-101227978D01*
X100331132Y-101235592D01*
X100332965Y-101235461D01*
X100339580Y-101231210D01*
X101281724Y-100289066D01*
X101289116Y-100275529D01*
X101288206Y-100274228D01*
X101265546Y-100206944D01*
X101282860Y-100138091D01*
X101334649Y-100089529D01*
X101391449Y-100076000D01*
X107651561Y-100076000D01*
X107719682Y-100096002D01*
X107766175Y-100149658D01*
X107776279Y-100219932D01*
X107757072Y-100270873D01*
X107752811Y-100277401D01*
X107758817Y-100287607D01*
X108699188Y-101227978D01*
X108713132Y-101235592D01*
X108714965Y-101235461D01*
X108721580Y-101231210D01*
X109663724Y-100289066D01*
X109671116Y-100275529D01*
X109670206Y-100274228D01*
X109647546Y-100206944D01*
X109664860Y-100138091D01*
X109716649Y-100089529D01*
X109773449Y-100076000D01*
X112731561Y-100076000D01*
X112799682Y-100096002D01*
X112846175Y-100149658D01*
X112856279Y-100219932D01*
X112837072Y-100270873D01*
X112832811Y-100277401D01*
X112838817Y-100287607D01*
X113779188Y-101227978D01*
X113793132Y-101235592D01*
X113794965Y-101235461D01*
X113801580Y-101231210D01*
X114743724Y-100289066D01*
X114751116Y-100275529D01*
X114750206Y-100274228D01*
X114727546Y-100206944D01*
X114744860Y-100138091D01*
X114796649Y-100089529D01*
X114853449Y-100076000D01*
X121113561Y-100076000D01*
X121181682Y-100096002D01*
X121228175Y-100149658D01*
X121238279Y-100219932D01*
X121219072Y-100270873D01*
X121214811Y-100277401D01*
X121220817Y-100287607D01*
X122161188Y-101227978D01*
X122175132Y-101235592D01*
X122176965Y-101235461D01*
X122183580Y-101231210D01*
X123125724Y-100289066D01*
X123133116Y-100275529D01*
X123132206Y-100274228D01*
X123109546Y-100206944D01*
X123126860Y-100138091D01*
X123178649Y-100089529D01*
X123235449Y-100076000D01*
X126193561Y-100076000D01*
X126261682Y-100096002D01*
X126308175Y-100149658D01*
X126318279Y-100219932D01*
X126299072Y-100270873D01*
X126294811Y-100277401D01*
X126300817Y-100287607D01*
X127241188Y-101227978D01*
X127255132Y-101235592D01*
X127256965Y-101235461D01*
X127263580Y-101231210D01*
X128205724Y-100289066D01*
X128213116Y-100275529D01*
X128212206Y-100274228D01*
X128189546Y-100206944D01*
X128206860Y-100138091D01*
X128258649Y-100089529D01*
X128315449Y-100076000D01*
X134575561Y-100076000D01*
X134643682Y-100096002D01*
X134690175Y-100149658D01*
X134700279Y-100219932D01*
X134681072Y-100270873D01*
X134676811Y-100277401D01*
X134682817Y-100287607D01*
X135623188Y-101227978D01*
X135637132Y-101235592D01*
X135638965Y-101235461D01*
X135645580Y-101231210D01*
X136587724Y-100289066D01*
X136595116Y-100275529D01*
X136594206Y-100274228D01*
X136571546Y-100206944D01*
X136588860Y-100138091D01*
X136640649Y-100089529D01*
X136697449Y-100076000D01*
X139655561Y-100076000D01*
X139723682Y-100096002D01*
X139770175Y-100149658D01*
X139780279Y-100219932D01*
X139761072Y-100270873D01*
X139756811Y-100277401D01*
X139762817Y-100287607D01*
X140703188Y-101227978D01*
X140717132Y-101235592D01*
X140718965Y-101235461D01*
X140725580Y-101231210D01*
X141667724Y-100289066D01*
X141675116Y-100275529D01*
X141674206Y-100274228D01*
X141651546Y-100206944D01*
X141668860Y-100138091D01*
X141720649Y-100089529D01*
X141777449Y-100076000D01*
X142368000Y-100076000D01*
X142436121Y-100096002D01*
X142482614Y-100149658D01*
X142494000Y-100202000D01*
X142494000Y-100991791D01*
X142473998Y-101059912D01*
X142420342Y-101106405D01*
X142350068Y-101116509D01*
X142285488Y-101087015D01*
X142251591Y-101040009D01*
X142177408Y-100860915D01*
X142172927Y-100852121D01*
X142046660Y-100646072D01*
X142038599Y-100640810D01*
X142028393Y-100646817D01*
X141088022Y-101587188D01*
X141080408Y-101601132D01*
X141080539Y-101602965D01*
X141084790Y-101609580D01*
X142026934Y-102551724D01*
X142040471Y-102559116D01*
X142045740Y-102555430D01*
X142172927Y-102347879D01*
X142177408Y-102339085D01*
X142251591Y-102159991D01*
X142296139Y-102104710D01*
X142363503Y-102082289D01*
X142432294Y-102099847D01*
X142480672Y-102151809D01*
X142494000Y-102208209D01*
X142494000Y-106071791D01*
X142473998Y-106139912D01*
X142420342Y-106186405D01*
X142350068Y-106196509D01*
X142285488Y-106167015D01*
X142251591Y-106120009D01*
X142177408Y-105940915D01*
X142172927Y-105932121D01*
X142046660Y-105726072D01*
X142038599Y-105720810D01*
X142028393Y-105726817D01*
X141088022Y-106667188D01*
X141080408Y-106681132D01*
X141080539Y-106682965D01*
X141084790Y-106689580D01*
X142026934Y-107631724D01*
X142040471Y-107639116D01*
X142045740Y-107635430D01*
X142172927Y-107427879D01*
X142177408Y-107419085D01*
X142251591Y-107239991D01*
X142296139Y-107184710D01*
X142363503Y-107162289D01*
X142432294Y-107179847D01*
X142480672Y-107231809D01*
X142494000Y-107288209D01*
X142494000Y-116231791D01*
X142473998Y-116299912D01*
X142420342Y-116346405D01*
X142350068Y-116356509D01*
X142285488Y-116327015D01*
X142251591Y-116280009D01*
X142177408Y-116100915D01*
X142172927Y-116092121D01*
X142046660Y-115886072D01*
X142038599Y-115880810D01*
X142028393Y-115886817D01*
X141088022Y-116827188D01*
X141080408Y-116841132D01*
X141080539Y-116842965D01*
X141084790Y-116849580D01*
X142026934Y-117791724D01*
X142040471Y-117799116D01*
X142045740Y-117795430D01*
X142172927Y-117587879D01*
X142177408Y-117579085D01*
X142251591Y-117399991D01*
X142296139Y-117344710D01*
X142363503Y-117322289D01*
X142432294Y-117339847D01*
X142480672Y-117391809D01*
X142494000Y-117448209D01*
X142494000Y-121311791D01*
X142473998Y-121379912D01*
X142420342Y-121426405D01*
X142350068Y-121436509D01*
X142285488Y-121407015D01*
X142251591Y-121360009D01*
X142177408Y-121180915D01*
X142172927Y-121172121D01*
X142046660Y-120966072D01*
X142038599Y-120960810D01*
X142028393Y-120966817D01*
X141088022Y-121907188D01*
X141080408Y-121921132D01*
X141080539Y-121922965D01*
X141084790Y-121929580D01*
X142026934Y-122871724D01*
X142040471Y-122879116D01*
X142045740Y-122875430D01*
X142172927Y-122667879D01*
X142177408Y-122659085D01*
X142251591Y-122479991D01*
X142296139Y-122424710D01*
X142363503Y-122402289D01*
X142432294Y-122419847D01*
X142480672Y-122471809D01*
X142494000Y-122528209D01*
X142494000Y-123318000D01*
X142473998Y-123386121D01*
X142420342Y-123432614D01*
X142368000Y-123444000D01*
X141776439Y-123444000D01*
X141708318Y-123423998D01*
X141661825Y-123370342D01*
X141651721Y-123300068D01*
X141670928Y-123249127D01*
X141675189Y-123242599D01*
X141669183Y-123232393D01*
X140728812Y-122292022D01*
X140714868Y-122284408D01*
X140713035Y-122284539D01*
X140706420Y-122288790D01*
X139764276Y-123230934D01*
X139756884Y-123244471D01*
X139757794Y-123245772D01*
X139780454Y-123313056D01*
X139763140Y-123381909D01*
X139711351Y-123430471D01*
X139654551Y-123444000D01*
X136696439Y-123444000D01*
X136628318Y-123423998D01*
X136581825Y-123370342D01*
X136571721Y-123300068D01*
X136590928Y-123249127D01*
X136595189Y-123242599D01*
X136589183Y-123232393D01*
X135648812Y-122292022D01*
X135634868Y-122284408D01*
X135633035Y-122284539D01*
X135626420Y-122288790D01*
X134684276Y-123230934D01*
X134676884Y-123244471D01*
X134677794Y-123245772D01*
X134700454Y-123313056D01*
X134683140Y-123381909D01*
X134631351Y-123430471D01*
X134574551Y-123444000D01*
X128314439Y-123444000D01*
X128246318Y-123423998D01*
X128199825Y-123370342D01*
X128189721Y-123300068D01*
X128208928Y-123249127D01*
X128213189Y-123242599D01*
X128207183Y-123232393D01*
X127266812Y-122292022D01*
X127252868Y-122284408D01*
X127251035Y-122284539D01*
X127244420Y-122288790D01*
X126302276Y-123230934D01*
X126294884Y-123244471D01*
X126295794Y-123245772D01*
X126318454Y-123313056D01*
X126301140Y-123381909D01*
X126249351Y-123430471D01*
X126192551Y-123444000D01*
X123234439Y-123444000D01*
X123166318Y-123423998D01*
X123119825Y-123370342D01*
X123109721Y-123300068D01*
X123128928Y-123249127D01*
X123133189Y-123242599D01*
X123127183Y-123232393D01*
X122186812Y-122292022D01*
X122172868Y-122284408D01*
X122171035Y-122284539D01*
X122164420Y-122288790D01*
X121222276Y-123230934D01*
X121214884Y-123244471D01*
X121215794Y-123245772D01*
X121238454Y-123313056D01*
X121221140Y-123381909D01*
X121169351Y-123430471D01*
X121112551Y-123444000D01*
X114852439Y-123444000D01*
X114784318Y-123423998D01*
X114737825Y-123370342D01*
X114727721Y-123300068D01*
X114746928Y-123249127D01*
X114751189Y-123242599D01*
X114745183Y-123232393D01*
X113804812Y-122292022D01*
X113790868Y-122284408D01*
X113789035Y-122284539D01*
X113782420Y-122288790D01*
X112840276Y-123230934D01*
X112832884Y-123244471D01*
X112833794Y-123245772D01*
X112856454Y-123313056D01*
X112839140Y-123381909D01*
X112787351Y-123430471D01*
X112730551Y-123444000D01*
X109772439Y-123444000D01*
X109704318Y-123423998D01*
X109657825Y-123370342D01*
X109647721Y-123300068D01*
X109666928Y-123249127D01*
X109671189Y-123242599D01*
X109665183Y-123232393D01*
X108724812Y-122292022D01*
X108710868Y-122284408D01*
X108709035Y-122284539D01*
X108702420Y-122288790D01*
X107760276Y-123230934D01*
X107752884Y-123244471D01*
X107753794Y-123245772D01*
X107776454Y-123313056D01*
X107759140Y-123381909D01*
X107707351Y-123430471D01*
X107650551Y-123444000D01*
X101390439Y-123444000D01*
X101322318Y-123423998D01*
X101275825Y-123370342D01*
X101265721Y-123300068D01*
X101284928Y-123249127D01*
X101289189Y-123242599D01*
X101283183Y-123232393D01*
X100342812Y-122292022D01*
X100328868Y-122284408D01*
X100327035Y-122284539D01*
X100320420Y-122288790D01*
X99378276Y-123230934D01*
X99370884Y-123244471D01*
X99371794Y-123245772D01*
X99394454Y-123313056D01*
X99377140Y-123381909D01*
X99325351Y-123430471D01*
X99268551Y-123444000D01*
X96310439Y-123444000D01*
X96242318Y-123423998D01*
X96195825Y-123370342D01*
X96185721Y-123300068D01*
X96204928Y-123249127D01*
X96209189Y-123242599D01*
X96203183Y-123232393D01*
X95262812Y-122292022D01*
X95248868Y-122284408D01*
X95247035Y-122284539D01*
X95240420Y-122288790D01*
X94298276Y-123230934D01*
X94290884Y-123244471D01*
X94291794Y-123245772D01*
X94314454Y-123313056D01*
X94297140Y-123381909D01*
X94245351Y-123430471D01*
X94188551Y-123444000D01*
X77088000Y-123444000D01*
X77019879Y-123423998D01*
X76973386Y-123370342D01*
X76962000Y-123318000D01*
X76962000Y-121924930D01*
X93612338Y-121924930D01*
X93631729Y-122171313D01*
X93633272Y-122181060D01*
X93690967Y-122421373D01*
X93694016Y-122430758D01*
X93788592Y-122659085D01*
X93793073Y-122667879D01*
X93919340Y-122873928D01*
X93927401Y-122879190D01*
X93937607Y-122873183D01*
X94877978Y-121932812D01*
X94884356Y-121921132D01*
X95614408Y-121921132D01*
X95614539Y-121922965D01*
X95618790Y-121929580D01*
X96560934Y-122871724D01*
X96574471Y-122879116D01*
X96579740Y-122875430D01*
X96706927Y-122667879D01*
X96711408Y-122659085D01*
X96805984Y-122430758D01*
X96809033Y-122421373D01*
X96866728Y-122181060D01*
X96868271Y-122171313D01*
X96887662Y-121924930D01*
X98692338Y-121924930D01*
X98711729Y-122171313D01*
X98713272Y-122181060D01*
X98770967Y-122421373D01*
X98774016Y-122430758D01*
X98868592Y-122659085D01*
X98873073Y-122667879D01*
X98999340Y-122873928D01*
X99007401Y-122879190D01*
X99017607Y-122873183D01*
X99957978Y-121932812D01*
X99964356Y-121921132D01*
X100694408Y-121921132D01*
X100694539Y-121922965D01*
X100698790Y-121929580D01*
X101640934Y-122871724D01*
X101654471Y-122879116D01*
X101659740Y-122875430D01*
X101786927Y-122667879D01*
X101791408Y-122659085D01*
X101885984Y-122430758D01*
X101889033Y-122421373D01*
X101946728Y-122181060D01*
X101948271Y-122171313D01*
X101967662Y-121924930D01*
X107074338Y-121924930D01*
X107093729Y-122171313D01*
X107095272Y-122181060D01*
X107152967Y-122421373D01*
X107156016Y-122430758D01*
X107250592Y-122659085D01*
X107255073Y-122667879D01*
X107381340Y-122873928D01*
X107389401Y-122879190D01*
X107399607Y-122873183D01*
X108339978Y-121932812D01*
X108346356Y-121921132D01*
X109076408Y-121921132D01*
X109076539Y-121922965D01*
X109080790Y-121929580D01*
X110022934Y-122871724D01*
X110036471Y-122879116D01*
X110041740Y-122875430D01*
X110168927Y-122667879D01*
X110173408Y-122659085D01*
X110267984Y-122430758D01*
X110271033Y-122421373D01*
X110328728Y-122181060D01*
X110330271Y-122171313D01*
X110349662Y-121924930D01*
X112154338Y-121924930D01*
X112173729Y-122171313D01*
X112175272Y-122181060D01*
X112232967Y-122421373D01*
X112236016Y-122430758D01*
X112330592Y-122659085D01*
X112335073Y-122667879D01*
X112461340Y-122873928D01*
X112469401Y-122879190D01*
X112479607Y-122873183D01*
X113419978Y-121932812D01*
X113426356Y-121921132D01*
X114156408Y-121921132D01*
X114156539Y-121922965D01*
X114160790Y-121929580D01*
X115102934Y-122871724D01*
X115116471Y-122879116D01*
X115121740Y-122875430D01*
X115248927Y-122667879D01*
X115253408Y-122659085D01*
X115347984Y-122430758D01*
X115351033Y-122421373D01*
X115408728Y-122181060D01*
X115410271Y-122171313D01*
X115429662Y-121924930D01*
X120536338Y-121924930D01*
X120555729Y-122171313D01*
X120557272Y-122181060D01*
X120614967Y-122421373D01*
X120618016Y-122430758D01*
X120712592Y-122659085D01*
X120717073Y-122667879D01*
X120843340Y-122873928D01*
X120851401Y-122879190D01*
X120861607Y-122873183D01*
X121801978Y-121932812D01*
X121808356Y-121921132D01*
X122538408Y-121921132D01*
X122538539Y-121922965D01*
X122542790Y-121929580D01*
X123484934Y-122871724D01*
X123498471Y-122879116D01*
X123503740Y-122875430D01*
X123630927Y-122667879D01*
X123635408Y-122659085D01*
X123729984Y-122430758D01*
X123733033Y-122421373D01*
X123790728Y-122181060D01*
X123792271Y-122171313D01*
X123811662Y-121924930D01*
X125616338Y-121924930D01*
X125635729Y-122171313D01*
X125637272Y-122181060D01*
X125694967Y-122421373D01*
X125698016Y-122430758D01*
X125792592Y-122659085D01*
X125797073Y-122667879D01*
X125923340Y-122873928D01*
X125931401Y-122879190D01*
X125941607Y-122873183D01*
X126881978Y-121932812D01*
X126888356Y-121921132D01*
X127618408Y-121921132D01*
X127618539Y-121922965D01*
X127622790Y-121929580D01*
X128564934Y-122871724D01*
X128578471Y-122879116D01*
X128583740Y-122875430D01*
X128710927Y-122667879D01*
X128715408Y-122659085D01*
X128809984Y-122430758D01*
X128813033Y-122421373D01*
X128870728Y-122181060D01*
X128872271Y-122171313D01*
X128891662Y-121924930D01*
X133998338Y-121924930D01*
X134017729Y-122171313D01*
X134019272Y-122181060D01*
X134076967Y-122421373D01*
X134080016Y-122430758D01*
X134174592Y-122659085D01*
X134179073Y-122667879D01*
X134305340Y-122873928D01*
X134313401Y-122879190D01*
X134323607Y-122873183D01*
X135263978Y-121932812D01*
X135270356Y-121921132D01*
X136000408Y-121921132D01*
X136000539Y-121922965D01*
X136004790Y-121929580D01*
X136946934Y-122871724D01*
X136960471Y-122879116D01*
X136965740Y-122875430D01*
X137092927Y-122667879D01*
X137097408Y-122659085D01*
X137191984Y-122430758D01*
X137195033Y-122421373D01*
X137252728Y-122181060D01*
X137254271Y-122171313D01*
X137273662Y-121924930D01*
X139078338Y-121924930D01*
X139097729Y-122171313D01*
X139099272Y-122181060D01*
X139156967Y-122421373D01*
X139160016Y-122430758D01*
X139254592Y-122659085D01*
X139259073Y-122667879D01*
X139385340Y-122873928D01*
X139393401Y-122879190D01*
X139403607Y-122873183D01*
X140343978Y-121932812D01*
X140351592Y-121918868D01*
X140351461Y-121917035D01*
X140347210Y-121910420D01*
X139405066Y-120968276D01*
X139391529Y-120960884D01*
X139386260Y-120964570D01*
X139259073Y-121172121D01*
X139254592Y-121180915D01*
X139160016Y-121409242D01*
X139156967Y-121418627D01*
X139099272Y-121658940D01*
X139097729Y-121668687D01*
X139078338Y-121915070D01*
X139078338Y-121924930D01*
X137273662Y-121924930D01*
X137273662Y-121915070D01*
X137254271Y-121668687D01*
X137252728Y-121658940D01*
X137195033Y-121418627D01*
X137191984Y-121409242D01*
X137097408Y-121180915D01*
X137092927Y-121172121D01*
X136966660Y-120966072D01*
X136958599Y-120960810D01*
X136948393Y-120966817D01*
X136008022Y-121907188D01*
X136000408Y-121921132D01*
X135270356Y-121921132D01*
X135271592Y-121918868D01*
X135271461Y-121917035D01*
X135267210Y-121910420D01*
X134325066Y-120968276D01*
X134311529Y-120960884D01*
X134306260Y-120964570D01*
X134179073Y-121172121D01*
X134174592Y-121180915D01*
X134080016Y-121409242D01*
X134076967Y-121418627D01*
X134019272Y-121658940D01*
X134017729Y-121668687D01*
X133998338Y-121915070D01*
X133998338Y-121924930D01*
X128891662Y-121924930D01*
X128891662Y-121915070D01*
X128872271Y-121668687D01*
X128870728Y-121658940D01*
X128813033Y-121418627D01*
X128809984Y-121409242D01*
X128715408Y-121180915D01*
X128710927Y-121172121D01*
X128584660Y-120966072D01*
X128576599Y-120960810D01*
X128566393Y-120966817D01*
X127626022Y-121907188D01*
X127618408Y-121921132D01*
X126888356Y-121921132D01*
X126889592Y-121918868D01*
X126889461Y-121917035D01*
X126885210Y-121910420D01*
X125943066Y-120968276D01*
X125929529Y-120960884D01*
X125924260Y-120964570D01*
X125797073Y-121172121D01*
X125792592Y-121180915D01*
X125698016Y-121409242D01*
X125694967Y-121418627D01*
X125637272Y-121658940D01*
X125635729Y-121668687D01*
X125616338Y-121915070D01*
X125616338Y-121924930D01*
X123811662Y-121924930D01*
X123811662Y-121915070D01*
X123792271Y-121668687D01*
X123790728Y-121658940D01*
X123733033Y-121418627D01*
X123729984Y-121409242D01*
X123635408Y-121180915D01*
X123630927Y-121172121D01*
X123504660Y-120966072D01*
X123496599Y-120960810D01*
X123486393Y-120966817D01*
X122546022Y-121907188D01*
X122538408Y-121921132D01*
X121808356Y-121921132D01*
X121809592Y-121918868D01*
X121809461Y-121917035D01*
X121805210Y-121910420D01*
X120863066Y-120968276D01*
X120849529Y-120960884D01*
X120844260Y-120964570D01*
X120717073Y-121172121D01*
X120712592Y-121180915D01*
X120618016Y-121409242D01*
X120614967Y-121418627D01*
X120557272Y-121658940D01*
X120555729Y-121668687D01*
X120536338Y-121915070D01*
X120536338Y-121924930D01*
X115429662Y-121924930D01*
X115429662Y-121915070D01*
X115410271Y-121668687D01*
X115408728Y-121658940D01*
X115351033Y-121418627D01*
X115347984Y-121409242D01*
X115253408Y-121180915D01*
X115248927Y-121172121D01*
X115122660Y-120966072D01*
X115114599Y-120960810D01*
X115104393Y-120966817D01*
X114164022Y-121907188D01*
X114156408Y-121921132D01*
X113426356Y-121921132D01*
X113427592Y-121918868D01*
X113427461Y-121917035D01*
X113423210Y-121910420D01*
X112481066Y-120968276D01*
X112467529Y-120960884D01*
X112462260Y-120964570D01*
X112335073Y-121172121D01*
X112330592Y-121180915D01*
X112236016Y-121409242D01*
X112232967Y-121418627D01*
X112175272Y-121658940D01*
X112173729Y-121668687D01*
X112154338Y-121915070D01*
X112154338Y-121924930D01*
X110349662Y-121924930D01*
X110349662Y-121915070D01*
X110330271Y-121668687D01*
X110328728Y-121658940D01*
X110271033Y-121418627D01*
X110267984Y-121409242D01*
X110173408Y-121180915D01*
X110168927Y-121172121D01*
X110042660Y-120966072D01*
X110034599Y-120960810D01*
X110024393Y-120966817D01*
X109084022Y-121907188D01*
X109076408Y-121921132D01*
X108346356Y-121921132D01*
X108347592Y-121918868D01*
X108347461Y-121917035D01*
X108343210Y-121910420D01*
X107401066Y-120968276D01*
X107387529Y-120960884D01*
X107382260Y-120964570D01*
X107255073Y-121172121D01*
X107250592Y-121180915D01*
X107156016Y-121409242D01*
X107152967Y-121418627D01*
X107095272Y-121658940D01*
X107093729Y-121668687D01*
X107074338Y-121915070D01*
X107074338Y-121924930D01*
X101967662Y-121924930D01*
X101967662Y-121915070D01*
X101948271Y-121668687D01*
X101946728Y-121658940D01*
X101889033Y-121418627D01*
X101885984Y-121409242D01*
X101791408Y-121180915D01*
X101786927Y-121172121D01*
X101660660Y-120966072D01*
X101652599Y-120960810D01*
X101642393Y-120966817D01*
X100702022Y-121907188D01*
X100694408Y-121921132D01*
X99964356Y-121921132D01*
X99965592Y-121918868D01*
X99965461Y-121917035D01*
X99961210Y-121910420D01*
X99019066Y-120968276D01*
X99005529Y-120960884D01*
X99000260Y-120964570D01*
X98873073Y-121172121D01*
X98868592Y-121180915D01*
X98774016Y-121409242D01*
X98770967Y-121418627D01*
X98713272Y-121658940D01*
X98711729Y-121668687D01*
X98692338Y-121915070D01*
X98692338Y-121924930D01*
X96887662Y-121924930D01*
X96887662Y-121915070D01*
X96868271Y-121668687D01*
X96866728Y-121658940D01*
X96809033Y-121418627D01*
X96805984Y-121409242D01*
X96711408Y-121180915D01*
X96706927Y-121172121D01*
X96580660Y-120966072D01*
X96572599Y-120960810D01*
X96562393Y-120966817D01*
X95622022Y-121907188D01*
X95614408Y-121921132D01*
X94884356Y-121921132D01*
X94885592Y-121918868D01*
X94885461Y-121917035D01*
X94881210Y-121910420D01*
X93939066Y-120968276D01*
X93925529Y-120960884D01*
X93920260Y-120964570D01*
X93793073Y-121172121D01*
X93788592Y-121180915D01*
X93694016Y-121409242D01*
X93690967Y-121418627D01*
X93633272Y-121658940D01*
X93631729Y-121668687D01*
X93612338Y-121915070D01*
X93612338Y-121924930D01*
X76962000Y-121924930D01*
X76962000Y-120597401D01*
X94290810Y-120597401D01*
X94296817Y-120607607D01*
X95237188Y-121547978D01*
X95251132Y-121555592D01*
X95252965Y-121555461D01*
X95259580Y-121551210D01*
X96201724Y-120609066D01*
X96209116Y-120595529D01*
X96205430Y-120590260D01*
X95997879Y-120463073D01*
X95989085Y-120458592D01*
X95760758Y-120364016D01*
X95751373Y-120360967D01*
X95511060Y-120303272D01*
X95501313Y-120301729D01*
X95254930Y-120282338D01*
X95245070Y-120282338D01*
X94998687Y-120301729D01*
X94988940Y-120303272D01*
X94748627Y-120360967D01*
X94739242Y-120364016D01*
X94510915Y-120458592D01*
X94502121Y-120463073D01*
X94296072Y-120589340D01*
X94290810Y-120597401D01*
X76962000Y-120597401D01*
X76962000Y-118101695D01*
X78667251Y-118101695D01*
X78667548Y-118106848D01*
X78667548Y-118106851D01*
X78678482Y-118296478D01*
X78680110Y-118324715D01*
X78681247Y-118329761D01*
X78681248Y-118329767D01*
X78703994Y-118430695D01*
X78729222Y-118542639D01*
X78782584Y-118674054D01*
X78798400Y-118713004D01*
X78813266Y-118749616D01*
X78855631Y-118818749D01*
X78927291Y-118935688D01*
X78929987Y-118940088D01*
X79076250Y-119108938D01*
X79248126Y-119251632D01*
X79441000Y-119364338D01*
X79445825Y-119366180D01*
X79445826Y-119366181D01*
X79494925Y-119384930D01*
X79649692Y-119444030D01*
X79654760Y-119445061D01*
X79654763Y-119445062D01*
X79762017Y-119466883D01*
X79868597Y-119488567D01*
X79873772Y-119488757D01*
X79873774Y-119488757D01*
X80086673Y-119496564D01*
X80086677Y-119496564D01*
X80091837Y-119496753D01*
X80096957Y-119496097D01*
X80096959Y-119496097D01*
X80308288Y-119469025D01*
X80308289Y-119469025D01*
X80313416Y-119468368D01*
X80318366Y-119466883D01*
X80522429Y-119405661D01*
X80522434Y-119405659D01*
X80527384Y-119404174D01*
X80727994Y-119305896D01*
X80909860Y-119176173D01*
X81068096Y-119018489D01*
X81096041Y-118979600D01*
X81198453Y-118837077D01*
X81199776Y-118838028D01*
X81246645Y-118794857D01*
X81316580Y-118782625D01*
X81382026Y-118810144D01*
X81409875Y-118841994D01*
X81469987Y-118940088D01*
X81616250Y-119108938D01*
X81788126Y-119251632D01*
X81981000Y-119364338D01*
X81985825Y-119366180D01*
X81985826Y-119366181D01*
X82034925Y-119384930D01*
X82189692Y-119444030D01*
X82194760Y-119445061D01*
X82194763Y-119445062D01*
X82302017Y-119466883D01*
X82408597Y-119488567D01*
X82413772Y-119488757D01*
X82413774Y-119488757D01*
X82626673Y-119496564D01*
X82626677Y-119496564D01*
X82631837Y-119496753D01*
X82636957Y-119496097D01*
X82636959Y-119496097D01*
X82848288Y-119469025D01*
X82848289Y-119469025D01*
X82853416Y-119468368D01*
X82858366Y-119466883D01*
X83062429Y-119405661D01*
X83062434Y-119405659D01*
X83067384Y-119404174D01*
X83267994Y-119305896D01*
X83449860Y-119176173D01*
X83608096Y-119018489D01*
X83735455Y-118841250D01*
X83791447Y-118797603D01*
X83862151Y-118791157D01*
X83926870Y-118825681D01*
X84859089Y-119757901D01*
X84866189Y-119765704D01*
X84870174Y-119771983D01*
X84875952Y-119777409D01*
X84917931Y-119816830D01*
X84920773Y-119819585D01*
X84939735Y-119838547D01*
X84942862Y-119840973D01*
X84943503Y-119841538D01*
X84951661Y-119848506D01*
X84982542Y-119877504D01*
X84999319Y-119886728D01*
X85015832Y-119897575D01*
X85024698Y-119904452D01*
X85024703Y-119904455D01*
X85030966Y-119909313D01*
X85069847Y-119926138D01*
X85080495Y-119931354D01*
X85117622Y-119951765D01*
X85125307Y-119953738D01*
X85132671Y-119956654D01*
X85132075Y-119958160D01*
X85185148Y-119989752D01*
X85212330Y-120035601D01*
X85218450Y-120053946D01*
X85222301Y-120060170D01*
X85222302Y-120060171D01*
X85274326Y-120144241D01*
X85311522Y-120204348D01*
X85436697Y-120329305D01*
X85442927Y-120333145D01*
X85442928Y-120333146D01*
X85580090Y-120417694D01*
X85587262Y-120422115D01*
X85659991Y-120446238D01*
X85748611Y-120475632D01*
X85748613Y-120475632D01*
X85755139Y-120477797D01*
X85761975Y-120478497D01*
X85761978Y-120478498D01*
X85805031Y-120482909D01*
X85859600Y-120488500D01*
X86860400Y-120488500D01*
X86863646Y-120488163D01*
X86863650Y-120488163D01*
X86959308Y-120478238D01*
X86959312Y-120478237D01*
X86966166Y-120477526D01*
X86972702Y-120475345D01*
X86972704Y-120475345D01*
X87104806Y-120431272D01*
X87133946Y-120421550D01*
X87284348Y-120328478D01*
X87305852Y-120306937D01*
X87404134Y-120208483D01*
X87409305Y-120203303D01*
X87416076Y-120192318D01*
X87498275Y-120058968D01*
X87498276Y-120058966D01*
X87502115Y-120052738D01*
X87514884Y-120014240D01*
X87555314Y-119955880D01*
X87620878Y-119928643D01*
X87690760Y-119941176D01*
X87742772Y-119989501D01*
X87754000Y-120014028D01*
X87756587Y-120021783D01*
X87762761Y-120034962D01*
X87848063Y-120172807D01*
X87857099Y-120184208D01*
X87971829Y-120298739D01*
X87983240Y-120307751D01*
X88121243Y-120392816D01*
X88134424Y-120398963D01*
X88288710Y-120450138D01*
X88302086Y-120453005D01*
X88396438Y-120462672D01*
X88402854Y-120463000D01*
X88627885Y-120463000D01*
X88643124Y-120458525D01*
X88644329Y-120457135D01*
X88646000Y-120449452D01*
X88646000Y-120444884D01*
X89154000Y-120444884D01*
X89158475Y-120460123D01*
X89159865Y-120461328D01*
X89167548Y-120462999D01*
X89397095Y-120462999D01*
X89403614Y-120462662D01*
X89499206Y-120452743D01*
X89512600Y-120449851D01*
X89666784Y-120398412D01*
X89679962Y-120392239D01*
X89817807Y-120306937D01*
X89829208Y-120297901D01*
X89943739Y-120183171D01*
X89952751Y-120171760D01*
X90037816Y-120033757D01*
X90043963Y-120020576D01*
X90095138Y-119866290D01*
X90098005Y-119852914D01*
X90107672Y-119758562D01*
X90108000Y-119752146D01*
X90108000Y-119652115D01*
X90103525Y-119636876D01*
X90102135Y-119635671D01*
X90094452Y-119634000D01*
X89172115Y-119634000D01*
X89156876Y-119638475D01*
X89155671Y-119639865D01*
X89154000Y-119647548D01*
X89154000Y-120444884D01*
X88646000Y-120444884D01*
X88646000Y-119252000D01*
X88666002Y-119183879D01*
X88719658Y-119137386D01*
X88772000Y-119126000D01*
X90089884Y-119126000D01*
X90105123Y-119121525D01*
X90106328Y-119120135D01*
X90107999Y-119112452D01*
X90107999Y-119007905D01*
X90107662Y-119001386D01*
X90097743Y-118905794D01*
X90094851Y-118892400D01*
X90043412Y-118738216D01*
X90037239Y-118725038D01*
X89951937Y-118587193D01*
X89942901Y-118575792D01*
X89828172Y-118461262D01*
X89819238Y-118454206D01*
X89778177Y-118396288D01*
X89774947Y-118325365D01*
X89810574Y-118263954D01*
X89818407Y-118257154D01*
X89824348Y-118253478D01*
X89913200Y-118164471D01*
X94290884Y-118164471D01*
X94294570Y-118169740D01*
X94502121Y-118296927D01*
X94510915Y-118301408D01*
X94739242Y-118395984D01*
X94748627Y-118399033D01*
X94988940Y-118456728D01*
X94998687Y-118458271D01*
X95245070Y-118477662D01*
X95254930Y-118477662D01*
X95501313Y-118458271D01*
X95511060Y-118456728D01*
X95751373Y-118399033D01*
X95760758Y-118395984D01*
X95989085Y-118301408D01*
X95997879Y-118296927D01*
X96203928Y-118170660D01*
X96209190Y-118162599D01*
X96203183Y-118152393D01*
X95262812Y-117212022D01*
X95248868Y-117204408D01*
X95247035Y-117204539D01*
X95240420Y-117208790D01*
X94298276Y-118150934D01*
X94290884Y-118164471D01*
X89913200Y-118164471D01*
X89949305Y-118128303D01*
X89962528Y-118106851D01*
X90038275Y-117983968D01*
X90038276Y-117983966D01*
X90042115Y-117977738D01*
X90075626Y-117876704D01*
X90095632Y-117816389D01*
X90095632Y-117816387D01*
X90097797Y-117809861D01*
X90098891Y-117799190D01*
X90108172Y-117708598D01*
X90108500Y-117705400D01*
X90108500Y-116954600D01*
X90105543Y-116926097D01*
X90098238Y-116855692D01*
X90098237Y-116855688D01*
X90097526Y-116848834D01*
X90096224Y-116844930D01*
X93612338Y-116844930D01*
X93631729Y-117091313D01*
X93633272Y-117101060D01*
X93690967Y-117341373D01*
X93694016Y-117350758D01*
X93788592Y-117579085D01*
X93793073Y-117587879D01*
X93919340Y-117793928D01*
X93927401Y-117799190D01*
X93937607Y-117793183D01*
X94877978Y-116852812D01*
X94884356Y-116841132D01*
X95614408Y-116841132D01*
X95614539Y-116842965D01*
X95618790Y-116849580D01*
X96560934Y-117791724D01*
X96574471Y-117799116D01*
X96579740Y-117795430D01*
X96706927Y-117587879D01*
X96711408Y-117579085D01*
X96805984Y-117350758D01*
X96809033Y-117341373D01*
X96866728Y-117101060D01*
X96868271Y-117091313D01*
X96887662Y-116844930D01*
X98692338Y-116844930D01*
X98711729Y-117091313D01*
X98713272Y-117101060D01*
X98770967Y-117341373D01*
X98774016Y-117350758D01*
X98868592Y-117579085D01*
X98873073Y-117587879D01*
X98999340Y-117793928D01*
X99007401Y-117799190D01*
X99017607Y-117793183D01*
X99957978Y-116852812D01*
X99965592Y-116838868D01*
X99965461Y-116837035D01*
X99961210Y-116830420D01*
X99019066Y-115888276D01*
X99005529Y-115880884D01*
X99000260Y-115884570D01*
X98873073Y-116092121D01*
X98868592Y-116100915D01*
X98774016Y-116329242D01*
X98770967Y-116338627D01*
X98713272Y-116578940D01*
X98711729Y-116588687D01*
X98692338Y-116835070D01*
X98692338Y-116844930D01*
X96887662Y-116844930D01*
X96887662Y-116835070D01*
X96868271Y-116588687D01*
X96866728Y-116578940D01*
X96809033Y-116338627D01*
X96805984Y-116329242D01*
X96711408Y-116100915D01*
X96706927Y-116092121D01*
X96580660Y-115886072D01*
X96572599Y-115880810D01*
X96562393Y-115886817D01*
X95622022Y-116827188D01*
X95614408Y-116841132D01*
X94884356Y-116841132D01*
X94885592Y-116838868D01*
X94885461Y-116837035D01*
X94881210Y-116830420D01*
X93939066Y-115888276D01*
X93925529Y-115880884D01*
X93920260Y-115884570D01*
X93793073Y-116092121D01*
X93788592Y-116100915D01*
X93694016Y-116329242D01*
X93690967Y-116338627D01*
X93633272Y-116578940D01*
X93631729Y-116588687D01*
X93612338Y-116835070D01*
X93612338Y-116844930D01*
X90096224Y-116844930D01*
X90094957Y-116841132D01*
X90046068Y-116694597D01*
X90041550Y-116681054D01*
X89948478Y-116530652D01*
X89823303Y-116405695D01*
X89811947Y-116398695D01*
X89678968Y-116316725D01*
X89678966Y-116316724D01*
X89672738Y-116312885D01*
X89575329Y-116280576D01*
X89511389Y-116259368D01*
X89511387Y-116259368D01*
X89504861Y-116257203D01*
X89498025Y-116256503D01*
X89498022Y-116256502D01*
X89453504Y-116251941D01*
X89400400Y-116246500D01*
X88399600Y-116246500D01*
X88396354Y-116246837D01*
X88396350Y-116246837D01*
X88300692Y-116256762D01*
X88300688Y-116256763D01*
X88293834Y-116257474D01*
X88287298Y-116259655D01*
X88287296Y-116259655D01*
X88221034Y-116281762D01*
X88126054Y-116313450D01*
X87975652Y-116406522D01*
X87850695Y-116531697D01*
X87846855Y-116537927D01*
X87846854Y-116537928D01*
X87762945Y-116674054D01*
X87757885Y-116682262D01*
X87755581Y-116689209D01*
X87752487Y-116695844D01*
X87749814Y-116694597D01*
X87717011Y-116741935D01*
X87651444Y-116769165D01*
X87637859Y-116769900D01*
X87610638Y-116769900D01*
X87542517Y-116749898D01*
X87503236Y-116705011D01*
X87501550Y-116706054D01*
X87412332Y-116561880D01*
X87408478Y-116555652D01*
X87283303Y-116430695D01*
X87258688Y-116415522D01*
X87138968Y-116341725D01*
X87138966Y-116341724D01*
X87132738Y-116337885D01*
X87037964Y-116306450D01*
X86971389Y-116284368D01*
X86971387Y-116284368D01*
X86964861Y-116282203D01*
X86958025Y-116281503D01*
X86958022Y-116281502D01*
X86914969Y-116277091D01*
X86860400Y-116271500D01*
X85859600Y-116271500D01*
X85856354Y-116271837D01*
X85856350Y-116271837D01*
X85760692Y-116281762D01*
X85760688Y-116281763D01*
X85753834Y-116282474D01*
X85747298Y-116284655D01*
X85747296Y-116284655D01*
X85635705Y-116321885D01*
X85586054Y-116338450D01*
X85435652Y-116431522D01*
X85310695Y-116556697D01*
X85306855Y-116562927D01*
X85306854Y-116562928D01*
X85223464Y-116698212D01*
X85217885Y-116707262D01*
X85199185Y-116763641D01*
X85169445Y-116853306D01*
X85162203Y-116875139D01*
X85161503Y-116881975D01*
X85161502Y-116881978D01*
X85157091Y-116925031D01*
X85151500Y-116979600D01*
X85151500Y-117780400D01*
X85151837Y-117783646D01*
X85151837Y-117783650D01*
X85161356Y-117875389D01*
X85162474Y-117886166D01*
X85164655Y-117892702D01*
X85164655Y-117892704D01*
X85218450Y-118053946D01*
X85215289Y-118055001D01*
X85223939Y-118110453D01*
X85195219Y-118175382D01*
X85135956Y-118214476D01*
X85064965Y-118215325D01*
X85009921Y-118183108D01*
X84583917Y-117757104D01*
X84576809Y-117749294D01*
X84572826Y-117743017D01*
X84525069Y-117698170D01*
X84522227Y-117695415D01*
X84503265Y-117676453D01*
X84500138Y-117674027D01*
X84499497Y-117673462D01*
X84491337Y-117666493D01*
X84466239Y-117642925D01*
X84460458Y-117637496D01*
X84443681Y-117628272D01*
X84427168Y-117617425D01*
X84418302Y-117610548D01*
X84418297Y-117610545D01*
X84412034Y-117605687D01*
X84373150Y-117588861D01*
X84362505Y-117583646D01*
X84325378Y-117563235D01*
X84306838Y-117558475D01*
X84288141Y-117552074D01*
X84270565Y-117544468D01*
X84228722Y-117537841D01*
X84217103Y-117535435D01*
X84176074Y-117524900D01*
X84156936Y-117524900D01*
X84137225Y-117523349D01*
X84118316Y-117520354D01*
X84105199Y-117521594D01*
X84076139Y-117524341D01*
X84064281Y-117524900D01*
X83861943Y-117524900D01*
X83793822Y-117504898D01*
X83756151Y-117467340D01*
X83752490Y-117461680D01*
X83676818Y-117344710D01*
X83652822Y-117307617D01*
X83652820Y-117307614D01*
X83650014Y-117303277D01*
X83499670Y-117138051D01*
X83495619Y-117134852D01*
X83495615Y-117134848D01*
X83328414Y-117002800D01*
X83328410Y-117002798D01*
X83324359Y-116999598D01*
X83282569Y-116976529D01*
X83232598Y-116926097D01*
X83217826Y-116856654D01*
X83242942Y-116790248D01*
X83270294Y-116763641D01*
X83445328Y-116638792D01*
X83453200Y-116632139D01*
X83604052Y-116481812D01*
X83610730Y-116473965D01*
X83735003Y-116301020D01*
X83740313Y-116292183D01*
X83834670Y-116101267D01*
X83838469Y-116091672D01*
X83900377Y-115887910D01*
X83902555Y-115877837D01*
X83903986Y-115866962D01*
X83901775Y-115852778D01*
X83888617Y-115849000D01*
X78713225Y-115849000D01*
X78699694Y-115852973D01*
X78698257Y-115862966D01*
X78728565Y-115997446D01*
X78731645Y-116007275D01*
X78811770Y-116204603D01*
X78816413Y-116213794D01*
X78927694Y-116395388D01*
X78933777Y-116403699D01*
X79073213Y-116564667D01*
X79080580Y-116571883D01*
X79244434Y-116707916D01*
X79252881Y-116713831D01*
X79321969Y-116754203D01*
X79370693Y-116805842D01*
X79383764Y-116875625D01*
X79357033Y-116941396D01*
X79316584Y-116974752D01*
X79303607Y-116981507D01*
X79299474Y-116984610D01*
X79299471Y-116984612D01*
X79144377Y-117101060D01*
X79124965Y-117115635D01*
X79121393Y-117119373D01*
X79008302Y-117237716D01*
X78970629Y-117277138D01*
X78967720Y-117281403D01*
X78967714Y-117281411D01*
X78920409Y-117350758D01*
X78844743Y-117461680D01*
X78810508Y-117535434D01*
X78764905Y-117633678D01*
X78750688Y-117664305D01*
X78690989Y-117879570D01*
X78667251Y-118101695D01*
X76962000Y-118101695D01*
X76962000Y-115517401D01*
X94290810Y-115517401D01*
X94296817Y-115527607D01*
X95237188Y-116467978D01*
X95251132Y-116475592D01*
X95252965Y-116475461D01*
X95259580Y-116471210D01*
X96201724Y-115529066D01*
X96208094Y-115517401D01*
X99370810Y-115517401D01*
X99376817Y-115527607D01*
X100317188Y-116467978D01*
X100331132Y-116475592D01*
X100332965Y-116475461D01*
X100339580Y-116471210D01*
X101281724Y-115529066D01*
X101289116Y-115515529D01*
X101285430Y-115510260D01*
X101077879Y-115383073D01*
X101069085Y-115378592D01*
X100840758Y-115284016D01*
X100831373Y-115280967D01*
X100591060Y-115223272D01*
X100581313Y-115221729D01*
X100334930Y-115202338D01*
X100325070Y-115202338D01*
X100078687Y-115221729D01*
X100068940Y-115223272D01*
X99828627Y-115280967D01*
X99819242Y-115284016D01*
X99590915Y-115378592D01*
X99582121Y-115383073D01*
X99376072Y-115509340D01*
X99370810Y-115517401D01*
X96208094Y-115517401D01*
X96209116Y-115515529D01*
X96205430Y-115510260D01*
X95997879Y-115383073D01*
X95989085Y-115378592D01*
X95760758Y-115284016D01*
X95751373Y-115280967D01*
X95511060Y-115223272D01*
X95501313Y-115221729D01*
X95254930Y-115202338D01*
X95245070Y-115202338D01*
X94998687Y-115221729D01*
X94988940Y-115223272D01*
X94748627Y-115280967D01*
X94739242Y-115284016D01*
X94510915Y-115378592D01*
X94502121Y-115383073D01*
X94296072Y-115509340D01*
X94290810Y-115517401D01*
X76962000Y-115517401D01*
X76962000Y-113021695D01*
X78667251Y-113021695D01*
X78667548Y-113026848D01*
X78667548Y-113026851D01*
X78671762Y-113099933D01*
X78680110Y-113244715D01*
X78681247Y-113249761D01*
X78681248Y-113249767D01*
X78705304Y-113356508D01*
X78729222Y-113462639D01*
X78813266Y-113669616D01*
X78929987Y-113860088D01*
X79076250Y-114028938D01*
X79248126Y-114171632D01*
X79321955Y-114214774D01*
X79370679Y-114266412D01*
X79383750Y-114336195D01*
X79357019Y-114401967D01*
X79316562Y-114435327D01*
X79308457Y-114439546D01*
X79299738Y-114445036D01*
X79129433Y-114572905D01*
X79121726Y-114579748D01*
X78974590Y-114733717D01*
X78968104Y-114741727D01*
X78848098Y-114917649D01*
X78843000Y-114926623D01*
X78753338Y-115119783D01*
X78749775Y-115129470D01*
X78694389Y-115329183D01*
X78695912Y-115337607D01*
X78708292Y-115341000D01*
X83888344Y-115341000D01*
X83901875Y-115337027D01*
X83903180Y-115327947D01*
X83861214Y-115160875D01*
X83857894Y-115151123D01*
X83829727Y-115086342D01*
X83820908Y-115015895D01*
X83851574Y-114951863D01*
X83911991Y-114914576D01*
X83945277Y-114910100D01*
X101295099Y-114910100D01*
X101363220Y-114930102D01*
X101384194Y-114947005D01*
X102577769Y-116140581D01*
X102611795Y-116202893D01*
X102606730Y-116273709D01*
X102564183Y-116330544D01*
X102554979Y-116336819D01*
X102453652Y-116399522D01*
X102328695Y-116524697D01*
X102324855Y-116530927D01*
X102324854Y-116530928D01*
X102258366Y-116638792D01*
X102235885Y-116675262D01*
X102209702Y-116754203D01*
X102205222Y-116767709D01*
X102164792Y-116826069D01*
X102099228Y-116853306D01*
X102029346Y-116840773D01*
X101977334Y-116792448D01*
X101960017Y-116737928D01*
X101948271Y-116588687D01*
X101946728Y-116578940D01*
X101889033Y-116338627D01*
X101885984Y-116329242D01*
X101791408Y-116100915D01*
X101786927Y-116092121D01*
X101660660Y-115886072D01*
X101652599Y-115880810D01*
X101642393Y-115886817D01*
X100702022Y-116827188D01*
X100694408Y-116841132D01*
X100694539Y-116842965D01*
X100698790Y-116849580D01*
X101640934Y-117791724D01*
X101654471Y-117799116D01*
X101659740Y-117795430D01*
X101786927Y-117587879D01*
X101791408Y-117579085D01*
X101885984Y-117350758D01*
X101889033Y-117341373D01*
X101920981Y-117208302D01*
X101956333Y-117146733D01*
X102019360Y-117114050D01*
X102090051Y-117120631D01*
X102145962Y-117164385D01*
X102169500Y-117237716D01*
X102169500Y-117748400D01*
X102169837Y-117751646D01*
X102169837Y-117751650D01*
X102179227Y-117842146D01*
X102180474Y-117854166D01*
X102182653Y-117860696D01*
X102182655Y-117860704D01*
X102187993Y-117876704D01*
X102236450Y-118021946D01*
X102329522Y-118172348D01*
X102405603Y-118248296D01*
X102416109Y-118258784D01*
X102450188Y-118321066D01*
X102445185Y-118391886D01*
X102416264Y-118436975D01*
X102391185Y-118462098D01*
X102328695Y-118524697D01*
X102324855Y-118530927D01*
X102324854Y-118530928D01*
X102314992Y-118546928D01*
X102235885Y-118675262D01*
X102233129Y-118683572D01*
X102232567Y-118684383D01*
X102230487Y-118688844D01*
X102229723Y-118688488D01*
X102192696Y-118741930D01*
X102127130Y-118769165D01*
X102113537Y-118769900D01*
X99281328Y-118769900D01*
X99213207Y-118749898D01*
X99164920Y-118692121D01*
X99163079Y-118687677D01*
X99160584Y-118681653D01*
X99034464Y-118475844D01*
X98877701Y-118292299D01*
X98728034Y-118164471D01*
X99370884Y-118164471D01*
X99374570Y-118169740D01*
X99582121Y-118296927D01*
X99590915Y-118301408D01*
X99819242Y-118395984D01*
X99828627Y-118399033D01*
X100068940Y-118456728D01*
X100078687Y-118458271D01*
X100325070Y-118477662D01*
X100334930Y-118477662D01*
X100581313Y-118458271D01*
X100591060Y-118456728D01*
X100831373Y-118399033D01*
X100840758Y-118395984D01*
X101069085Y-118301408D01*
X101077879Y-118296927D01*
X101283928Y-118170660D01*
X101289190Y-118162599D01*
X101283183Y-118152393D01*
X100342812Y-117212022D01*
X100328868Y-117204408D01*
X100327035Y-117204539D01*
X100320420Y-117208790D01*
X99378276Y-118150934D01*
X99370884Y-118164471D01*
X98728034Y-118164471D01*
X98694156Y-118135536D01*
X98488347Y-118009416D01*
X98483777Y-118007523D01*
X98483773Y-118007521D01*
X98269916Y-117918939D01*
X98269914Y-117918938D01*
X98265343Y-117917045D01*
X98136724Y-117886166D01*
X98035447Y-117861851D01*
X98035441Y-117861850D01*
X98030634Y-117860696D01*
X97790000Y-117841758D01*
X97549366Y-117860696D01*
X97544559Y-117861850D01*
X97544553Y-117861851D01*
X97443276Y-117886166D01*
X97314657Y-117917045D01*
X97310086Y-117918938D01*
X97310084Y-117918939D01*
X97096227Y-118007521D01*
X97096223Y-118007523D01*
X97091653Y-118009416D01*
X96885844Y-118135536D01*
X96702299Y-118292299D01*
X96545536Y-118475844D01*
X96419416Y-118681653D01*
X96417523Y-118686223D01*
X96417521Y-118686227D01*
X96353001Y-118841994D01*
X96327045Y-118904657D01*
X96325890Y-118909469D01*
X96271851Y-119134553D01*
X96271850Y-119134559D01*
X96270696Y-119139366D01*
X96251758Y-119380000D01*
X96270696Y-119620634D01*
X96271850Y-119625441D01*
X96271851Y-119625447D01*
X96305756Y-119766669D01*
X96327045Y-119855343D01*
X96328938Y-119859914D01*
X96328939Y-119859916D01*
X96409309Y-120053946D01*
X96419416Y-120078347D01*
X96545536Y-120284156D01*
X96702299Y-120467701D01*
X96885844Y-120624464D01*
X97091653Y-120750584D01*
X97096223Y-120752477D01*
X97096227Y-120752479D01*
X97310084Y-120841061D01*
X97314657Y-120842955D01*
X97397039Y-120862733D01*
X97544553Y-120898149D01*
X97544559Y-120898150D01*
X97549366Y-120899304D01*
X97790000Y-120918242D01*
X98030634Y-120899304D01*
X98035441Y-120898150D01*
X98035447Y-120898149D01*
X98182961Y-120862733D01*
X98265343Y-120842955D01*
X98269916Y-120841061D01*
X98483773Y-120752479D01*
X98483777Y-120752477D01*
X98488347Y-120750584D01*
X98694156Y-120624464D01*
X98725843Y-120597401D01*
X99370810Y-120597401D01*
X99376817Y-120607607D01*
X100317188Y-121547978D01*
X100331132Y-121555592D01*
X100332965Y-121555461D01*
X100339580Y-121551210D01*
X101281724Y-120609066D01*
X101288094Y-120597401D01*
X107752810Y-120597401D01*
X107758817Y-120607607D01*
X108699188Y-121547978D01*
X108713132Y-121555592D01*
X108714965Y-121555461D01*
X108721580Y-121551210D01*
X109663724Y-120609066D01*
X109671116Y-120595529D01*
X109667430Y-120590260D01*
X109459879Y-120463073D01*
X109451085Y-120458592D01*
X109222758Y-120364016D01*
X109213373Y-120360967D01*
X108973060Y-120303272D01*
X108963313Y-120301729D01*
X108716930Y-120282338D01*
X108707070Y-120282338D01*
X108460687Y-120301729D01*
X108450940Y-120303272D01*
X108210627Y-120360967D01*
X108201242Y-120364016D01*
X107972915Y-120458592D01*
X107964121Y-120463073D01*
X107758072Y-120589340D01*
X107752810Y-120597401D01*
X101288094Y-120597401D01*
X101289116Y-120595529D01*
X101285430Y-120590260D01*
X101077879Y-120463073D01*
X101069085Y-120458592D01*
X100840758Y-120364016D01*
X100831373Y-120360967D01*
X100591060Y-120303272D01*
X100581313Y-120301729D01*
X100334930Y-120282338D01*
X100325070Y-120282338D01*
X100078687Y-120301729D01*
X100068940Y-120303272D01*
X99828627Y-120360967D01*
X99819242Y-120364016D01*
X99590915Y-120458592D01*
X99582121Y-120463073D01*
X99376072Y-120589340D01*
X99370810Y-120597401D01*
X98725843Y-120597401D01*
X98877701Y-120467701D01*
X99034464Y-120284156D01*
X99160584Y-120078347D01*
X99164920Y-120067879D01*
X99209470Y-120012599D01*
X99281328Y-119990100D01*
X102146541Y-119990100D01*
X102214662Y-120010102D01*
X102253684Y-120049796D01*
X102329522Y-120172348D01*
X102454697Y-120297305D01*
X102460927Y-120301145D01*
X102460928Y-120301146D01*
X102598090Y-120385694D01*
X102605262Y-120390115D01*
X102653501Y-120406115D01*
X102766611Y-120443632D01*
X102766613Y-120443632D01*
X102773139Y-120445797D01*
X102779975Y-120446497D01*
X102779978Y-120446498D01*
X102815507Y-120450138D01*
X102877600Y-120456500D01*
X103878400Y-120456500D01*
X103881646Y-120456163D01*
X103881650Y-120456163D01*
X103977308Y-120446238D01*
X103977312Y-120446237D01*
X103984166Y-120445526D01*
X103990702Y-120443345D01*
X103990704Y-120443345D01*
X104142157Y-120392816D01*
X104151946Y-120389550D01*
X104302348Y-120296478D01*
X104410290Y-120188348D01*
X104425295Y-120173317D01*
X104487578Y-120139238D01*
X104558398Y-120144241D01*
X104612599Y-120183624D01*
X104615522Y-120188348D01*
X104740697Y-120313305D01*
X104746927Y-120317145D01*
X104746928Y-120317146D01*
X104884090Y-120401694D01*
X104891262Y-120406115D01*
X104939501Y-120422115D01*
X105052611Y-120459632D01*
X105052613Y-120459632D01*
X105059139Y-120461797D01*
X105065975Y-120462497D01*
X105065978Y-120462498D01*
X105109031Y-120466909D01*
X105163600Y-120472500D01*
X106164400Y-120472500D01*
X106167646Y-120472163D01*
X106167650Y-120472163D01*
X106263308Y-120462238D01*
X106263312Y-120462237D01*
X106270166Y-120461526D01*
X106276702Y-120459345D01*
X106276704Y-120459345D01*
X106408806Y-120415272D01*
X106437946Y-120405550D01*
X106588348Y-120312478D01*
X106713305Y-120187303D01*
X106722524Y-120172348D01*
X106797950Y-120049984D01*
X106850722Y-120002491D01*
X106905210Y-119990100D01*
X109760672Y-119990100D01*
X109828793Y-120010102D01*
X109877080Y-120067879D01*
X109881416Y-120078347D01*
X110007536Y-120284156D01*
X110164299Y-120467701D01*
X110347844Y-120624464D01*
X110553653Y-120750584D01*
X110558223Y-120752477D01*
X110558227Y-120752479D01*
X110772084Y-120841061D01*
X110776657Y-120842955D01*
X110859039Y-120862733D01*
X111006553Y-120898149D01*
X111006559Y-120898150D01*
X111011366Y-120899304D01*
X111252000Y-120918242D01*
X111492634Y-120899304D01*
X111497441Y-120898150D01*
X111497447Y-120898149D01*
X111644961Y-120862733D01*
X111727343Y-120842955D01*
X111731916Y-120841061D01*
X111945773Y-120752479D01*
X111945777Y-120752477D01*
X111950347Y-120750584D01*
X112156156Y-120624464D01*
X112187843Y-120597401D01*
X112832810Y-120597401D01*
X112838817Y-120607607D01*
X113779188Y-121547978D01*
X113793132Y-121555592D01*
X113794965Y-121555461D01*
X113801580Y-121551210D01*
X114743724Y-120609066D01*
X114750094Y-120597401D01*
X121214810Y-120597401D01*
X121220817Y-120607607D01*
X122161188Y-121547978D01*
X122175132Y-121555592D01*
X122176965Y-121555461D01*
X122183580Y-121551210D01*
X123125724Y-120609066D01*
X123133116Y-120595529D01*
X123129430Y-120590260D01*
X122921879Y-120463073D01*
X122913085Y-120458592D01*
X122684758Y-120364016D01*
X122675373Y-120360967D01*
X122435060Y-120303272D01*
X122425313Y-120301729D01*
X122178930Y-120282338D01*
X122169070Y-120282338D01*
X121922687Y-120301729D01*
X121912940Y-120303272D01*
X121672627Y-120360967D01*
X121663242Y-120364016D01*
X121434915Y-120458592D01*
X121426121Y-120463073D01*
X121220072Y-120589340D01*
X121214810Y-120597401D01*
X114750094Y-120597401D01*
X114751116Y-120595529D01*
X114747430Y-120590260D01*
X114539879Y-120463073D01*
X114531085Y-120458592D01*
X114302758Y-120364016D01*
X114293373Y-120360967D01*
X114053060Y-120303272D01*
X114043313Y-120301729D01*
X113796930Y-120282338D01*
X113787070Y-120282338D01*
X113540687Y-120301729D01*
X113530940Y-120303272D01*
X113290627Y-120360967D01*
X113281242Y-120364016D01*
X113052915Y-120458592D01*
X113044121Y-120463073D01*
X112838072Y-120589340D01*
X112832810Y-120597401D01*
X112187843Y-120597401D01*
X112339701Y-120467701D01*
X112496464Y-120284156D01*
X112622584Y-120078347D01*
X112632692Y-120053946D01*
X112713061Y-119859916D01*
X112713062Y-119859914D01*
X112714955Y-119855343D01*
X112736244Y-119766669D01*
X112770149Y-119625447D01*
X112770150Y-119625441D01*
X112771304Y-119620634D01*
X112790242Y-119380000D01*
X112771304Y-119139366D01*
X112770150Y-119134559D01*
X112770149Y-119134553D01*
X112716110Y-118909469D01*
X112714955Y-118904657D01*
X112688999Y-118841994D01*
X112624479Y-118686227D01*
X112624477Y-118686223D01*
X112622584Y-118681653D01*
X112496464Y-118475844D01*
X112339701Y-118292299D01*
X112190034Y-118164471D01*
X112832884Y-118164471D01*
X112836570Y-118169740D01*
X113044121Y-118296927D01*
X113052915Y-118301408D01*
X113281242Y-118395984D01*
X113290627Y-118399033D01*
X113530940Y-118456728D01*
X113540687Y-118458271D01*
X113787070Y-118477662D01*
X113796930Y-118477662D01*
X114043313Y-118458271D01*
X114053060Y-118456728D01*
X114293373Y-118399033D01*
X114302758Y-118395984D01*
X114531085Y-118301408D01*
X114539879Y-118296927D01*
X114745928Y-118170660D01*
X114749968Y-118164471D01*
X121214884Y-118164471D01*
X121218570Y-118169740D01*
X121426121Y-118296927D01*
X121434915Y-118301408D01*
X121663242Y-118395984D01*
X121672627Y-118399033D01*
X121912940Y-118456728D01*
X121922687Y-118458271D01*
X122169070Y-118477662D01*
X122178930Y-118477662D01*
X122425313Y-118458271D01*
X122435060Y-118456728D01*
X122675373Y-118399033D01*
X122684758Y-118395984D01*
X122913085Y-118301408D01*
X122921879Y-118296927D01*
X123127928Y-118170660D01*
X123133190Y-118162599D01*
X123127183Y-118152393D01*
X122186812Y-117212022D01*
X122172868Y-117204408D01*
X122171035Y-117204539D01*
X122164420Y-117208790D01*
X121222276Y-118150934D01*
X121214884Y-118164471D01*
X114749968Y-118164471D01*
X114751190Y-118162599D01*
X114745183Y-118152393D01*
X113804812Y-117212022D01*
X113790868Y-117204408D01*
X113789035Y-117204539D01*
X113782420Y-117208790D01*
X112840276Y-118150934D01*
X112832884Y-118164471D01*
X112190034Y-118164471D01*
X112156156Y-118135536D01*
X111950347Y-118009416D01*
X111945777Y-118007523D01*
X111945773Y-118007521D01*
X111731916Y-117918939D01*
X111731914Y-117918938D01*
X111727343Y-117917045D01*
X111598724Y-117886166D01*
X111497447Y-117861851D01*
X111497441Y-117861850D01*
X111492634Y-117860696D01*
X111252000Y-117841758D01*
X111011366Y-117860696D01*
X111006559Y-117861850D01*
X111006553Y-117861851D01*
X110905276Y-117886166D01*
X110776657Y-117917045D01*
X110772086Y-117918938D01*
X110772084Y-117918939D01*
X110558227Y-118007521D01*
X110558223Y-118007523D01*
X110553653Y-118009416D01*
X110347844Y-118135536D01*
X110164299Y-118292299D01*
X110007536Y-118475844D01*
X109881416Y-118681653D01*
X109878921Y-118687677D01*
X109877080Y-118692121D01*
X109832530Y-118747401D01*
X109760672Y-118769900D01*
X106922133Y-118769900D01*
X106854012Y-118749898D01*
X106808032Y-118697352D01*
X106807868Y-118697002D01*
X106805550Y-118690054D01*
X106712478Y-118539652D01*
X106625891Y-118453216D01*
X106591812Y-118390934D01*
X106596815Y-118320114D01*
X106625736Y-118275025D01*
X106708134Y-118192483D01*
X106713305Y-118187303D01*
X106721926Y-118173317D01*
X106727379Y-118164471D01*
X107752884Y-118164471D01*
X107756570Y-118169740D01*
X107964121Y-118296927D01*
X107972915Y-118301408D01*
X108201242Y-118395984D01*
X108210627Y-118399033D01*
X108450940Y-118456728D01*
X108460687Y-118458271D01*
X108707070Y-118477662D01*
X108716930Y-118477662D01*
X108963313Y-118458271D01*
X108973060Y-118456728D01*
X109213373Y-118399033D01*
X109222758Y-118395984D01*
X109451085Y-118301408D01*
X109459879Y-118296927D01*
X109665928Y-118170660D01*
X109671190Y-118162599D01*
X109665183Y-118152393D01*
X108724812Y-117212022D01*
X108710868Y-117204408D01*
X108709035Y-117204539D01*
X108702420Y-117208790D01*
X107760276Y-118150934D01*
X107752884Y-118164471D01*
X106727379Y-118164471D01*
X106802275Y-118042968D01*
X106802276Y-118042966D01*
X106806115Y-118036738D01*
X106861797Y-117868861D01*
X106862516Y-117861851D01*
X106869321Y-117795430D01*
X106872500Y-117764400D01*
X106872500Y-117237716D01*
X106892502Y-117169595D01*
X106946158Y-117123102D01*
X107016432Y-117112998D01*
X107081012Y-117142492D01*
X107121019Y-117208302D01*
X107152967Y-117341373D01*
X107156016Y-117350758D01*
X107250592Y-117579085D01*
X107255073Y-117587879D01*
X107381340Y-117793928D01*
X107389401Y-117799190D01*
X107399607Y-117793183D01*
X108339978Y-116852812D01*
X108346356Y-116841132D01*
X109076408Y-116841132D01*
X109076539Y-116842965D01*
X109080790Y-116849580D01*
X110022934Y-117791724D01*
X110036471Y-117799116D01*
X110041740Y-117795430D01*
X110168927Y-117587879D01*
X110173408Y-117579085D01*
X110267984Y-117350758D01*
X110271033Y-117341373D01*
X110328728Y-117101060D01*
X110330271Y-117091313D01*
X110349662Y-116844930D01*
X112154338Y-116844930D01*
X112173729Y-117091313D01*
X112175272Y-117101060D01*
X112232967Y-117341373D01*
X112236016Y-117350758D01*
X112330592Y-117579085D01*
X112335073Y-117587879D01*
X112461340Y-117793928D01*
X112469401Y-117799190D01*
X112479607Y-117793183D01*
X113419978Y-116852812D01*
X113426356Y-116841132D01*
X114156408Y-116841132D01*
X114156539Y-116842965D01*
X114160790Y-116849580D01*
X115102934Y-117791724D01*
X115116471Y-117799116D01*
X115121740Y-117795430D01*
X115248927Y-117587879D01*
X115253408Y-117579085D01*
X115347984Y-117350758D01*
X115351033Y-117341373D01*
X115408728Y-117101060D01*
X115410271Y-117091313D01*
X115429662Y-116844930D01*
X120536338Y-116844930D01*
X120555729Y-117091313D01*
X120557272Y-117101060D01*
X120614967Y-117341373D01*
X120618016Y-117350758D01*
X120712592Y-117579085D01*
X120717073Y-117587879D01*
X120843340Y-117793928D01*
X120851401Y-117799190D01*
X120861607Y-117793183D01*
X121801978Y-116852812D01*
X121808356Y-116841132D01*
X122538408Y-116841132D01*
X122538539Y-116842965D01*
X122542790Y-116849580D01*
X123484934Y-117791724D01*
X123498471Y-117799116D01*
X123503740Y-117795430D01*
X123630927Y-117587879D01*
X123635408Y-117579085D01*
X123729984Y-117350758D01*
X123733033Y-117341373D01*
X123790728Y-117101060D01*
X123792271Y-117091313D01*
X123811662Y-116844930D01*
X125616338Y-116844930D01*
X125635729Y-117091313D01*
X125637272Y-117101060D01*
X125694967Y-117341373D01*
X125698016Y-117350758D01*
X125792592Y-117579085D01*
X125797073Y-117587879D01*
X125923340Y-117793928D01*
X125931401Y-117799190D01*
X125941607Y-117793183D01*
X126881978Y-116852812D01*
X126889592Y-116838868D01*
X126889461Y-116837035D01*
X126885210Y-116830420D01*
X125943066Y-115888276D01*
X125929529Y-115880884D01*
X125924260Y-115884570D01*
X125797073Y-116092121D01*
X125792592Y-116100915D01*
X125698016Y-116329242D01*
X125694967Y-116338627D01*
X125637272Y-116578940D01*
X125635729Y-116588687D01*
X125616338Y-116835070D01*
X125616338Y-116844930D01*
X123811662Y-116844930D01*
X123811662Y-116835070D01*
X123792271Y-116588687D01*
X123790728Y-116578940D01*
X123733033Y-116338627D01*
X123729984Y-116329242D01*
X123635408Y-116100915D01*
X123630927Y-116092121D01*
X123504660Y-115886072D01*
X123496599Y-115880810D01*
X123486393Y-115886817D01*
X122546022Y-116827188D01*
X122538408Y-116841132D01*
X121808356Y-116841132D01*
X121809592Y-116838868D01*
X121809461Y-116837035D01*
X121805210Y-116830420D01*
X120863066Y-115888276D01*
X120849529Y-115880884D01*
X120844260Y-115884570D01*
X120717073Y-116092121D01*
X120712592Y-116100915D01*
X120618016Y-116329242D01*
X120614967Y-116338627D01*
X120557272Y-116578940D01*
X120555729Y-116588687D01*
X120536338Y-116835070D01*
X120536338Y-116844930D01*
X115429662Y-116844930D01*
X115429662Y-116835070D01*
X115410271Y-116588687D01*
X115408728Y-116578940D01*
X115351033Y-116338627D01*
X115347984Y-116329242D01*
X115253408Y-116100915D01*
X115248927Y-116092121D01*
X115122660Y-115886072D01*
X115114599Y-115880810D01*
X115104393Y-115886817D01*
X114164022Y-116827188D01*
X114156408Y-116841132D01*
X113426356Y-116841132D01*
X113427592Y-116838868D01*
X113427461Y-116837035D01*
X113423210Y-116830420D01*
X112481066Y-115888276D01*
X112467529Y-115880884D01*
X112462260Y-115884570D01*
X112335073Y-116092121D01*
X112330592Y-116100915D01*
X112236016Y-116329242D01*
X112232967Y-116338627D01*
X112175272Y-116578940D01*
X112173729Y-116588687D01*
X112154338Y-116835070D01*
X112154338Y-116844930D01*
X110349662Y-116844930D01*
X110349662Y-116835070D01*
X110330271Y-116588687D01*
X110328728Y-116578940D01*
X110271033Y-116338627D01*
X110267984Y-116329242D01*
X110173408Y-116100915D01*
X110168927Y-116092121D01*
X110042660Y-115886072D01*
X110034599Y-115880810D01*
X110024393Y-115886817D01*
X109084022Y-116827188D01*
X109076408Y-116841132D01*
X108346356Y-116841132D01*
X108347592Y-116838868D01*
X108347461Y-116837035D01*
X108343210Y-116830420D01*
X107401066Y-115888276D01*
X107387529Y-115880884D01*
X107382260Y-115884570D01*
X107255073Y-116092121D01*
X107250592Y-116100915D01*
X107156016Y-116329242D01*
X107152967Y-116338627D01*
X107095272Y-116578940D01*
X107093729Y-116588687D01*
X107080968Y-116750829D01*
X107055683Y-116817170D01*
X106998545Y-116859310D01*
X106927695Y-116863869D01*
X106865627Y-116829400D01*
X106835833Y-116780820D01*
X106807870Y-116697007D01*
X106807869Y-116697005D01*
X106805550Y-116690054D01*
X106712478Y-116539652D01*
X106587303Y-116414695D01*
X106574044Y-116406522D01*
X106442968Y-116325725D01*
X106442966Y-116325724D01*
X106436738Y-116321885D01*
X106363602Y-116297627D01*
X106360433Y-116296576D01*
X106302073Y-116256146D01*
X106274836Y-116190582D01*
X106274100Y-116176983D01*
X106274100Y-115899678D01*
X106274598Y-115889126D01*
X106276219Y-115881872D01*
X106274162Y-115816405D01*
X106274100Y-115812448D01*
X106274100Y-115785617D01*
X106273604Y-115781690D01*
X106273547Y-115780784D01*
X106272708Y-115770135D01*
X106271627Y-115735726D01*
X106271378Y-115727801D01*
X106266036Y-115709414D01*
X106262028Y-115690057D01*
X106260623Y-115678935D01*
X106260623Y-115678934D01*
X106259629Y-115671068D01*
X106252074Y-115651985D01*
X106244036Y-115631682D01*
X106240192Y-115620455D01*
X106230585Y-115587391D01*
X106230584Y-115587389D01*
X106228372Y-115579775D01*
X106218626Y-115563295D01*
X106209935Y-115545555D01*
X106202884Y-115527746D01*
X106195368Y-115517401D01*
X107752810Y-115517401D01*
X107758817Y-115527607D01*
X108699188Y-116467978D01*
X108713132Y-116475592D01*
X108714965Y-116475461D01*
X108721580Y-116471210D01*
X109663724Y-115529066D01*
X109670094Y-115517401D01*
X112832810Y-115517401D01*
X112838817Y-115527607D01*
X113779188Y-116467978D01*
X113793132Y-116475592D01*
X113794965Y-116475461D01*
X113801580Y-116471210D01*
X114743724Y-115529066D01*
X114750094Y-115517401D01*
X121214810Y-115517401D01*
X121220817Y-115527607D01*
X122161188Y-116467978D01*
X122175132Y-116475592D01*
X122176965Y-116475461D01*
X122183580Y-116471210D01*
X123125724Y-115529066D01*
X123132094Y-115517401D01*
X126294810Y-115517401D01*
X126300817Y-115527607D01*
X127241188Y-116467978D01*
X127255132Y-116475592D01*
X127256965Y-116475461D01*
X127263580Y-116471210D01*
X128205724Y-115529066D01*
X128213116Y-115515529D01*
X128209430Y-115510260D01*
X128001879Y-115383073D01*
X127993085Y-115378592D01*
X127764758Y-115284016D01*
X127755373Y-115280967D01*
X127515060Y-115223272D01*
X127505313Y-115221729D01*
X127258930Y-115202338D01*
X127249070Y-115202338D01*
X127002687Y-115221729D01*
X126992940Y-115223272D01*
X126752627Y-115280967D01*
X126743242Y-115284016D01*
X126514915Y-115378592D01*
X126506121Y-115383073D01*
X126300072Y-115509340D01*
X126294810Y-115517401D01*
X123132094Y-115517401D01*
X123133116Y-115515529D01*
X123129430Y-115510260D01*
X122921879Y-115383073D01*
X122913085Y-115378592D01*
X122684758Y-115284016D01*
X122675373Y-115280967D01*
X122435060Y-115223272D01*
X122425313Y-115221729D01*
X122178930Y-115202338D01*
X122169070Y-115202338D01*
X121922687Y-115221729D01*
X121912940Y-115223272D01*
X121672627Y-115280967D01*
X121663242Y-115284016D01*
X121434915Y-115378592D01*
X121426121Y-115383073D01*
X121220072Y-115509340D01*
X121214810Y-115517401D01*
X114750094Y-115517401D01*
X114751116Y-115515529D01*
X114747430Y-115510260D01*
X114539879Y-115383073D01*
X114531085Y-115378592D01*
X114302758Y-115284016D01*
X114293373Y-115280967D01*
X114053060Y-115223272D01*
X114043313Y-115221729D01*
X113796930Y-115202338D01*
X113787070Y-115202338D01*
X113540687Y-115221729D01*
X113530940Y-115223272D01*
X113290627Y-115280967D01*
X113281242Y-115284016D01*
X113052915Y-115378592D01*
X113044121Y-115383073D01*
X112838072Y-115509340D01*
X112832810Y-115517401D01*
X109670094Y-115517401D01*
X109671116Y-115515529D01*
X109667430Y-115510260D01*
X109459879Y-115383073D01*
X109451085Y-115378592D01*
X109222758Y-115284016D01*
X109213373Y-115280967D01*
X108973060Y-115223272D01*
X108963313Y-115221729D01*
X108716930Y-115202338D01*
X108707070Y-115202338D01*
X108460687Y-115221729D01*
X108450940Y-115223272D01*
X108210627Y-115280967D01*
X108201242Y-115284016D01*
X107972915Y-115378592D01*
X107964121Y-115383073D01*
X107758072Y-115509340D01*
X107752810Y-115517401D01*
X106195368Y-115517401D01*
X106177980Y-115493468D01*
X106171464Y-115483548D01*
X106153943Y-115453921D01*
X106153941Y-115453918D01*
X106149905Y-115447094D01*
X106136378Y-115433567D01*
X106123537Y-115418533D01*
X106116940Y-115409453D01*
X106116939Y-115409452D01*
X106112279Y-115403038D01*
X106079627Y-115376026D01*
X106070848Y-115368037D01*
X104304007Y-113601195D01*
X104269981Y-113538883D01*
X104275046Y-113468067D01*
X104317593Y-113411232D01*
X104384113Y-113386421D01*
X104393102Y-113386100D01*
X126695099Y-113386100D01*
X126763220Y-113406102D01*
X126784194Y-113423005D01*
X129511653Y-116150465D01*
X129545679Y-116212777D01*
X129540614Y-116283593D01*
X129498067Y-116340428D01*
X129488869Y-116346698D01*
X129377652Y-116415522D01*
X129252695Y-116540697D01*
X129248855Y-116546927D01*
X129248854Y-116546928D01*
X129165433Y-116682262D01*
X129159885Y-116691262D01*
X129139009Y-116754203D01*
X129130240Y-116780640D01*
X129089810Y-116839001D01*
X129024246Y-116866238D01*
X128954364Y-116853705D01*
X128902352Y-116805381D01*
X128885035Y-116750860D01*
X128872271Y-116588687D01*
X128870728Y-116578940D01*
X128813033Y-116338627D01*
X128809984Y-116329242D01*
X128715408Y-116100915D01*
X128710927Y-116092121D01*
X128584660Y-115886072D01*
X128576599Y-115880810D01*
X128566393Y-115886817D01*
X127626022Y-116827188D01*
X127618408Y-116841132D01*
X127618539Y-116842965D01*
X127622790Y-116849580D01*
X128564934Y-117791724D01*
X128578471Y-117799116D01*
X128583740Y-117795430D01*
X128710927Y-117587879D01*
X128715408Y-117579085D01*
X128809984Y-117350758D01*
X128813033Y-117341373D01*
X128844981Y-117208302D01*
X128880333Y-117146733D01*
X128943360Y-117114050D01*
X129014051Y-117120631D01*
X129069962Y-117164385D01*
X129093500Y-117237716D01*
X129093500Y-117764400D01*
X129093837Y-117767646D01*
X129093837Y-117767650D01*
X129102814Y-117854166D01*
X129104474Y-117870166D01*
X129160450Y-118037946D01*
X129253522Y-118188348D01*
X129258702Y-118193519D01*
X129258704Y-118193521D01*
X129340109Y-118274784D01*
X129374188Y-118337066D01*
X129369185Y-118407886D01*
X129340264Y-118452975D01*
X129317435Y-118475844D01*
X129252695Y-118540697D01*
X129248855Y-118546927D01*
X129248854Y-118546928D01*
X129236014Y-118567759D01*
X129159885Y-118691262D01*
X129157846Y-118697409D01*
X129111158Y-118750435D01*
X129043880Y-118769900D01*
X126205328Y-118769900D01*
X126137207Y-118749898D01*
X126088920Y-118692121D01*
X126087079Y-118687677D01*
X126084584Y-118681653D01*
X125958464Y-118475844D01*
X125801701Y-118292299D01*
X125652034Y-118164471D01*
X126294884Y-118164471D01*
X126298570Y-118169740D01*
X126506121Y-118296927D01*
X126514915Y-118301408D01*
X126743242Y-118395984D01*
X126752627Y-118399033D01*
X126992940Y-118456728D01*
X127002687Y-118458271D01*
X127249070Y-118477662D01*
X127258930Y-118477662D01*
X127505313Y-118458271D01*
X127515060Y-118456728D01*
X127755373Y-118399033D01*
X127764758Y-118395984D01*
X127993085Y-118301408D01*
X128001879Y-118296927D01*
X128207928Y-118170660D01*
X128213190Y-118162599D01*
X128207183Y-118152393D01*
X127266812Y-117212022D01*
X127252868Y-117204408D01*
X127251035Y-117204539D01*
X127244420Y-117208790D01*
X126302276Y-118150934D01*
X126294884Y-118164471D01*
X125652034Y-118164471D01*
X125618156Y-118135536D01*
X125412347Y-118009416D01*
X125407777Y-118007523D01*
X125407773Y-118007521D01*
X125193916Y-117918939D01*
X125193914Y-117918938D01*
X125189343Y-117917045D01*
X125060724Y-117886166D01*
X124959447Y-117861851D01*
X124959441Y-117861850D01*
X124954634Y-117860696D01*
X124714000Y-117841758D01*
X124473366Y-117860696D01*
X124468559Y-117861850D01*
X124468553Y-117861851D01*
X124367276Y-117886166D01*
X124238657Y-117917045D01*
X124234086Y-117918938D01*
X124234084Y-117918939D01*
X124020227Y-118007521D01*
X124020223Y-118007523D01*
X124015653Y-118009416D01*
X123809844Y-118135536D01*
X123626299Y-118292299D01*
X123469536Y-118475844D01*
X123343416Y-118681653D01*
X123341523Y-118686223D01*
X123341521Y-118686227D01*
X123277001Y-118841994D01*
X123251045Y-118904657D01*
X123249890Y-118909469D01*
X123195851Y-119134553D01*
X123195850Y-119134559D01*
X123194696Y-119139366D01*
X123175758Y-119380000D01*
X123194696Y-119620634D01*
X123195850Y-119625441D01*
X123195851Y-119625447D01*
X123229756Y-119766669D01*
X123251045Y-119855343D01*
X123252938Y-119859914D01*
X123252939Y-119859916D01*
X123333309Y-120053946D01*
X123343416Y-120078347D01*
X123469536Y-120284156D01*
X123626299Y-120467701D01*
X123809844Y-120624464D01*
X124015653Y-120750584D01*
X124020223Y-120752477D01*
X124020227Y-120752479D01*
X124234084Y-120841061D01*
X124238657Y-120842955D01*
X124321039Y-120862733D01*
X124468553Y-120898149D01*
X124468559Y-120898150D01*
X124473366Y-120899304D01*
X124714000Y-120918242D01*
X124954634Y-120899304D01*
X124959441Y-120898150D01*
X124959447Y-120898149D01*
X125106961Y-120862733D01*
X125189343Y-120842955D01*
X125193916Y-120841061D01*
X125407773Y-120752479D01*
X125407777Y-120752477D01*
X125412347Y-120750584D01*
X125618156Y-120624464D01*
X125649843Y-120597401D01*
X126294810Y-120597401D01*
X126300817Y-120607607D01*
X127241188Y-121547978D01*
X127255132Y-121555592D01*
X127256965Y-121555461D01*
X127263580Y-121551210D01*
X128205724Y-120609066D01*
X128212094Y-120597401D01*
X134676810Y-120597401D01*
X134682817Y-120607607D01*
X135623188Y-121547978D01*
X135637132Y-121555592D01*
X135638965Y-121555461D01*
X135645580Y-121551210D01*
X136587724Y-120609066D01*
X136595116Y-120595529D01*
X136591430Y-120590260D01*
X136383879Y-120463073D01*
X136375085Y-120458592D01*
X136146758Y-120364016D01*
X136137373Y-120360967D01*
X135897060Y-120303272D01*
X135887313Y-120301729D01*
X135640930Y-120282338D01*
X135631070Y-120282338D01*
X135384687Y-120301729D01*
X135374940Y-120303272D01*
X135134627Y-120360967D01*
X135125242Y-120364016D01*
X134896915Y-120458592D01*
X134888121Y-120463073D01*
X134682072Y-120589340D01*
X134676810Y-120597401D01*
X128212094Y-120597401D01*
X128213116Y-120595529D01*
X128209430Y-120590260D01*
X128001879Y-120463073D01*
X127993085Y-120458592D01*
X127764758Y-120364016D01*
X127755373Y-120360967D01*
X127515060Y-120303272D01*
X127505313Y-120301729D01*
X127258930Y-120282338D01*
X127249070Y-120282338D01*
X127002687Y-120301729D01*
X126992940Y-120303272D01*
X126752627Y-120360967D01*
X126743242Y-120364016D01*
X126514915Y-120458592D01*
X126506121Y-120463073D01*
X126300072Y-120589340D01*
X126294810Y-120597401D01*
X125649843Y-120597401D01*
X125801701Y-120467701D01*
X125958464Y-120284156D01*
X126084584Y-120078347D01*
X126088920Y-120067879D01*
X126133470Y-120012599D01*
X126205328Y-119990100D01*
X129060640Y-119990100D01*
X129128761Y-120010102D01*
X129167783Y-120049796D01*
X129253522Y-120188348D01*
X129378697Y-120313305D01*
X129384927Y-120317145D01*
X129384928Y-120317146D01*
X129522090Y-120401694D01*
X129529262Y-120406115D01*
X129577501Y-120422115D01*
X129690611Y-120459632D01*
X129690613Y-120459632D01*
X129697139Y-120461797D01*
X129703975Y-120462497D01*
X129703978Y-120462498D01*
X129747031Y-120466909D01*
X129801600Y-120472500D01*
X130802400Y-120472500D01*
X130805646Y-120472163D01*
X130805650Y-120472163D01*
X130901308Y-120462238D01*
X130901312Y-120462237D01*
X130908166Y-120461526D01*
X130914702Y-120459345D01*
X130914704Y-120459345D01*
X131046806Y-120415272D01*
X131075946Y-120405550D01*
X131226348Y-120312478D01*
X131351305Y-120187303D01*
X131352195Y-120188191D01*
X131404039Y-120151432D01*
X131474962Y-120148199D01*
X131536374Y-120183822D01*
X131537583Y-120185214D01*
X131539522Y-120188348D01*
X131664697Y-120313305D01*
X131670927Y-120317145D01*
X131670928Y-120317146D01*
X131808090Y-120401694D01*
X131815262Y-120406115D01*
X131863501Y-120422115D01*
X131976611Y-120459632D01*
X131976613Y-120459632D01*
X131983139Y-120461797D01*
X131989975Y-120462497D01*
X131989978Y-120462498D01*
X132033031Y-120466909D01*
X132087600Y-120472500D01*
X133088400Y-120472500D01*
X133091646Y-120472163D01*
X133091650Y-120472163D01*
X133187308Y-120462238D01*
X133187312Y-120462237D01*
X133194166Y-120461526D01*
X133200702Y-120459345D01*
X133200704Y-120459345D01*
X133332806Y-120415272D01*
X133361946Y-120405550D01*
X133512348Y-120312478D01*
X133637305Y-120187303D01*
X133646524Y-120172348D01*
X133721950Y-120049984D01*
X133774722Y-120002491D01*
X133829210Y-119990100D01*
X136684672Y-119990100D01*
X136752793Y-120010102D01*
X136801080Y-120067879D01*
X136805416Y-120078347D01*
X136931536Y-120284156D01*
X137088299Y-120467701D01*
X137271844Y-120624464D01*
X137477653Y-120750584D01*
X137482223Y-120752477D01*
X137482227Y-120752479D01*
X137696084Y-120841061D01*
X137700657Y-120842955D01*
X137783039Y-120862733D01*
X137930553Y-120898149D01*
X137930559Y-120898150D01*
X137935366Y-120899304D01*
X138176000Y-120918242D01*
X138416634Y-120899304D01*
X138421441Y-120898150D01*
X138421447Y-120898149D01*
X138568961Y-120862733D01*
X138651343Y-120842955D01*
X138655916Y-120841061D01*
X138869773Y-120752479D01*
X138869777Y-120752477D01*
X138874347Y-120750584D01*
X139080156Y-120624464D01*
X139111843Y-120597401D01*
X139756810Y-120597401D01*
X139762817Y-120607607D01*
X140703188Y-121547978D01*
X140717132Y-121555592D01*
X140718965Y-121555461D01*
X140725580Y-121551210D01*
X141667724Y-120609066D01*
X141675116Y-120595529D01*
X141671430Y-120590260D01*
X141463879Y-120463073D01*
X141455085Y-120458592D01*
X141226758Y-120364016D01*
X141217373Y-120360967D01*
X140977060Y-120303272D01*
X140967313Y-120301729D01*
X140720930Y-120282338D01*
X140711070Y-120282338D01*
X140464687Y-120301729D01*
X140454940Y-120303272D01*
X140214627Y-120360967D01*
X140205242Y-120364016D01*
X139976915Y-120458592D01*
X139968121Y-120463073D01*
X139762072Y-120589340D01*
X139756810Y-120597401D01*
X139111843Y-120597401D01*
X139263701Y-120467701D01*
X139420464Y-120284156D01*
X139546584Y-120078347D01*
X139556692Y-120053946D01*
X139637061Y-119859916D01*
X139637062Y-119859914D01*
X139638955Y-119855343D01*
X139660244Y-119766669D01*
X139694149Y-119625447D01*
X139694150Y-119625441D01*
X139695304Y-119620634D01*
X139714242Y-119380000D01*
X139695304Y-119139366D01*
X139694150Y-119134559D01*
X139694149Y-119134553D01*
X139640110Y-118909469D01*
X139638955Y-118904657D01*
X139612999Y-118841994D01*
X139548479Y-118686227D01*
X139548477Y-118686223D01*
X139546584Y-118681653D01*
X139420464Y-118475844D01*
X139263701Y-118292299D01*
X139114034Y-118164471D01*
X139756884Y-118164471D01*
X139760570Y-118169740D01*
X139968121Y-118296927D01*
X139976915Y-118301408D01*
X140205242Y-118395984D01*
X140214627Y-118399033D01*
X140454940Y-118456728D01*
X140464687Y-118458271D01*
X140711070Y-118477662D01*
X140720930Y-118477662D01*
X140967313Y-118458271D01*
X140977060Y-118456728D01*
X141217373Y-118399033D01*
X141226758Y-118395984D01*
X141455085Y-118301408D01*
X141463879Y-118296927D01*
X141669928Y-118170660D01*
X141675190Y-118162599D01*
X141669183Y-118152393D01*
X140728812Y-117212022D01*
X140714868Y-117204408D01*
X140713035Y-117204539D01*
X140706420Y-117208790D01*
X139764276Y-118150934D01*
X139756884Y-118164471D01*
X139114034Y-118164471D01*
X139080156Y-118135536D01*
X138874347Y-118009416D01*
X138869777Y-118007523D01*
X138869773Y-118007521D01*
X138655916Y-117918939D01*
X138655914Y-117918938D01*
X138651343Y-117917045D01*
X138522724Y-117886166D01*
X138421447Y-117861851D01*
X138421441Y-117861850D01*
X138416634Y-117860696D01*
X138176000Y-117841758D01*
X137935366Y-117860696D01*
X137930559Y-117861850D01*
X137930553Y-117861851D01*
X137829276Y-117886166D01*
X137700657Y-117917045D01*
X137696086Y-117918938D01*
X137696084Y-117918939D01*
X137482227Y-118007521D01*
X137482223Y-118007523D01*
X137477653Y-118009416D01*
X137271844Y-118135536D01*
X137088299Y-118292299D01*
X136931536Y-118475844D01*
X136805416Y-118681653D01*
X136802921Y-118687677D01*
X136801080Y-118692121D01*
X136756530Y-118747401D01*
X136684672Y-118769900D01*
X133846133Y-118769900D01*
X133778012Y-118749898D01*
X133732032Y-118697352D01*
X133731868Y-118697002D01*
X133729550Y-118690054D01*
X133636478Y-118539652D01*
X133549891Y-118453216D01*
X133515812Y-118390934D01*
X133520815Y-118320114D01*
X133549736Y-118275025D01*
X133632134Y-118192483D01*
X133637305Y-118187303D01*
X133645926Y-118173317D01*
X133651379Y-118164471D01*
X134676884Y-118164471D01*
X134680570Y-118169740D01*
X134888121Y-118296927D01*
X134896915Y-118301408D01*
X135125242Y-118395984D01*
X135134627Y-118399033D01*
X135374940Y-118456728D01*
X135384687Y-118458271D01*
X135631070Y-118477662D01*
X135640930Y-118477662D01*
X135887313Y-118458271D01*
X135897060Y-118456728D01*
X136137373Y-118399033D01*
X136146758Y-118395984D01*
X136375085Y-118301408D01*
X136383879Y-118296927D01*
X136589928Y-118170660D01*
X136595190Y-118162599D01*
X136589183Y-118152393D01*
X135648812Y-117212022D01*
X135634868Y-117204408D01*
X135633035Y-117204539D01*
X135626420Y-117208790D01*
X134684276Y-118150934D01*
X134676884Y-118164471D01*
X133651379Y-118164471D01*
X133726275Y-118042968D01*
X133726276Y-118042966D01*
X133730115Y-118036738D01*
X133785797Y-117868861D01*
X133786516Y-117861851D01*
X133793321Y-117795430D01*
X133796500Y-117764400D01*
X133796500Y-117237716D01*
X133816502Y-117169595D01*
X133870158Y-117123102D01*
X133940432Y-117112998D01*
X134005012Y-117142492D01*
X134045019Y-117208302D01*
X134076967Y-117341373D01*
X134080016Y-117350758D01*
X134174592Y-117579085D01*
X134179073Y-117587879D01*
X134305340Y-117793928D01*
X134313401Y-117799190D01*
X134323607Y-117793183D01*
X135263978Y-116852812D01*
X135270356Y-116841132D01*
X136000408Y-116841132D01*
X136000539Y-116842965D01*
X136004790Y-116849580D01*
X136946934Y-117791724D01*
X136960471Y-117799116D01*
X136965740Y-117795430D01*
X137092927Y-117587879D01*
X137097408Y-117579085D01*
X137191984Y-117350758D01*
X137195033Y-117341373D01*
X137252728Y-117101060D01*
X137254271Y-117091313D01*
X137273662Y-116844930D01*
X139078338Y-116844930D01*
X139097729Y-117091313D01*
X139099272Y-117101060D01*
X139156967Y-117341373D01*
X139160016Y-117350758D01*
X139254592Y-117579085D01*
X139259073Y-117587879D01*
X139385340Y-117793928D01*
X139393401Y-117799190D01*
X139403607Y-117793183D01*
X140343978Y-116852812D01*
X140351592Y-116838868D01*
X140351461Y-116837035D01*
X140347210Y-116830420D01*
X139405066Y-115888276D01*
X139391529Y-115880884D01*
X139386260Y-115884570D01*
X139259073Y-116092121D01*
X139254592Y-116100915D01*
X139160016Y-116329242D01*
X139156967Y-116338627D01*
X139099272Y-116578940D01*
X139097729Y-116588687D01*
X139078338Y-116835070D01*
X139078338Y-116844930D01*
X137273662Y-116844930D01*
X137273662Y-116835070D01*
X137254271Y-116588687D01*
X137252728Y-116578940D01*
X137195033Y-116338627D01*
X137191984Y-116329242D01*
X137097408Y-116100915D01*
X137092927Y-116092121D01*
X136966660Y-115886072D01*
X136958599Y-115880810D01*
X136948393Y-115886817D01*
X136008022Y-116827188D01*
X136000408Y-116841132D01*
X135270356Y-116841132D01*
X135271592Y-116838868D01*
X135271461Y-116837035D01*
X135267210Y-116830420D01*
X134325066Y-115888276D01*
X134311529Y-115880884D01*
X134306260Y-115884570D01*
X134179073Y-116092121D01*
X134174592Y-116100915D01*
X134080016Y-116329242D01*
X134076967Y-116338627D01*
X134019272Y-116578940D01*
X134017729Y-116588687D01*
X134004968Y-116750829D01*
X133979683Y-116817170D01*
X133922545Y-116859310D01*
X133851695Y-116863869D01*
X133789627Y-116829400D01*
X133759833Y-116780820D01*
X133731870Y-116697007D01*
X133731869Y-116697005D01*
X133729550Y-116690054D01*
X133636478Y-116539652D01*
X133511303Y-116414695D01*
X133498044Y-116406522D01*
X133366968Y-116325725D01*
X133366966Y-116325724D01*
X133360738Y-116321885D01*
X133287602Y-116297627D01*
X133284433Y-116296576D01*
X133226073Y-116256146D01*
X133198836Y-116190582D01*
X133198100Y-116176983D01*
X133198100Y-115899677D01*
X133198598Y-115889125D01*
X133200219Y-115881871D01*
X133198162Y-115816405D01*
X133198100Y-115812448D01*
X133198100Y-115785617D01*
X133197604Y-115781690D01*
X133197547Y-115780784D01*
X133196708Y-115770135D01*
X133195627Y-115735728D01*
X133195627Y-115735726D01*
X133195378Y-115727801D01*
X133190036Y-115709414D01*
X133186028Y-115690057D01*
X133184623Y-115678937D01*
X133183629Y-115671068D01*
X133168035Y-115631680D01*
X133164193Y-115620457D01*
X133154585Y-115587390D01*
X133154584Y-115587388D01*
X133152372Y-115579774D01*
X133142625Y-115563293D01*
X133133933Y-115545551D01*
X133126884Y-115527746D01*
X133119368Y-115517401D01*
X134676810Y-115517401D01*
X134682817Y-115527607D01*
X135623188Y-116467978D01*
X135637132Y-116475592D01*
X135638965Y-116475461D01*
X135645580Y-116471210D01*
X136587724Y-115529066D01*
X136594094Y-115517401D01*
X139756810Y-115517401D01*
X139762817Y-115527607D01*
X140703188Y-116467978D01*
X140717132Y-116475592D01*
X140718965Y-116475461D01*
X140725580Y-116471210D01*
X141667724Y-115529066D01*
X141675116Y-115515529D01*
X141671430Y-115510260D01*
X141463879Y-115383073D01*
X141455085Y-115378592D01*
X141226758Y-115284016D01*
X141217373Y-115280967D01*
X140977060Y-115223272D01*
X140967313Y-115221729D01*
X140720930Y-115202338D01*
X140711070Y-115202338D01*
X140464687Y-115221729D01*
X140454940Y-115223272D01*
X140214627Y-115280967D01*
X140205242Y-115284016D01*
X139976915Y-115378592D01*
X139968121Y-115383073D01*
X139762072Y-115509340D01*
X139756810Y-115517401D01*
X136594094Y-115517401D01*
X136595116Y-115515529D01*
X136591430Y-115510260D01*
X136383879Y-115383073D01*
X136375085Y-115378592D01*
X136146758Y-115284016D01*
X136137373Y-115280967D01*
X135897060Y-115223272D01*
X135887313Y-115221729D01*
X135640930Y-115202338D01*
X135631070Y-115202338D01*
X135384687Y-115221729D01*
X135374940Y-115223272D01*
X135134627Y-115280967D01*
X135125242Y-115284016D01*
X134896915Y-115378592D01*
X134888121Y-115383073D01*
X134682072Y-115509340D01*
X134676810Y-115517401D01*
X133119368Y-115517401D01*
X133101980Y-115493468D01*
X133095467Y-115483552D01*
X133077943Y-115453920D01*
X133077941Y-115453917D01*
X133073905Y-115447093D01*
X133060374Y-115433562D01*
X133047532Y-115418527D01*
X133036279Y-115403038D01*
X133003633Y-115376031D01*
X132994853Y-115368041D01*
X129516920Y-111890108D01*
X129509810Y-111882295D01*
X129505826Y-111876017D01*
X129458069Y-111831170D01*
X129455227Y-111828415D01*
X129436265Y-111809453D01*
X129433138Y-111807027D01*
X129432497Y-111806462D01*
X129424337Y-111799493D01*
X129399239Y-111775925D01*
X129393458Y-111770496D01*
X129376681Y-111761272D01*
X129360173Y-111750429D01*
X129350456Y-111742893D01*
X129308885Y-111685340D01*
X129305028Y-111614448D01*
X129338579Y-111554232D01*
X132888340Y-108004471D01*
X134676884Y-108004471D01*
X134680570Y-108009740D01*
X134888121Y-108136927D01*
X134896915Y-108141408D01*
X135125242Y-108235984D01*
X135134627Y-108239033D01*
X135374940Y-108296728D01*
X135384687Y-108298271D01*
X135631070Y-108317662D01*
X135640930Y-108317662D01*
X135887313Y-108298271D01*
X135897060Y-108296728D01*
X136137373Y-108239033D01*
X136146758Y-108235984D01*
X136375085Y-108141408D01*
X136383879Y-108136927D01*
X136589928Y-108010660D01*
X136593968Y-108004471D01*
X139756884Y-108004471D01*
X139760570Y-108009740D01*
X139968121Y-108136927D01*
X139976915Y-108141408D01*
X140205242Y-108235984D01*
X140214627Y-108239033D01*
X140454940Y-108296728D01*
X140464687Y-108298271D01*
X140711070Y-108317662D01*
X140720930Y-108317662D01*
X140967313Y-108298271D01*
X140977060Y-108296728D01*
X141217373Y-108239033D01*
X141226758Y-108235984D01*
X141455085Y-108141408D01*
X141463879Y-108136927D01*
X141669928Y-108010660D01*
X141675190Y-108002599D01*
X141669183Y-107992393D01*
X140728812Y-107052022D01*
X140714868Y-107044408D01*
X140713035Y-107044539D01*
X140706420Y-107048790D01*
X139764276Y-107990934D01*
X139756884Y-108004471D01*
X136593968Y-108004471D01*
X136595190Y-108002599D01*
X136589183Y-107992393D01*
X135648812Y-107052022D01*
X135634868Y-107044408D01*
X135633035Y-107044539D01*
X135626420Y-107048790D01*
X134684276Y-107990934D01*
X134676884Y-108004471D01*
X132888340Y-108004471D01*
X132965890Y-107926921D01*
X132973706Y-107919809D01*
X132979983Y-107915826D01*
X133024830Y-107868069D01*
X133027585Y-107865227D01*
X133046547Y-107846265D01*
X133048973Y-107843138D01*
X133049538Y-107842497D01*
X133056507Y-107834337D01*
X133070106Y-107819855D01*
X133085504Y-107803458D01*
X133094728Y-107786681D01*
X133105575Y-107770168D01*
X133112452Y-107761302D01*
X133112455Y-107761297D01*
X133117313Y-107755034D01*
X133134139Y-107716150D01*
X133139354Y-107705505D01*
X133159765Y-107668378D01*
X133164525Y-107649838D01*
X133170928Y-107631136D01*
X133175384Y-107620839D01*
X133178532Y-107613565D01*
X133185159Y-107571722D01*
X133187566Y-107560098D01*
X133196129Y-107526750D01*
X133198100Y-107519074D01*
X133198100Y-107499936D01*
X133199651Y-107480225D01*
X133201406Y-107469144D01*
X133202646Y-107461316D01*
X133198659Y-107419139D01*
X133198100Y-107407281D01*
X133198100Y-107327004D01*
X133218102Y-107258883D01*
X133271758Y-107212390D01*
X133284223Y-107207481D01*
X133355002Y-107183867D01*
X133355004Y-107183866D01*
X133361946Y-107181550D01*
X133393072Y-107162289D01*
X133506120Y-107092332D01*
X133512348Y-107088478D01*
X133637305Y-106963303D01*
X133725530Y-106820176D01*
X133726275Y-106818968D01*
X133726276Y-106818966D01*
X133730115Y-106812738D01*
X133758743Y-106726427D01*
X133799174Y-106668068D01*
X133864738Y-106640831D01*
X133934620Y-106653365D01*
X133986632Y-106701689D01*
X134003948Y-106756209D01*
X134017729Y-106931313D01*
X134019272Y-106941060D01*
X134076967Y-107181373D01*
X134080016Y-107190758D01*
X134174592Y-107419085D01*
X134179073Y-107427879D01*
X134305340Y-107633928D01*
X134313401Y-107639190D01*
X134323607Y-107633183D01*
X135263978Y-106692812D01*
X135270356Y-106681132D01*
X136000408Y-106681132D01*
X136000539Y-106682965D01*
X136004790Y-106689580D01*
X136946934Y-107631724D01*
X136960471Y-107639116D01*
X136965740Y-107635430D01*
X137092927Y-107427879D01*
X137097408Y-107419085D01*
X137191984Y-107190758D01*
X137195033Y-107181373D01*
X137252728Y-106941060D01*
X137254271Y-106931313D01*
X137273662Y-106684930D01*
X139078338Y-106684930D01*
X139097729Y-106931313D01*
X139099272Y-106941060D01*
X139156967Y-107181373D01*
X139160016Y-107190758D01*
X139254592Y-107419085D01*
X139259073Y-107427879D01*
X139385340Y-107633928D01*
X139393401Y-107639190D01*
X139403607Y-107633183D01*
X140343978Y-106692812D01*
X140351592Y-106678868D01*
X140351461Y-106677035D01*
X140347210Y-106670420D01*
X139405066Y-105728276D01*
X139391529Y-105720884D01*
X139386260Y-105724570D01*
X139259073Y-105932121D01*
X139254592Y-105940915D01*
X139160016Y-106169242D01*
X139156967Y-106178627D01*
X139099272Y-106418940D01*
X139097729Y-106428687D01*
X139078338Y-106675070D01*
X139078338Y-106684930D01*
X137273662Y-106684930D01*
X137273662Y-106675070D01*
X137254271Y-106428687D01*
X137252728Y-106418940D01*
X137195033Y-106178627D01*
X137191984Y-106169242D01*
X137097408Y-105940915D01*
X137092927Y-105932121D01*
X136966660Y-105726072D01*
X136958599Y-105720810D01*
X136948393Y-105726817D01*
X136008022Y-106667188D01*
X136000408Y-106681132D01*
X135270356Y-106681132D01*
X135271592Y-106678868D01*
X135271461Y-106677035D01*
X135267210Y-106670420D01*
X134325066Y-105728276D01*
X134311529Y-105720884D01*
X134306260Y-105724570D01*
X134179073Y-105932121D01*
X134174592Y-105940915D01*
X134080016Y-106169242D01*
X134076967Y-106178627D01*
X134045019Y-106311698D01*
X134009667Y-106373267D01*
X133946640Y-106405950D01*
X133875949Y-106399369D01*
X133820038Y-106355615D01*
X133796500Y-106282284D01*
X133796500Y-105739600D01*
X133795174Y-105726817D01*
X133786238Y-105640692D01*
X133786237Y-105640688D01*
X133785526Y-105633834D01*
X133780760Y-105619547D01*
X133731868Y-105473002D01*
X133729550Y-105466054D01*
X133662313Y-105357401D01*
X134676810Y-105357401D01*
X134682817Y-105367607D01*
X135623188Y-106307978D01*
X135637132Y-106315592D01*
X135638965Y-106315461D01*
X135645580Y-106311210D01*
X136587724Y-105369066D01*
X136595116Y-105355529D01*
X136591430Y-105350260D01*
X136383879Y-105223073D01*
X136375085Y-105218592D01*
X136146758Y-105124016D01*
X136137373Y-105120967D01*
X135897060Y-105063272D01*
X135887313Y-105061729D01*
X135640930Y-105042338D01*
X135631070Y-105042338D01*
X135384687Y-105061729D01*
X135374940Y-105063272D01*
X135134627Y-105120967D01*
X135125242Y-105124016D01*
X134896915Y-105218592D01*
X134888121Y-105223073D01*
X134682072Y-105349340D01*
X134676810Y-105357401D01*
X133662313Y-105357401D01*
X133636478Y-105315652D01*
X133549891Y-105229216D01*
X133515812Y-105166934D01*
X133520815Y-105096114D01*
X133549736Y-105051025D01*
X133632134Y-104968483D01*
X133637305Y-104963303D01*
X133730115Y-104812738D01*
X133732225Y-104814038D01*
X133771375Y-104769569D01*
X133838659Y-104750100D01*
X136684672Y-104750100D01*
X136752793Y-104770102D01*
X136801080Y-104827879D01*
X136805416Y-104838347D01*
X136931536Y-105044156D01*
X137088299Y-105227701D01*
X137271844Y-105384464D01*
X137477653Y-105510584D01*
X137482223Y-105512477D01*
X137482227Y-105512479D01*
X137696084Y-105601061D01*
X137700657Y-105602955D01*
X137769767Y-105619547D01*
X137930553Y-105658149D01*
X137930559Y-105658150D01*
X137935366Y-105659304D01*
X138176000Y-105678242D01*
X138416634Y-105659304D01*
X138421441Y-105658150D01*
X138421447Y-105658149D01*
X138582233Y-105619547D01*
X138651343Y-105602955D01*
X138655916Y-105601061D01*
X138869773Y-105512479D01*
X138869777Y-105512477D01*
X138874347Y-105510584D01*
X139080156Y-105384464D01*
X139111843Y-105357401D01*
X139756810Y-105357401D01*
X139762817Y-105367607D01*
X140703188Y-106307978D01*
X140717132Y-106315592D01*
X140718965Y-106315461D01*
X140725580Y-106311210D01*
X141667724Y-105369066D01*
X141675116Y-105355529D01*
X141671430Y-105350260D01*
X141463879Y-105223073D01*
X141455085Y-105218592D01*
X141226758Y-105124016D01*
X141217373Y-105120967D01*
X140977060Y-105063272D01*
X140967313Y-105061729D01*
X140720930Y-105042338D01*
X140711070Y-105042338D01*
X140464687Y-105061729D01*
X140454940Y-105063272D01*
X140214627Y-105120967D01*
X140205242Y-105124016D01*
X139976915Y-105218592D01*
X139968121Y-105223073D01*
X139762072Y-105349340D01*
X139756810Y-105357401D01*
X139111843Y-105357401D01*
X139263701Y-105227701D01*
X139420464Y-105044156D01*
X139546584Y-104838347D01*
X139552386Y-104824341D01*
X139637061Y-104619916D01*
X139637062Y-104619914D01*
X139638955Y-104615343D01*
X139661086Y-104523163D01*
X139694149Y-104385447D01*
X139694150Y-104385441D01*
X139695304Y-104380634D01*
X139714242Y-104140000D01*
X139695304Y-103899366D01*
X139694150Y-103894559D01*
X139694149Y-103894553D01*
X139640110Y-103669469D01*
X139638955Y-103664657D01*
X139573818Y-103507401D01*
X139548479Y-103446227D01*
X139548477Y-103446223D01*
X139546584Y-103441653D01*
X139420464Y-103235844D01*
X139263701Y-103052299D01*
X139114034Y-102924471D01*
X139756884Y-102924471D01*
X139760570Y-102929740D01*
X139968121Y-103056927D01*
X139976915Y-103061408D01*
X140205242Y-103155984D01*
X140214627Y-103159033D01*
X140454940Y-103216728D01*
X140464687Y-103218271D01*
X140711070Y-103237662D01*
X140720930Y-103237662D01*
X140967313Y-103218271D01*
X140977060Y-103216728D01*
X141217373Y-103159033D01*
X141226758Y-103155984D01*
X141455085Y-103061408D01*
X141463879Y-103056927D01*
X141669928Y-102930660D01*
X141675190Y-102922599D01*
X141669183Y-102912393D01*
X140728812Y-101972022D01*
X140714868Y-101964408D01*
X140713035Y-101964539D01*
X140706420Y-101968790D01*
X139764276Y-102910934D01*
X139756884Y-102924471D01*
X139114034Y-102924471D01*
X139080156Y-102895536D01*
X138874347Y-102769416D01*
X138869777Y-102767523D01*
X138869773Y-102767521D01*
X138655916Y-102678939D01*
X138655914Y-102678938D01*
X138651343Y-102677045D01*
X138568961Y-102657267D01*
X138421447Y-102621851D01*
X138421441Y-102621850D01*
X138416634Y-102620696D01*
X138176000Y-102601758D01*
X137935366Y-102620696D01*
X137930559Y-102621850D01*
X137930553Y-102621851D01*
X137783039Y-102657267D01*
X137700657Y-102677045D01*
X137696086Y-102678938D01*
X137696084Y-102678939D01*
X137482227Y-102767521D01*
X137482223Y-102767523D01*
X137477653Y-102769416D01*
X137271844Y-102895536D01*
X137088299Y-103052299D01*
X136931536Y-103235844D01*
X136805416Y-103441653D01*
X136801358Y-103451451D01*
X136801080Y-103452121D01*
X136756530Y-103507401D01*
X136684672Y-103529900D01*
X133838638Y-103529900D01*
X133770517Y-103509898D01*
X133731236Y-103465011D01*
X133729550Y-103466054D01*
X133640332Y-103321880D01*
X133636478Y-103315652D01*
X133511303Y-103190695D01*
X133454992Y-103155984D01*
X133366968Y-103101725D01*
X133366966Y-103101724D01*
X133360738Y-103097885D01*
X133200254Y-103044655D01*
X133199389Y-103044368D01*
X133199387Y-103044368D01*
X133192861Y-103042203D01*
X133186025Y-103041503D01*
X133186022Y-103041502D01*
X133142969Y-103037091D01*
X133088400Y-103031500D01*
X132087600Y-103031500D01*
X132084354Y-103031837D01*
X132084350Y-103031837D01*
X131988692Y-103041762D01*
X131988688Y-103041763D01*
X131981834Y-103042474D01*
X131975298Y-103044655D01*
X131975296Y-103044655D01*
X131938513Y-103056927D01*
X131814054Y-103098450D01*
X131663652Y-103191522D01*
X131538695Y-103316697D01*
X131537805Y-103315809D01*
X131485961Y-103352568D01*
X131415038Y-103355801D01*
X131353626Y-103320178D01*
X131352417Y-103318786D01*
X131350478Y-103315652D01*
X131225303Y-103190695D01*
X131168992Y-103155984D01*
X131080968Y-103101725D01*
X131080966Y-103101724D01*
X131074738Y-103097885D01*
X130914254Y-103044655D01*
X130913389Y-103044368D01*
X130913387Y-103044368D01*
X130906861Y-103042203D01*
X130900025Y-103041503D01*
X130900022Y-103041502D01*
X130856969Y-103037091D01*
X130802400Y-103031500D01*
X129801600Y-103031500D01*
X129798354Y-103031837D01*
X129798350Y-103031837D01*
X129702692Y-103041762D01*
X129702688Y-103041763D01*
X129695834Y-103042474D01*
X129689298Y-103044655D01*
X129689296Y-103044655D01*
X129652513Y-103056927D01*
X129528054Y-103098450D01*
X129377652Y-103191522D01*
X129252695Y-103316697D01*
X129159885Y-103467262D01*
X129157775Y-103465962D01*
X129118625Y-103510431D01*
X129051341Y-103529900D01*
X126205328Y-103529900D01*
X126137207Y-103509898D01*
X126088920Y-103452121D01*
X126088642Y-103451451D01*
X126084584Y-103441653D01*
X125958464Y-103235844D01*
X125801701Y-103052299D01*
X125652034Y-102924471D01*
X126294884Y-102924471D01*
X126298570Y-102929740D01*
X126506121Y-103056927D01*
X126514915Y-103061408D01*
X126743242Y-103155984D01*
X126752627Y-103159033D01*
X126992940Y-103216728D01*
X127002687Y-103218271D01*
X127249070Y-103237662D01*
X127258930Y-103237662D01*
X127505313Y-103218271D01*
X127515060Y-103216728D01*
X127755373Y-103159033D01*
X127764758Y-103155984D01*
X127993085Y-103061408D01*
X128001879Y-103056927D01*
X128207928Y-102930660D01*
X128211968Y-102924471D01*
X134676884Y-102924471D01*
X134680570Y-102929740D01*
X134888121Y-103056927D01*
X134896915Y-103061408D01*
X135125242Y-103155984D01*
X135134627Y-103159033D01*
X135374940Y-103216728D01*
X135384687Y-103218271D01*
X135631070Y-103237662D01*
X135640930Y-103237662D01*
X135887313Y-103218271D01*
X135897060Y-103216728D01*
X136137373Y-103159033D01*
X136146758Y-103155984D01*
X136375085Y-103061408D01*
X136383879Y-103056927D01*
X136589928Y-102930660D01*
X136595190Y-102922599D01*
X136589183Y-102912393D01*
X135648812Y-101972022D01*
X135634868Y-101964408D01*
X135633035Y-101964539D01*
X135626420Y-101968790D01*
X134684276Y-102910934D01*
X134676884Y-102924471D01*
X128211968Y-102924471D01*
X128213190Y-102922599D01*
X128207183Y-102912393D01*
X127266812Y-101972022D01*
X127252868Y-101964408D01*
X127251035Y-101964539D01*
X127244420Y-101968790D01*
X126302276Y-102910934D01*
X126294884Y-102924471D01*
X125652034Y-102924471D01*
X125618156Y-102895536D01*
X125412347Y-102769416D01*
X125407777Y-102767523D01*
X125407773Y-102767521D01*
X125193916Y-102678939D01*
X125193914Y-102678938D01*
X125189343Y-102677045D01*
X125106961Y-102657267D01*
X124959447Y-102621851D01*
X124959441Y-102621850D01*
X124954634Y-102620696D01*
X124714000Y-102601758D01*
X124473366Y-102620696D01*
X124468559Y-102621850D01*
X124468553Y-102621851D01*
X124321039Y-102657267D01*
X124238657Y-102677045D01*
X124234086Y-102678938D01*
X124234084Y-102678939D01*
X124020227Y-102767521D01*
X124020223Y-102767523D01*
X124015653Y-102769416D01*
X123809844Y-102895536D01*
X123626299Y-103052299D01*
X123469536Y-103235844D01*
X123343416Y-103441653D01*
X123341523Y-103446223D01*
X123341521Y-103446227D01*
X123316182Y-103507401D01*
X123251045Y-103664657D01*
X123249890Y-103669469D01*
X123195851Y-103894553D01*
X123195850Y-103894559D01*
X123194696Y-103899366D01*
X123175758Y-104140000D01*
X123194696Y-104380634D01*
X123195850Y-104385441D01*
X123195851Y-104385447D01*
X123228914Y-104523163D01*
X123251045Y-104615343D01*
X123252938Y-104619914D01*
X123252939Y-104619916D01*
X123337615Y-104824341D01*
X123343416Y-104838347D01*
X123469536Y-105044156D01*
X123626299Y-105227701D01*
X123809844Y-105384464D01*
X124015653Y-105510584D01*
X124020223Y-105512477D01*
X124020227Y-105512479D01*
X124234084Y-105601061D01*
X124238657Y-105602955D01*
X124307767Y-105619547D01*
X124468553Y-105658149D01*
X124468559Y-105658150D01*
X124473366Y-105659304D01*
X124714000Y-105678242D01*
X124954634Y-105659304D01*
X124959441Y-105658150D01*
X124959447Y-105658149D01*
X125120233Y-105619547D01*
X125189343Y-105602955D01*
X125193916Y-105601061D01*
X125407773Y-105512479D01*
X125407777Y-105512477D01*
X125412347Y-105510584D01*
X125618156Y-105384464D01*
X125649843Y-105357401D01*
X126294810Y-105357401D01*
X126300817Y-105367607D01*
X127241188Y-106307978D01*
X127255132Y-106315592D01*
X127256965Y-106315461D01*
X127263580Y-106311210D01*
X128205724Y-105369066D01*
X128213116Y-105355529D01*
X128209430Y-105350260D01*
X128001879Y-105223073D01*
X127993085Y-105218592D01*
X127764758Y-105124016D01*
X127755373Y-105120967D01*
X127515060Y-105063272D01*
X127505313Y-105061729D01*
X127258930Y-105042338D01*
X127249070Y-105042338D01*
X127002687Y-105061729D01*
X126992940Y-105063272D01*
X126752627Y-105120967D01*
X126743242Y-105124016D01*
X126514915Y-105218592D01*
X126506121Y-105223073D01*
X126300072Y-105349340D01*
X126294810Y-105357401D01*
X125649843Y-105357401D01*
X125801701Y-105227701D01*
X125958464Y-105044156D01*
X126084584Y-104838347D01*
X126088920Y-104827879D01*
X126133470Y-104772599D01*
X126205328Y-104750100D01*
X129051362Y-104750100D01*
X129119483Y-104770102D01*
X129158764Y-104814989D01*
X129160450Y-104813946D01*
X129253522Y-104964348D01*
X129258702Y-104969519D01*
X129258704Y-104969521D01*
X129340109Y-105050784D01*
X129374188Y-105113066D01*
X129369185Y-105183886D01*
X129340264Y-105228975D01*
X129264940Y-105304431D01*
X129252695Y-105316697D01*
X129248855Y-105322927D01*
X129248854Y-105322928D01*
X129210923Y-105384464D01*
X129159885Y-105467262D01*
X129157581Y-105474209D01*
X129109375Y-105619547D01*
X129104203Y-105635139D01*
X129093500Y-105739600D01*
X129093500Y-106282284D01*
X129073498Y-106350405D01*
X129019842Y-106396898D01*
X128949568Y-106407002D01*
X128884988Y-106377508D01*
X128844981Y-106311698D01*
X128813033Y-106178627D01*
X128809984Y-106169242D01*
X128715408Y-105940915D01*
X128710927Y-105932121D01*
X128584660Y-105726072D01*
X128576599Y-105720810D01*
X128566393Y-105726817D01*
X127626022Y-106667188D01*
X127618408Y-106681132D01*
X127618539Y-106682965D01*
X127622790Y-106689580D01*
X128564934Y-107631724D01*
X128578471Y-107639116D01*
X128583740Y-107635430D01*
X128710927Y-107427879D01*
X128715408Y-107419085D01*
X128809984Y-107190758D01*
X128813033Y-107181373D01*
X128870728Y-106941060D01*
X128872271Y-106931313D01*
X128886051Y-106756224D01*
X128911336Y-106689883D01*
X128968474Y-106647743D01*
X129039325Y-106643184D01*
X129101392Y-106677653D01*
X129131187Y-106726234D01*
X129160450Y-106813946D01*
X129253522Y-106964348D01*
X129378697Y-107089305D01*
X129529262Y-107182115D01*
X129591034Y-107202603D01*
X129605567Y-107207424D01*
X129663927Y-107247854D01*
X129691164Y-107313418D01*
X129691900Y-107327017D01*
X129691900Y-107391099D01*
X129671898Y-107459220D01*
X129654995Y-107480194D01*
X126784193Y-110350995D01*
X126721881Y-110385021D01*
X126695098Y-110387900D01*
X104139101Y-110387900D01*
X104070980Y-110367898D01*
X104024487Y-110314242D01*
X104014383Y-110243968D01*
X104043877Y-110179388D01*
X104050006Y-110172805D01*
X104964455Y-109258357D01*
X106041890Y-108180922D01*
X106049705Y-108173810D01*
X106055983Y-108169826D01*
X106100830Y-108122069D01*
X106103585Y-108119227D01*
X106122547Y-108100265D01*
X106124976Y-108097133D01*
X106125529Y-108096506D01*
X106132510Y-108088333D01*
X106156077Y-108063237D01*
X106161504Y-108057458D01*
X106165324Y-108050510D01*
X106170731Y-108040676D01*
X106181582Y-108024157D01*
X106188456Y-108015295D01*
X106188457Y-108015293D01*
X106193312Y-108009034D01*
X106195287Y-108004471D01*
X107752884Y-108004471D01*
X107756570Y-108009740D01*
X107964121Y-108136927D01*
X107972915Y-108141408D01*
X108201242Y-108235984D01*
X108210627Y-108239033D01*
X108450940Y-108296728D01*
X108460687Y-108298271D01*
X108707070Y-108317662D01*
X108716930Y-108317662D01*
X108963313Y-108298271D01*
X108973060Y-108296728D01*
X109213373Y-108239033D01*
X109222758Y-108235984D01*
X109451085Y-108141408D01*
X109459879Y-108136927D01*
X109665928Y-108010660D01*
X109669968Y-108004471D01*
X112832884Y-108004471D01*
X112836570Y-108009740D01*
X113044121Y-108136927D01*
X113052915Y-108141408D01*
X113281242Y-108235984D01*
X113290627Y-108239033D01*
X113530940Y-108296728D01*
X113540687Y-108298271D01*
X113787070Y-108317662D01*
X113796930Y-108317662D01*
X114043313Y-108298271D01*
X114053060Y-108296728D01*
X114293373Y-108239033D01*
X114302758Y-108235984D01*
X114531085Y-108141408D01*
X114539879Y-108136927D01*
X114745928Y-108010660D01*
X114749968Y-108004471D01*
X121214884Y-108004471D01*
X121218570Y-108009740D01*
X121426121Y-108136927D01*
X121434915Y-108141408D01*
X121663242Y-108235984D01*
X121672627Y-108239033D01*
X121912940Y-108296728D01*
X121922687Y-108298271D01*
X122169070Y-108317662D01*
X122178930Y-108317662D01*
X122425313Y-108298271D01*
X122435060Y-108296728D01*
X122675373Y-108239033D01*
X122684758Y-108235984D01*
X122913085Y-108141408D01*
X122921879Y-108136927D01*
X123127928Y-108010660D01*
X123131968Y-108004471D01*
X126294884Y-108004471D01*
X126298570Y-108009740D01*
X126506121Y-108136927D01*
X126514915Y-108141408D01*
X126743242Y-108235984D01*
X126752627Y-108239033D01*
X126992940Y-108296728D01*
X127002687Y-108298271D01*
X127249070Y-108317662D01*
X127258930Y-108317662D01*
X127505313Y-108298271D01*
X127515060Y-108296728D01*
X127755373Y-108239033D01*
X127764758Y-108235984D01*
X127993085Y-108141408D01*
X128001879Y-108136927D01*
X128207928Y-108010660D01*
X128213190Y-108002599D01*
X128207183Y-107992393D01*
X127266812Y-107052022D01*
X127252868Y-107044408D01*
X127251035Y-107044539D01*
X127244420Y-107048790D01*
X126302276Y-107990934D01*
X126294884Y-108004471D01*
X123131968Y-108004471D01*
X123133190Y-108002599D01*
X123127183Y-107992393D01*
X122186812Y-107052022D01*
X122172868Y-107044408D01*
X122171035Y-107044539D01*
X122164420Y-107048790D01*
X121222276Y-107990934D01*
X121214884Y-108004471D01*
X114749968Y-108004471D01*
X114751190Y-108002599D01*
X114745183Y-107992393D01*
X113804812Y-107052022D01*
X113790868Y-107044408D01*
X113789035Y-107044539D01*
X113782420Y-107048790D01*
X112840276Y-107990934D01*
X112832884Y-108004471D01*
X109669968Y-108004471D01*
X109671190Y-108002599D01*
X109665183Y-107992393D01*
X108724812Y-107052022D01*
X108710868Y-107044408D01*
X108709035Y-107044539D01*
X108702420Y-107048790D01*
X107760276Y-107990934D01*
X107752884Y-108004471D01*
X106195287Y-108004471D01*
X106198080Y-107998017D01*
X106210135Y-107970160D01*
X106215357Y-107959500D01*
X106231948Y-107929322D01*
X106231949Y-107929319D01*
X106235765Y-107922378D01*
X106237735Y-107914705D01*
X106237737Y-107914700D01*
X106240524Y-107903843D01*
X106246930Y-107885131D01*
X106251383Y-107874841D01*
X106254532Y-107867565D01*
X106261159Y-107825722D01*
X106263566Y-107814098D01*
X106272129Y-107780750D01*
X106274100Y-107773074D01*
X106274100Y-107753936D01*
X106275651Y-107734225D01*
X106275656Y-107734193D01*
X106278646Y-107715316D01*
X106274659Y-107673139D01*
X106274100Y-107661281D01*
X106274100Y-107327004D01*
X106294102Y-107258883D01*
X106347758Y-107212390D01*
X106360223Y-107207481D01*
X106431002Y-107183867D01*
X106431004Y-107183866D01*
X106437946Y-107181550D01*
X106469072Y-107162289D01*
X106582120Y-107092332D01*
X106588348Y-107088478D01*
X106713305Y-106963303D01*
X106801530Y-106820176D01*
X106802275Y-106818968D01*
X106802276Y-106818966D01*
X106806115Y-106812738D01*
X106834743Y-106726427D01*
X106875174Y-106668068D01*
X106940738Y-106640831D01*
X107010620Y-106653365D01*
X107062632Y-106701689D01*
X107079948Y-106756209D01*
X107093729Y-106931313D01*
X107095272Y-106941060D01*
X107152967Y-107181373D01*
X107156016Y-107190758D01*
X107250592Y-107419085D01*
X107255073Y-107427879D01*
X107381340Y-107633928D01*
X107389401Y-107639190D01*
X107399607Y-107633183D01*
X108339978Y-106692812D01*
X108346356Y-106681132D01*
X109076408Y-106681132D01*
X109076539Y-106682965D01*
X109080790Y-106689580D01*
X110022934Y-107631724D01*
X110036471Y-107639116D01*
X110041740Y-107635430D01*
X110168927Y-107427879D01*
X110173408Y-107419085D01*
X110267984Y-107190758D01*
X110271033Y-107181373D01*
X110328728Y-106941060D01*
X110330271Y-106931313D01*
X110349662Y-106684930D01*
X112154338Y-106684930D01*
X112173729Y-106931313D01*
X112175272Y-106941060D01*
X112232967Y-107181373D01*
X112236016Y-107190758D01*
X112330592Y-107419085D01*
X112335073Y-107427879D01*
X112461340Y-107633928D01*
X112469401Y-107639190D01*
X112479607Y-107633183D01*
X113419978Y-106692812D01*
X113426356Y-106681132D01*
X114156408Y-106681132D01*
X114156539Y-106682965D01*
X114160790Y-106689580D01*
X115102934Y-107631724D01*
X115116471Y-107639116D01*
X115121740Y-107635430D01*
X115248927Y-107427879D01*
X115253408Y-107419085D01*
X115347984Y-107190758D01*
X115351033Y-107181373D01*
X115408728Y-106941060D01*
X115410271Y-106931313D01*
X115429662Y-106684930D01*
X120536338Y-106684930D01*
X120555729Y-106931313D01*
X120557272Y-106941060D01*
X120614967Y-107181373D01*
X120618016Y-107190758D01*
X120712592Y-107419085D01*
X120717073Y-107427879D01*
X120843340Y-107633928D01*
X120851401Y-107639190D01*
X120861607Y-107633183D01*
X121801978Y-106692812D01*
X121808356Y-106681132D01*
X122538408Y-106681132D01*
X122538539Y-106682965D01*
X122542790Y-106689580D01*
X123484934Y-107631724D01*
X123498471Y-107639116D01*
X123503740Y-107635430D01*
X123630927Y-107427879D01*
X123635408Y-107419085D01*
X123729984Y-107190758D01*
X123733033Y-107181373D01*
X123790728Y-106941060D01*
X123792271Y-106931313D01*
X123811662Y-106684930D01*
X125616338Y-106684930D01*
X125635729Y-106931313D01*
X125637272Y-106941060D01*
X125694967Y-107181373D01*
X125698016Y-107190758D01*
X125792592Y-107419085D01*
X125797073Y-107427879D01*
X125923340Y-107633928D01*
X125931401Y-107639190D01*
X125941607Y-107633183D01*
X126881978Y-106692812D01*
X126889592Y-106678868D01*
X126889461Y-106677035D01*
X126885210Y-106670420D01*
X125943066Y-105728276D01*
X125929529Y-105720884D01*
X125924260Y-105724570D01*
X125797073Y-105932121D01*
X125792592Y-105940915D01*
X125698016Y-106169242D01*
X125694967Y-106178627D01*
X125637272Y-106418940D01*
X125635729Y-106428687D01*
X125616338Y-106675070D01*
X125616338Y-106684930D01*
X123811662Y-106684930D01*
X123811662Y-106675070D01*
X123792271Y-106428687D01*
X123790728Y-106418940D01*
X123733033Y-106178627D01*
X123729984Y-106169242D01*
X123635408Y-105940915D01*
X123630927Y-105932121D01*
X123504660Y-105726072D01*
X123496599Y-105720810D01*
X123486393Y-105726817D01*
X122546022Y-106667188D01*
X122538408Y-106681132D01*
X121808356Y-106681132D01*
X121809592Y-106678868D01*
X121809461Y-106677035D01*
X121805210Y-106670420D01*
X120863066Y-105728276D01*
X120849529Y-105720884D01*
X120844260Y-105724570D01*
X120717073Y-105932121D01*
X120712592Y-105940915D01*
X120618016Y-106169242D01*
X120614967Y-106178627D01*
X120557272Y-106418940D01*
X120555729Y-106428687D01*
X120536338Y-106675070D01*
X120536338Y-106684930D01*
X115429662Y-106684930D01*
X115429662Y-106675070D01*
X115410271Y-106428687D01*
X115408728Y-106418940D01*
X115351033Y-106178627D01*
X115347984Y-106169242D01*
X115253408Y-105940915D01*
X115248927Y-105932121D01*
X115122660Y-105726072D01*
X115114599Y-105720810D01*
X115104393Y-105726817D01*
X114164022Y-106667188D01*
X114156408Y-106681132D01*
X113426356Y-106681132D01*
X113427592Y-106678868D01*
X113427461Y-106677035D01*
X113423210Y-106670420D01*
X112481066Y-105728276D01*
X112467529Y-105720884D01*
X112462260Y-105724570D01*
X112335073Y-105932121D01*
X112330592Y-105940915D01*
X112236016Y-106169242D01*
X112232967Y-106178627D01*
X112175272Y-106418940D01*
X112173729Y-106428687D01*
X112154338Y-106675070D01*
X112154338Y-106684930D01*
X110349662Y-106684930D01*
X110349662Y-106675070D01*
X110330271Y-106428687D01*
X110328728Y-106418940D01*
X110271033Y-106178627D01*
X110267984Y-106169242D01*
X110173408Y-105940915D01*
X110168927Y-105932121D01*
X110042660Y-105726072D01*
X110034599Y-105720810D01*
X110024393Y-105726817D01*
X109084022Y-106667188D01*
X109076408Y-106681132D01*
X108346356Y-106681132D01*
X108347592Y-106678868D01*
X108347461Y-106677035D01*
X108343210Y-106670420D01*
X107401066Y-105728276D01*
X107387529Y-105720884D01*
X107382260Y-105724570D01*
X107255073Y-105932121D01*
X107250592Y-105940915D01*
X107156016Y-106169242D01*
X107152967Y-106178627D01*
X107121019Y-106311698D01*
X107085667Y-106373267D01*
X107022640Y-106405950D01*
X106951949Y-106399369D01*
X106896038Y-106355615D01*
X106872500Y-106282284D01*
X106872500Y-105739600D01*
X106871174Y-105726817D01*
X106862238Y-105640692D01*
X106862237Y-105640688D01*
X106861526Y-105633834D01*
X106856760Y-105619547D01*
X106807868Y-105473002D01*
X106805550Y-105466054D01*
X106738313Y-105357401D01*
X107752810Y-105357401D01*
X107758817Y-105367607D01*
X108699188Y-106307978D01*
X108713132Y-106315592D01*
X108714965Y-106315461D01*
X108721580Y-106311210D01*
X109663724Y-105369066D01*
X109671116Y-105355529D01*
X109667430Y-105350260D01*
X109459879Y-105223073D01*
X109451085Y-105218592D01*
X109222758Y-105124016D01*
X109213373Y-105120967D01*
X108973060Y-105063272D01*
X108963313Y-105061729D01*
X108716930Y-105042338D01*
X108707070Y-105042338D01*
X108460687Y-105061729D01*
X108450940Y-105063272D01*
X108210627Y-105120967D01*
X108201242Y-105124016D01*
X107972915Y-105218592D01*
X107964121Y-105223073D01*
X107758072Y-105349340D01*
X107752810Y-105357401D01*
X106738313Y-105357401D01*
X106712478Y-105315652D01*
X106625891Y-105229216D01*
X106591812Y-105166934D01*
X106596815Y-105096114D01*
X106625736Y-105051025D01*
X106708134Y-104968483D01*
X106713305Y-104963303D01*
X106806115Y-104812738D01*
X106808225Y-104814038D01*
X106847375Y-104769569D01*
X106914659Y-104750100D01*
X109760672Y-104750100D01*
X109828793Y-104770102D01*
X109877080Y-104827879D01*
X109881416Y-104838347D01*
X110007536Y-105044156D01*
X110164299Y-105227701D01*
X110347844Y-105384464D01*
X110553653Y-105510584D01*
X110558223Y-105512477D01*
X110558227Y-105512479D01*
X110772084Y-105601061D01*
X110776657Y-105602955D01*
X110845767Y-105619547D01*
X111006553Y-105658149D01*
X111006559Y-105658150D01*
X111011366Y-105659304D01*
X111252000Y-105678242D01*
X111492634Y-105659304D01*
X111497441Y-105658150D01*
X111497447Y-105658149D01*
X111658233Y-105619547D01*
X111727343Y-105602955D01*
X111731916Y-105601061D01*
X111945773Y-105512479D01*
X111945777Y-105512477D01*
X111950347Y-105510584D01*
X112156156Y-105384464D01*
X112187843Y-105357401D01*
X112832810Y-105357401D01*
X112838817Y-105367607D01*
X113779188Y-106307978D01*
X113793132Y-106315592D01*
X113794965Y-106315461D01*
X113801580Y-106311210D01*
X114743724Y-105369066D01*
X114750094Y-105357401D01*
X121214810Y-105357401D01*
X121220817Y-105367607D01*
X122161188Y-106307978D01*
X122175132Y-106315592D01*
X122176965Y-106315461D01*
X122183580Y-106311210D01*
X123125724Y-105369066D01*
X123133116Y-105355529D01*
X123129430Y-105350260D01*
X122921879Y-105223073D01*
X122913085Y-105218592D01*
X122684758Y-105124016D01*
X122675373Y-105120967D01*
X122435060Y-105063272D01*
X122425313Y-105061729D01*
X122178930Y-105042338D01*
X122169070Y-105042338D01*
X121922687Y-105061729D01*
X121912940Y-105063272D01*
X121672627Y-105120967D01*
X121663242Y-105124016D01*
X121434915Y-105218592D01*
X121426121Y-105223073D01*
X121220072Y-105349340D01*
X121214810Y-105357401D01*
X114750094Y-105357401D01*
X114751116Y-105355529D01*
X114747430Y-105350260D01*
X114539879Y-105223073D01*
X114531085Y-105218592D01*
X114302758Y-105124016D01*
X114293373Y-105120967D01*
X114053060Y-105063272D01*
X114043313Y-105061729D01*
X113796930Y-105042338D01*
X113787070Y-105042338D01*
X113540687Y-105061729D01*
X113530940Y-105063272D01*
X113290627Y-105120967D01*
X113281242Y-105124016D01*
X113052915Y-105218592D01*
X113044121Y-105223073D01*
X112838072Y-105349340D01*
X112832810Y-105357401D01*
X112187843Y-105357401D01*
X112339701Y-105227701D01*
X112496464Y-105044156D01*
X112622584Y-104838347D01*
X112628386Y-104824341D01*
X112713061Y-104619916D01*
X112713062Y-104619914D01*
X112714955Y-104615343D01*
X112737086Y-104523163D01*
X112770149Y-104385447D01*
X112770150Y-104385441D01*
X112771304Y-104380634D01*
X112790242Y-104140000D01*
X112771304Y-103899366D01*
X112770150Y-103894559D01*
X112770149Y-103894553D01*
X112716110Y-103669469D01*
X112714955Y-103664657D01*
X112649818Y-103507401D01*
X112624479Y-103446227D01*
X112624477Y-103446223D01*
X112622584Y-103441653D01*
X112496464Y-103235844D01*
X112339701Y-103052299D01*
X112190034Y-102924471D01*
X112832884Y-102924471D01*
X112836570Y-102929740D01*
X113044121Y-103056927D01*
X113052915Y-103061408D01*
X113281242Y-103155984D01*
X113290627Y-103159033D01*
X113530940Y-103216728D01*
X113540687Y-103218271D01*
X113787070Y-103237662D01*
X113796930Y-103237662D01*
X114043313Y-103218271D01*
X114053060Y-103216728D01*
X114293373Y-103159033D01*
X114302758Y-103155984D01*
X114531085Y-103061408D01*
X114539879Y-103056927D01*
X114745928Y-102930660D01*
X114749968Y-102924471D01*
X121214884Y-102924471D01*
X121218570Y-102929740D01*
X121426121Y-103056927D01*
X121434915Y-103061408D01*
X121663242Y-103155984D01*
X121672627Y-103159033D01*
X121912940Y-103216728D01*
X121922687Y-103218271D01*
X122169070Y-103237662D01*
X122178930Y-103237662D01*
X122425313Y-103218271D01*
X122435060Y-103216728D01*
X122675373Y-103159033D01*
X122684758Y-103155984D01*
X122913085Y-103061408D01*
X122921879Y-103056927D01*
X123127928Y-102930660D01*
X123133190Y-102922599D01*
X123127183Y-102912393D01*
X122186812Y-101972022D01*
X122172868Y-101964408D01*
X122171035Y-101964539D01*
X122164420Y-101968790D01*
X121222276Y-102910934D01*
X121214884Y-102924471D01*
X114749968Y-102924471D01*
X114751190Y-102922599D01*
X114745183Y-102912393D01*
X113804812Y-101972022D01*
X113790868Y-101964408D01*
X113789035Y-101964539D01*
X113782420Y-101968790D01*
X112840276Y-102910934D01*
X112832884Y-102924471D01*
X112190034Y-102924471D01*
X112156156Y-102895536D01*
X111950347Y-102769416D01*
X111945777Y-102767523D01*
X111945773Y-102767521D01*
X111731916Y-102678939D01*
X111731914Y-102678938D01*
X111727343Y-102677045D01*
X111644961Y-102657267D01*
X111497447Y-102621851D01*
X111497441Y-102621850D01*
X111492634Y-102620696D01*
X111252000Y-102601758D01*
X111011366Y-102620696D01*
X111006559Y-102621850D01*
X111006553Y-102621851D01*
X110859039Y-102657267D01*
X110776657Y-102677045D01*
X110772086Y-102678938D01*
X110772084Y-102678939D01*
X110558227Y-102767521D01*
X110558223Y-102767523D01*
X110553653Y-102769416D01*
X110347844Y-102895536D01*
X110164299Y-103052299D01*
X110007536Y-103235844D01*
X109881416Y-103441653D01*
X109877358Y-103451451D01*
X109877080Y-103452121D01*
X109832530Y-103507401D01*
X109760672Y-103529900D01*
X106914638Y-103529900D01*
X106846517Y-103509898D01*
X106807236Y-103465011D01*
X106805550Y-103466054D01*
X106716332Y-103321880D01*
X106712478Y-103315652D01*
X106587303Y-103190695D01*
X106530992Y-103155984D01*
X106442968Y-103101725D01*
X106442966Y-103101724D01*
X106436738Y-103097885D01*
X106276254Y-103044655D01*
X106275389Y-103044368D01*
X106275387Y-103044368D01*
X106268861Y-103042203D01*
X106262025Y-103041503D01*
X106262022Y-103041502D01*
X106218969Y-103037091D01*
X106164400Y-103031500D01*
X105163600Y-103031500D01*
X105160354Y-103031837D01*
X105160350Y-103031837D01*
X105064692Y-103041762D01*
X105064688Y-103041763D01*
X105057834Y-103042474D01*
X105051298Y-103044655D01*
X105051296Y-103044655D01*
X105014513Y-103056927D01*
X104890054Y-103098450D01*
X104739652Y-103191522D01*
X104614695Y-103316697D01*
X104613805Y-103315809D01*
X104561961Y-103352568D01*
X104491038Y-103355801D01*
X104429626Y-103320178D01*
X104428417Y-103318786D01*
X104426478Y-103315652D01*
X104301303Y-103190695D01*
X104244992Y-103155984D01*
X104156968Y-103101725D01*
X104156966Y-103101724D01*
X104150738Y-103097885D01*
X103990254Y-103044655D01*
X103989389Y-103044368D01*
X103989387Y-103044368D01*
X103982861Y-103042203D01*
X103976025Y-103041503D01*
X103976022Y-103041502D01*
X103932969Y-103037091D01*
X103878400Y-103031500D01*
X102877600Y-103031500D01*
X102874354Y-103031837D01*
X102874350Y-103031837D01*
X102778692Y-103041762D01*
X102778688Y-103041763D01*
X102771834Y-103042474D01*
X102765298Y-103044655D01*
X102765296Y-103044655D01*
X102728513Y-103056927D01*
X102604054Y-103098450D01*
X102453652Y-103191522D01*
X102328695Y-103316697D01*
X102235885Y-103467262D01*
X102233775Y-103465962D01*
X102194625Y-103510431D01*
X102127341Y-103529900D01*
X99281328Y-103529900D01*
X99213207Y-103509898D01*
X99164920Y-103452121D01*
X99164642Y-103451451D01*
X99160584Y-103441653D01*
X99034464Y-103235844D01*
X98877701Y-103052299D01*
X98728034Y-102924471D01*
X99370884Y-102924471D01*
X99374570Y-102929740D01*
X99582121Y-103056927D01*
X99590915Y-103061408D01*
X99819242Y-103155984D01*
X99828627Y-103159033D01*
X100068940Y-103216728D01*
X100078687Y-103218271D01*
X100325070Y-103237662D01*
X100334930Y-103237662D01*
X100581313Y-103218271D01*
X100591060Y-103216728D01*
X100831373Y-103159033D01*
X100840758Y-103155984D01*
X101069085Y-103061408D01*
X101077879Y-103056927D01*
X101283928Y-102930660D01*
X101287968Y-102924471D01*
X107752884Y-102924471D01*
X107756570Y-102929740D01*
X107964121Y-103056927D01*
X107972915Y-103061408D01*
X108201242Y-103155984D01*
X108210627Y-103159033D01*
X108450940Y-103216728D01*
X108460687Y-103218271D01*
X108707070Y-103237662D01*
X108716930Y-103237662D01*
X108963313Y-103218271D01*
X108973060Y-103216728D01*
X109213373Y-103159033D01*
X109222758Y-103155984D01*
X109451085Y-103061408D01*
X109459879Y-103056927D01*
X109665928Y-102930660D01*
X109671190Y-102922599D01*
X109665183Y-102912393D01*
X108724812Y-101972022D01*
X108710868Y-101964408D01*
X108709035Y-101964539D01*
X108702420Y-101968790D01*
X107760276Y-102910934D01*
X107752884Y-102924471D01*
X101287968Y-102924471D01*
X101289190Y-102922599D01*
X101283183Y-102912393D01*
X100342812Y-101972022D01*
X100328868Y-101964408D01*
X100327035Y-101964539D01*
X100320420Y-101968790D01*
X99378276Y-102910934D01*
X99370884Y-102924471D01*
X98728034Y-102924471D01*
X98694156Y-102895536D01*
X98488347Y-102769416D01*
X98483777Y-102767523D01*
X98483773Y-102767521D01*
X98269916Y-102678939D01*
X98269914Y-102678938D01*
X98265343Y-102677045D01*
X98182961Y-102657267D01*
X98035447Y-102621851D01*
X98035441Y-102621850D01*
X98030634Y-102620696D01*
X97790000Y-102601758D01*
X97549366Y-102620696D01*
X97544559Y-102621850D01*
X97544553Y-102621851D01*
X97397039Y-102657267D01*
X97314657Y-102677045D01*
X97310086Y-102678938D01*
X97310084Y-102678939D01*
X97096227Y-102767521D01*
X97096223Y-102767523D01*
X97091653Y-102769416D01*
X96885844Y-102895536D01*
X96702299Y-103052299D01*
X96545536Y-103235844D01*
X96419416Y-103441653D01*
X96417523Y-103446223D01*
X96417521Y-103446227D01*
X96392182Y-103507401D01*
X96327045Y-103664657D01*
X96325890Y-103669469D01*
X96271851Y-103894553D01*
X96271850Y-103894559D01*
X96270696Y-103899366D01*
X96251758Y-104140000D01*
X96270696Y-104380634D01*
X96271850Y-104385441D01*
X96271851Y-104385447D01*
X96304914Y-104523163D01*
X96327045Y-104615343D01*
X96328938Y-104619914D01*
X96328939Y-104619916D01*
X96413615Y-104824341D01*
X96419416Y-104838347D01*
X96545536Y-105044156D01*
X96702299Y-105227701D01*
X96885844Y-105384464D01*
X97091653Y-105510584D01*
X97096223Y-105512477D01*
X97096227Y-105512479D01*
X97310084Y-105601061D01*
X97314657Y-105602955D01*
X97383767Y-105619547D01*
X97544553Y-105658149D01*
X97544559Y-105658150D01*
X97549366Y-105659304D01*
X97790000Y-105678242D01*
X98030634Y-105659304D01*
X98035441Y-105658150D01*
X98035447Y-105658149D01*
X98196233Y-105619547D01*
X98265343Y-105602955D01*
X98269916Y-105601061D01*
X98483773Y-105512479D01*
X98483777Y-105512477D01*
X98488347Y-105510584D01*
X98694156Y-105384464D01*
X98725843Y-105357401D01*
X99370810Y-105357401D01*
X99376817Y-105367607D01*
X100317188Y-106307978D01*
X100331132Y-106315592D01*
X100332965Y-106315461D01*
X100339580Y-106311210D01*
X101281724Y-105369066D01*
X101289116Y-105355529D01*
X101285430Y-105350260D01*
X101077879Y-105223073D01*
X101069085Y-105218592D01*
X100840758Y-105124016D01*
X100831373Y-105120967D01*
X100591060Y-105063272D01*
X100581313Y-105061729D01*
X100334930Y-105042338D01*
X100325070Y-105042338D01*
X100078687Y-105061729D01*
X100068940Y-105063272D01*
X99828627Y-105120967D01*
X99819242Y-105124016D01*
X99590915Y-105218592D01*
X99582121Y-105223073D01*
X99376072Y-105349340D01*
X99370810Y-105357401D01*
X98725843Y-105357401D01*
X98877701Y-105227701D01*
X99034464Y-105044156D01*
X99160584Y-104838347D01*
X99164920Y-104827879D01*
X99209470Y-104772599D01*
X99281328Y-104750100D01*
X102127362Y-104750100D01*
X102195483Y-104770102D01*
X102234764Y-104814989D01*
X102236450Y-104813946D01*
X102329522Y-104964348D01*
X102334702Y-104969519D01*
X102334704Y-104969521D01*
X102416109Y-105050784D01*
X102450188Y-105113066D01*
X102445185Y-105183886D01*
X102416264Y-105228975D01*
X102340940Y-105304431D01*
X102328695Y-105316697D01*
X102324855Y-105322927D01*
X102324854Y-105322928D01*
X102286923Y-105384464D01*
X102235885Y-105467262D01*
X102233581Y-105474209D01*
X102185375Y-105619547D01*
X102180203Y-105635139D01*
X102169500Y-105739600D01*
X102169500Y-106282284D01*
X102149498Y-106350405D01*
X102095842Y-106396898D01*
X102025568Y-106407002D01*
X101960988Y-106377508D01*
X101920981Y-106311698D01*
X101889033Y-106178627D01*
X101885984Y-106169242D01*
X101791408Y-105940915D01*
X101786927Y-105932121D01*
X101660660Y-105726072D01*
X101652599Y-105720810D01*
X101642393Y-105726817D01*
X100702022Y-106667188D01*
X100694408Y-106681132D01*
X100694539Y-106682965D01*
X100698790Y-106689580D01*
X101640934Y-107631724D01*
X101654471Y-107639116D01*
X101659740Y-107635430D01*
X101786927Y-107427879D01*
X101791408Y-107419085D01*
X101885984Y-107190758D01*
X101889033Y-107181373D01*
X101946728Y-106941060D01*
X101948271Y-106931313D01*
X101962051Y-106756224D01*
X101987336Y-106689883D01*
X102044474Y-106647743D01*
X102115325Y-106643184D01*
X102177392Y-106677653D01*
X102207187Y-106726234D01*
X102236450Y-106813946D01*
X102329522Y-106964348D01*
X102454697Y-107089305D01*
X102605262Y-107182115D01*
X102667034Y-107202603D01*
X102681567Y-107207424D01*
X102739927Y-107247854D01*
X102767164Y-107313418D01*
X102767900Y-107327017D01*
X102767900Y-107645098D01*
X102747898Y-107713219D01*
X102730995Y-107734193D01*
X101638193Y-108826995D01*
X101575881Y-108861021D01*
X101549098Y-108863900D01*
X94284902Y-108863900D01*
X94216781Y-108843898D01*
X94195807Y-108826995D01*
X93373283Y-108004471D01*
X94290884Y-108004471D01*
X94294570Y-108009740D01*
X94502121Y-108136927D01*
X94510915Y-108141408D01*
X94739242Y-108235984D01*
X94748627Y-108239033D01*
X94988940Y-108296728D01*
X94998687Y-108298271D01*
X95245070Y-108317662D01*
X95254930Y-108317662D01*
X95501313Y-108298271D01*
X95511060Y-108296728D01*
X95751373Y-108239033D01*
X95760758Y-108235984D01*
X95989085Y-108141408D01*
X95997879Y-108136927D01*
X96203928Y-108010660D01*
X96207968Y-108004471D01*
X99370884Y-108004471D01*
X99374570Y-108009740D01*
X99582121Y-108136927D01*
X99590915Y-108141408D01*
X99819242Y-108235984D01*
X99828627Y-108239033D01*
X100068940Y-108296728D01*
X100078687Y-108298271D01*
X100325070Y-108317662D01*
X100334930Y-108317662D01*
X100581313Y-108298271D01*
X100591060Y-108296728D01*
X100831373Y-108239033D01*
X100840758Y-108235984D01*
X101069085Y-108141408D01*
X101077879Y-108136927D01*
X101283928Y-108010660D01*
X101289190Y-108002599D01*
X101283183Y-107992393D01*
X100342812Y-107052022D01*
X100328868Y-107044408D01*
X100327035Y-107044539D01*
X100320420Y-107048790D01*
X99378276Y-107990934D01*
X99370884Y-108004471D01*
X96207968Y-108004471D01*
X96209190Y-108002599D01*
X96203183Y-107992393D01*
X95262812Y-107052022D01*
X95248868Y-107044408D01*
X95247035Y-107044539D01*
X95240420Y-107048790D01*
X94298276Y-107990934D01*
X94290884Y-108004471D01*
X93373283Y-108004471D01*
X92053742Y-106684930D01*
X93612338Y-106684930D01*
X93631729Y-106931313D01*
X93633272Y-106941060D01*
X93690967Y-107181373D01*
X93694016Y-107190758D01*
X93788592Y-107419085D01*
X93793073Y-107427879D01*
X93919340Y-107633928D01*
X93927401Y-107639190D01*
X93937607Y-107633183D01*
X94877978Y-106692812D01*
X94884356Y-106681132D01*
X95614408Y-106681132D01*
X95614539Y-106682965D01*
X95618790Y-106689580D01*
X96560934Y-107631724D01*
X96574471Y-107639116D01*
X96579740Y-107635430D01*
X96706927Y-107427879D01*
X96711408Y-107419085D01*
X96805984Y-107190758D01*
X96809033Y-107181373D01*
X96866728Y-106941060D01*
X96868271Y-106931313D01*
X96887662Y-106684930D01*
X98692338Y-106684930D01*
X98711729Y-106931313D01*
X98713272Y-106941060D01*
X98770967Y-107181373D01*
X98774016Y-107190758D01*
X98868592Y-107419085D01*
X98873073Y-107427879D01*
X98999340Y-107633928D01*
X99007401Y-107639190D01*
X99017607Y-107633183D01*
X99957978Y-106692812D01*
X99965592Y-106678868D01*
X99965461Y-106677035D01*
X99961210Y-106670420D01*
X99019066Y-105728276D01*
X99005529Y-105720884D01*
X99000260Y-105724570D01*
X98873073Y-105932121D01*
X98868592Y-105940915D01*
X98774016Y-106169242D01*
X98770967Y-106178627D01*
X98713272Y-106418940D01*
X98711729Y-106428687D01*
X98692338Y-106675070D01*
X98692338Y-106684930D01*
X96887662Y-106684930D01*
X96887662Y-106675070D01*
X96868271Y-106428687D01*
X96866728Y-106418940D01*
X96809033Y-106178627D01*
X96805984Y-106169242D01*
X96711408Y-105940915D01*
X96706927Y-105932121D01*
X96580660Y-105726072D01*
X96572599Y-105720810D01*
X96562393Y-105726817D01*
X95622022Y-106667188D01*
X95614408Y-106681132D01*
X94884356Y-106681132D01*
X94885592Y-106678868D01*
X94885461Y-106677035D01*
X94881210Y-106670420D01*
X93939066Y-105728276D01*
X93925529Y-105720884D01*
X93920260Y-105724570D01*
X93793073Y-105932121D01*
X93788592Y-105940915D01*
X93694016Y-106169242D01*
X93690967Y-106178627D01*
X93633272Y-106418940D01*
X93631729Y-106428687D01*
X93612338Y-106675070D01*
X93612338Y-106684930D01*
X92053742Y-106684930D01*
X90726213Y-105357401D01*
X94290810Y-105357401D01*
X94296817Y-105367607D01*
X95237188Y-106307978D01*
X95251132Y-106315592D01*
X95252965Y-106315461D01*
X95259580Y-106311210D01*
X96201724Y-105369066D01*
X96209116Y-105355529D01*
X96205430Y-105350260D01*
X95997879Y-105223073D01*
X95989085Y-105218592D01*
X95760758Y-105124016D01*
X95751373Y-105120967D01*
X95511060Y-105063272D01*
X95501313Y-105061729D01*
X95254930Y-105042338D01*
X95245070Y-105042338D01*
X94998687Y-105061729D01*
X94988940Y-105063272D01*
X94748627Y-105120967D01*
X94739242Y-105124016D01*
X94510915Y-105218592D01*
X94502121Y-105223073D01*
X94296072Y-105349340D01*
X94290810Y-105357401D01*
X90726213Y-105357401D01*
X90425920Y-105057108D01*
X90418810Y-105049295D01*
X90414826Y-105043017D01*
X90367069Y-104998170D01*
X90364227Y-104995415D01*
X90345265Y-104976453D01*
X90342138Y-104974027D01*
X90341497Y-104973462D01*
X90333337Y-104966493D01*
X90326007Y-104959610D01*
X90302458Y-104937496D01*
X90285681Y-104928272D01*
X90269168Y-104917425D01*
X90260302Y-104910548D01*
X90260297Y-104910545D01*
X90254034Y-104905687D01*
X90215150Y-104888861D01*
X90204505Y-104883646D01*
X90167378Y-104863235D01*
X90148838Y-104858475D01*
X90130141Y-104852074D01*
X90112565Y-104844468D01*
X90070722Y-104837841D01*
X90059103Y-104835435D01*
X90018074Y-104824900D01*
X89998936Y-104824900D01*
X89979225Y-104823349D01*
X89960316Y-104820354D01*
X89947199Y-104821594D01*
X89918139Y-104824341D01*
X89906281Y-104824900D01*
X84054500Y-104824900D01*
X83986379Y-104804898D01*
X83939886Y-104751242D01*
X83928500Y-104698900D01*
X83928500Y-104536866D01*
X83921745Y-104474684D01*
X83870615Y-104338295D01*
X83783261Y-104221739D01*
X83666705Y-104134385D01*
X83530316Y-104083255D01*
X83468134Y-104076500D01*
X81671866Y-104076500D01*
X81609684Y-104083255D01*
X81473295Y-104134385D01*
X81356739Y-104221739D01*
X81269385Y-104338295D01*
X81266233Y-104346703D01*
X81224919Y-104456907D01*
X81182277Y-104513671D01*
X81115716Y-104538371D01*
X81046367Y-104523163D01*
X81013743Y-104497476D01*
X80963151Y-104441875D01*
X80963142Y-104441866D01*
X80959670Y-104438051D01*
X80955619Y-104434852D01*
X80955615Y-104434848D01*
X80788414Y-104302800D01*
X80788410Y-104302798D01*
X80784359Y-104299598D01*
X80588789Y-104191638D01*
X80583920Y-104189914D01*
X80583916Y-104189912D01*
X80383087Y-104118795D01*
X80383083Y-104118794D01*
X80378212Y-104117069D01*
X80373119Y-104116162D01*
X80373116Y-104116161D01*
X80163373Y-104078800D01*
X80163367Y-104078799D01*
X80158284Y-104077894D01*
X80084452Y-104076992D01*
X79940081Y-104075228D01*
X79940079Y-104075228D01*
X79934911Y-104075165D01*
X79714091Y-104108955D01*
X79501756Y-104178357D01*
X79303607Y-104281507D01*
X79299474Y-104284610D01*
X79299471Y-104284612D01*
X79129100Y-104412530D01*
X79124965Y-104415635D01*
X79085525Y-104456907D01*
X79031280Y-104513671D01*
X78970629Y-104577138D01*
X78844743Y-104761680D01*
X78814015Y-104827879D01*
X78764905Y-104933678D01*
X78750688Y-104964305D01*
X78690989Y-105179570D01*
X78667251Y-105401695D01*
X78667548Y-105406848D01*
X78667548Y-105406851D01*
X78678746Y-105601061D01*
X78680110Y-105624715D01*
X78681247Y-105629761D01*
X78681248Y-105629767D01*
X78692173Y-105678242D01*
X78729222Y-105842639D01*
X78813266Y-106049616D01*
X78929987Y-106240088D01*
X79076250Y-106408938D01*
X79248126Y-106551632D01*
X79318595Y-106592811D01*
X79321445Y-106594476D01*
X79370169Y-106646114D01*
X79383240Y-106715897D01*
X79356509Y-106781669D01*
X79316055Y-106815027D01*
X79303607Y-106821507D01*
X79299474Y-106824610D01*
X79299471Y-106824612D01*
X79144377Y-106941060D01*
X79124965Y-106955635D01*
X78970629Y-107117138D01*
X78967715Y-107121410D01*
X78967714Y-107121411D01*
X78920409Y-107190758D01*
X78844743Y-107301680D01*
X78809822Y-107376912D01*
X78757320Y-107490018D01*
X78750688Y-107504305D01*
X78690989Y-107719570D01*
X78667251Y-107941695D01*
X78667548Y-107946848D01*
X78667548Y-107946851D01*
X78672174Y-108027074D01*
X78680110Y-108164715D01*
X78681247Y-108169761D01*
X78681248Y-108169767D01*
X78702267Y-108263034D01*
X78729222Y-108382639D01*
X78813266Y-108589616D01*
X78929987Y-108780088D01*
X79076250Y-108948938D01*
X79248126Y-109091632D01*
X79318595Y-109132811D01*
X79321445Y-109134476D01*
X79370169Y-109186114D01*
X79383240Y-109255897D01*
X79356509Y-109321669D01*
X79316055Y-109355027D01*
X79303607Y-109361507D01*
X79299474Y-109364610D01*
X79299471Y-109364612D01*
X79129100Y-109492530D01*
X79124965Y-109495635D01*
X78970629Y-109657138D01*
X78844743Y-109841680D01*
X78750688Y-110044305D01*
X78690989Y-110259570D01*
X78667251Y-110481695D01*
X78667548Y-110486848D01*
X78667548Y-110486851D01*
X78679812Y-110699547D01*
X78680110Y-110704715D01*
X78681247Y-110709761D01*
X78681248Y-110709767D01*
X78698780Y-110787558D01*
X78729222Y-110922639D01*
X78813266Y-111129616D01*
X78929987Y-111320088D01*
X79076250Y-111488938D01*
X79248126Y-111631632D01*
X79318595Y-111672811D01*
X79321445Y-111674476D01*
X79370169Y-111726114D01*
X79383240Y-111795897D01*
X79356509Y-111861669D01*
X79316055Y-111895027D01*
X79303607Y-111901507D01*
X79299474Y-111904610D01*
X79299471Y-111904612D01*
X79129100Y-112032530D01*
X79124965Y-112035635D01*
X78970629Y-112197138D01*
X78844743Y-112381680D01*
X78750688Y-112584305D01*
X78690989Y-112799570D01*
X78667251Y-113021695D01*
X76962000Y-113021695D01*
X76962000Y-102924471D01*
X94290884Y-102924471D01*
X94294570Y-102929740D01*
X94502121Y-103056927D01*
X94510915Y-103061408D01*
X94739242Y-103155984D01*
X94748627Y-103159033D01*
X94988940Y-103216728D01*
X94998687Y-103218271D01*
X95245070Y-103237662D01*
X95254930Y-103237662D01*
X95501313Y-103218271D01*
X95511060Y-103216728D01*
X95751373Y-103159033D01*
X95760758Y-103155984D01*
X95989085Y-103061408D01*
X95997879Y-103056927D01*
X96203928Y-102930660D01*
X96209190Y-102922599D01*
X96203183Y-102912393D01*
X95262812Y-101972022D01*
X95248868Y-101964408D01*
X95247035Y-101964539D01*
X95240420Y-101968790D01*
X94298276Y-102910934D01*
X94290884Y-102924471D01*
X76962000Y-102924471D01*
X76962000Y-101604930D01*
X93612338Y-101604930D01*
X93631729Y-101851313D01*
X93633272Y-101861060D01*
X93690967Y-102101373D01*
X93694016Y-102110758D01*
X93788592Y-102339085D01*
X93793073Y-102347879D01*
X93919340Y-102553928D01*
X93927401Y-102559190D01*
X93937607Y-102553183D01*
X94877978Y-101612812D01*
X94884356Y-101601132D01*
X95614408Y-101601132D01*
X95614539Y-101602965D01*
X95618790Y-101609580D01*
X96560934Y-102551724D01*
X96574471Y-102559116D01*
X96579740Y-102555430D01*
X96706927Y-102347879D01*
X96711408Y-102339085D01*
X96805984Y-102110758D01*
X96809033Y-102101373D01*
X96866728Y-101861060D01*
X96868271Y-101851313D01*
X96887662Y-101604930D01*
X98692338Y-101604930D01*
X98711729Y-101851313D01*
X98713272Y-101861060D01*
X98770967Y-102101373D01*
X98774016Y-102110758D01*
X98868592Y-102339085D01*
X98873073Y-102347879D01*
X98999340Y-102553928D01*
X99007401Y-102559190D01*
X99017607Y-102553183D01*
X99957978Y-101612812D01*
X99964356Y-101601132D01*
X100694408Y-101601132D01*
X100694539Y-101602965D01*
X100698790Y-101609580D01*
X101640934Y-102551724D01*
X101654471Y-102559116D01*
X101659740Y-102555430D01*
X101786927Y-102347879D01*
X101791408Y-102339085D01*
X101885984Y-102110758D01*
X101889033Y-102101373D01*
X101946728Y-101861060D01*
X101948271Y-101851313D01*
X101967662Y-101604930D01*
X107074338Y-101604930D01*
X107093729Y-101851313D01*
X107095272Y-101861060D01*
X107152967Y-102101373D01*
X107156016Y-102110758D01*
X107250592Y-102339085D01*
X107255073Y-102347879D01*
X107381340Y-102553928D01*
X107389401Y-102559190D01*
X107399607Y-102553183D01*
X108339978Y-101612812D01*
X108346356Y-101601132D01*
X109076408Y-101601132D01*
X109076539Y-101602965D01*
X109080790Y-101609580D01*
X110022934Y-102551724D01*
X110036471Y-102559116D01*
X110041740Y-102555430D01*
X110168927Y-102347879D01*
X110173408Y-102339085D01*
X110267984Y-102110758D01*
X110271033Y-102101373D01*
X110328728Y-101861060D01*
X110330271Y-101851313D01*
X110349662Y-101604930D01*
X112154338Y-101604930D01*
X112173729Y-101851313D01*
X112175272Y-101861060D01*
X112232967Y-102101373D01*
X112236016Y-102110758D01*
X112330592Y-102339085D01*
X112335073Y-102347879D01*
X112461340Y-102553928D01*
X112469401Y-102559190D01*
X112479607Y-102553183D01*
X113419978Y-101612812D01*
X113426356Y-101601132D01*
X114156408Y-101601132D01*
X114156539Y-101602965D01*
X114160790Y-101609580D01*
X115102934Y-102551724D01*
X115116471Y-102559116D01*
X115121740Y-102555430D01*
X115248927Y-102347879D01*
X115253408Y-102339085D01*
X115347984Y-102110758D01*
X115351033Y-102101373D01*
X115408728Y-101861060D01*
X115410271Y-101851313D01*
X115429662Y-101604930D01*
X120536338Y-101604930D01*
X120555729Y-101851313D01*
X120557272Y-101861060D01*
X120614967Y-102101373D01*
X120618016Y-102110758D01*
X120712592Y-102339085D01*
X120717073Y-102347879D01*
X120843340Y-102553928D01*
X120851401Y-102559190D01*
X120861607Y-102553183D01*
X121801978Y-101612812D01*
X121808356Y-101601132D01*
X122538408Y-101601132D01*
X122538539Y-101602965D01*
X122542790Y-101609580D01*
X123484934Y-102551724D01*
X123498471Y-102559116D01*
X123503740Y-102555430D01*
X123630927Y-102347879D01*
X123635408Y-102339085D01*
X123729984Y-102110758D01*
X123733033Y-102101373D01*
X123790728Y-101861060D01*
X123792271Y-101851313D01*
X123811662Y-101604930D01*
X125616338Y-101604930D01*
X125635729Y-101851313D01*
X125637272Y-101861060D01*
X125694967Y-102101373D01*
X125698016Y-102110758D01*
X125792592Y-102339085D01*
X125797073Y-102347879D01*
X125923340Y-102553928D01*
X125931401Y-102559190D01*
X125941607Y-102553183D01*
X126881978Y-101612812D01*
X126888356Y-101601132D01*
X127618408Y-101601132D01*
X127618539Y-101602965D01*
X127622790Y-101609580D01*
X128564934Y-102551724D01*
X128578471Y-102559116D01*
X128583740Y-102555430D01*
X128710927Y-102347879D01*
X128715408Y-102339085D01*
X128809984Y-102110758D01*
X128813033Y-102101373D01*
X128870728Y-101861060D01*
X128872271Y-101851313D01*
X128891662Y-101604930D01*
X133998338Y-101604930D01*
X134017729Y-101851313D01*
X134019272Y-101861060D01*
X134076967Y-102101373D01*
X134080016Y-102110758D01*
X134174592Y-102339085D01*
X134179073Y-102347879D01*
X134305340Y-102553928D01*
X134313401Y-102559190D01*
X134323607Y-102553183D01*
X135263978Y-101612812D01*
X135270356Y-101601132D01*
X136000408Y-101601132D01*
X136000539Y-101602965D01*
X136004790Y-101609580D01*
X136946934Y-102551724D01*
X136960471Y-102559116D01*
X136965740Y-102555430D01*
X137092927Y-102347879D01*
X137097408Y-102339085D01*
X137191984Y-102110758D01*
X137195033Y-102101373D01*
X137252728Y-101861060D01*
X137254271Y-101851313D01*
X137273662Y-101604930D01*
X139078338Y-101604930D01*
X139097729Y-101851313D01*
X139099272Y-101861060D01*
X139156967Y-102101373D01*
X139160016Y-102110758D01*
X139254592Y-102339085D01*
X139259073Y-102347879D01*
X139385340Y-102553928D01*
X139393401Y-102559190D01*
X139403607Y-102553183D01*
X140343978Y-101612812D01*
X140351592Y-101598868D01*
X140351461Y-101597035D01*
X140347210Y-101590420D01*
X139405066Y-100648276D01*
X139391529Y-100640884D01*
X139386260Y-100644570D01*
X139259073Y-100852121D01*
X139254592Y-100860915D01*
X139160016Y-101089242D01*
X139156967Y-101098627D01*
X139099272Y-101338940D01*
X139097729Y-101348687D01*
X139078338Y-101595070D01*
X139078338Y-101604930D01*
X137273662Y-101604930D01*
X137273662Y-101595070D01*
X137254271Y-101348687D01*
X137252728Y-101338940D01*
X137195033Y-101098627D01*
X137191984Y-101089242D01*
X137097408Y-100860915D01*
X137092927Y-100852121D01*
X136966660Y-100646072D01*
X136958599Y-100640810D01*
X136948393Y-100646817D01*
X136008022Y-101587188D01*
X136000408Y-101601132D01*
X135270356Y-101601132D01*
X135271592Y-101598868D01*
X135271461Y-101597035D01*
X135267210Y-101590420D01*
X134325066Y-100648276D01*
X134311529Y-100640884D01*
X134306260Y-100644570D01*
X134179073Y-100852121D01*
X134174592Y-100860915D01*
X134080016Y-101089242D01*
X134076967Y-101098627D01*
X134019272Y-101338940D01*
X134017729Y-101348687D01*
X133998338Y-101595070D01*
X133998338Y-101604930D01*
X128891662Y-101604930D01*
X128891662Y-101595070D01*
X128872271Y-101348687D01*
X128870728Y-101338940D01*
X128813033Y-101098627D01*
X128809984Y-101089242D01*
X128715408Y-100860915D01*
X128710927Y-100852121D01*
X128584660Y-100646072D01*
X128576599Y-100640810D01*
X128566393Y-100646817D01*
X127626022Y-101587188D01*
X127618408Y-101601132D01*
X126888356Y-101601132D01*
X126889592Y-101598868D01*
X126889461Y-101597035D01*
X126885210Y-101590420D01*
X125943066Y-100648276D01*
X125929529Y-100640884D01*
X125924260Y-100644570D01*
X125797073Y-100852121D01*
X125792592Y-100860915D01*
X125698016Y-101089242D01*
X125694967Y-101098627D01*
X125637272Y-101338940D01*
X125635729Y-101348687D01*
X125616338Y-101595070D01*
X125616338Y-101604930D01*
X123811662Y-101604930D01*
X123811662Y-101595070D01*
X123792271Y-101348687D01*
X123790728Y-101338940D01*
X123733033Y-101098627D01*
X123729984Y-101089242D01*
X123635408Y-100860915D01*
X123630927Y-100852121D01*
X123504660Y-100646072D01*
X123496599Y-100640810D01*
X123486393Y-100646817D01*
X122546022Y-101587188D01*
X122538408Y-101601132D01*
X121808356Y-101601132D01*
X121809592Y-101598868D01*
X121809461Y-101597035D01*
X121805210Y-101590420D01*
X120863066Y-100648276D01*
X120849529Y-100640884D01*
X120844260Y-100644570D01*
X120717073Y-100852121D01*
X120712592Y-100860915D01*
X120618016Y-101089242D01*
X120614967Y-101098627D01*
X120557272Y-101338940D01*
X120555729Y-101348687D01*
X120536338Y-101595070D01*
X120536338Y-101604930D01*
X115429662Y-101604930D01*
X115429662Y-101595070D01*
X115410271Y-101348687D01*
X115408728Y-101338940D01*
X115351033Y-101098627D01*
X115347984Y-101089242D01*
X115253408Y-100860915D01*
X115248927Y-100852121D01*
X115122660Y-100646072D01*
X115114599Y-100640810D01*
X115104393Y-100646817D01*
X114164022Y-101587188D01*
X114156408Y-101601132D01*
X113426356Y-101601132D01*
X113427592Y-101598868D01*
X113427461Y-101597035D01*
X113423210Y-101590420D01*
X112481066Y-100648276D01*
X112467529Y-100640884D01*
X112462260Y-100644570D01*
X112335073Y-100852121D01*
X112330592Y-100860915D01*
X112236016Y-101089242D01*
X112232967Y-101098627D01*
X112175272Y-101338940D01*
X112173729Y-101348687D01*
X112154338Y-101595070D01*
X112154338Y-101604930D01*
X110349662Y-101604930D01*
X110349662Y-101595070D01*
X110330271Y-101348687D01*
X110328728Y-101338940D01*
X110271033Y-101098627D01*
X110267984Y-101089242D01*
X110173408Y-100860915D01*
X110168927Y-100852121D01*
X110042660Y-100646072D01*
X110034599Y-100640810D01*
X110024393Y-100646817D01*
X109084022Y-101587188D01*
X109076408Y-101601132D01*
X108346356Y-101601132D01*
X108347592Y-101598868D01*
X108347461Y-101597035D01*
X108343210Y-101590420D01*
X107401066Y-100648276D01*
X107387529Y-100640884D01*
X107382260Y-100644570D01*
X107255073Y-100852121D01*
X107250592Y-100860915D01*
X107156016Y-101089242D01*
X107152967Y-101098627D01*
X107095272Y-101338940D01*
X107093729Y-101348687D01*
X107074338Y-101595070D01*
X107074338Y-101604930D01*
X101967662Y-101604930D01*
X101967662Y-101595070D01*
X101948271Y-101348687D01*
X101946728Y-101338940D01*
X101889033Y-101098627D01*
X101885984Y-101089242D01*
X101791408Y-100860915D01*
X101786927Y-100852121D01*
X101660660Y-100646072D01*
X101652599Y-100640810D01*
X101642393Y-100646817D01*
X100702022Y-101587188D01*
X100694408Y-101601132D01*
X99964356Y-101601132D01*
X99965592Y-101598868D01*
X99965461Y-101597035D01*
X99961210Y-101590420D01*
X99019066Y-100648276D01*
X99005529Y-100640884D01*
X99000260Y-100644570D01*
X98873073Y-100852121D01*
X98868592Y-100860915D01*
X98774016Y-101089242D01*
X98770967Y-101098627D01*
X98713272Y-101338940D01*
X98711729Y-101348687D01*
X98692338Y-101595070D01*
X98692338Y-101604930D01*
X96887662Y-101604930D01*
X96887662Y-101595070D01*
X96868271Y-101348687D01*
X96866728Y-101338940D01*
X96809033Y-101098627D01*
X96805984Y-101089242D01*
X96711408Y-100860915D01*
X96706927Y-100852121D01*
X96580660Y-100646072D01*
X96572599Y-100640810D01*
X96562393Y-100646817D01*
X95622022Y-101587188D01*
X95614408Y-101601132D01*
X94884356Y-101601132D01*
X94885592Y-101598868D01*
X94885461Y-101597035D01*
X94881210Y-101590420D01*
X93939066Y-100648276D01*
X93925529Y-100640884D01*
X93920260Y-100644570D01*
X93793073Y-100852121D01*
X93788592Y-100860915D01*
X93694016Y-101089242D01*
X93690967Y-101098627D01*
X93633272Y-101338940D01*
X93631729Y-101348687D01*
X93612338Y-101595070D01*
X93612338Y-101604930D01*
X76962000Y-101604930D01*
X76962000Y-100202000D01*
X76982002Y-100133879D01*
X77035658Y-100087386D01*
X77088000Y-100076000D01*
X94189561Y-100076000D01*
X94257682Y-100096002D01*
G37*
G04 #@! TD.AperFunction*
G04 #@! TA.AperFunction,Conductor*
G36*
X90441219Y-112390102D02*
G01*
X90462194Y-112407005D01*
X91021993Y-112966805D01*
X91056018Y-113029117D01*
X91050953Y-113099933D01*
X91008406Y-113156768D01*
X90941886Y-113181579D01*
X90932897Y-113181900D01*
X85394902Y-113181900D01*
X85326781Y-113161898D01*
X85305807Y-113144995D01*
X84837920Y-112677108D01*
X84830810Y-112669295D01*
X84826826Y-112663017D01*
X84779069Y-112618170D01*
X84776227Y-112615415D01*
X84757265Y-112596453D01*
X84754137Y-112594027D01*
X84751164Y-112591405D01*
X84752262Y-112590159D01*
X84714667Y-112538076D01*
X84710832Y-112467183D01*
X84745934Y-112405471D01*
X84808828Y-112372533D01*
X84833469Y-112370100D01*
X90373098Y-112370100D01*
X90441219Y-112390102D01*
G37*
G04 #@! TD.AperFunction*
G04 #@! TA.AperFunction,Conductor*
G36*
X90441220Y-109850102D02*
G01*
X90462194Y-109867005D01*
X91018918Y-110423729D01*
X91052944Y-110486041D01*
X91047879Y-110556856D01*
X91005332Y-110613692D01*
X90941680Y-110638265D01*
X90927791Y-110639578D01*
X90909138Y-110641341D01*
X90897281Y-110641900D01*
X85394902Y-110641900D01*
X85326781Y-110621898D01*
X85305807Y-110604995D01*
X84837920Y-110137108D01*
X84830810Y-110129295D01*
X84826826Y-110123017D01*
X84779069Y-110078170D01*
X84776227Y-110075415D01*
X84757265Y-110056453D01*
X84754137Y-110054027D01*
X84751164Y-110051405D01*
X84752262Y-110050159D01*
X84714667Y-109998076D01*
X84710832Y-109927183D01*
X84745934Y-109865471D01*
X84808828Y-109832533D01*
X84833469Y-109830100D01*
X90373099Y-109830100D01*
X90441220Y-109850102D01*
G37*
G04 #@! TD.AperFunction*
G04 #@! TA.AperFunction,Conductor*
G36*
X90187220Y-107310102D02*
G01*
X90208194Y-107327005D01*
X90767994Y-107886805D01*
X90802020Y-107949117D01*
X90796955Y-108019932D01*
X90754408Y-108076768D01*
X90687888Y-108101579D01*
X90678899Y-108101900D01*
X85394902Y-108101900D01*
X85326781Y-108081898D01*
X85305807Y-108064995D01*
X84837920Y-107597108D01*
X84830810Y-107589295D01*
X84826826Y-107583017D01*
X84808551Y-107565855D01*
X84779069Y-107538170D01*
X84776227Y-107535415D01*
X84757265Y-107516453D01*
X84754137Y-107514027D01*
X84751164Y-107511405D01*
X84752262Y-107510159D01*
X84714667Y-107458076D01*
X84710832Y-107387183D01*
X84745934Y-107325471D01*
X84808828Y-107292533D01*
X84833469Y-107290100D01*
X90119099Y-107290100D01*
X90187220Y-107310102D01*
G37*
G04 #@! TD.AperFunction*
M02*
